AnekTamil-Medium.ufo
<glyph name="seven" format="2">
  <advance width="934"/>
  <unicode hex="0037"/>
  <outline>
    <contour>
      <point x="199" y="0" type="line"/>
      <point x="418" y="0" type="line"/>
      <point x="877" y="1104" type="line"/>
      <point x="877" y="1278" type="line"/>
      <point x="55" y="1278" type="line"/>
      <point x="55" y="1108" type="line"/>
      <point x="667" y="1108" type="line"/>
    </contour>
  </outline>
</glyph>
<glyph name="asciitilde" format="2">
  <advance width="1084"/>
  <unicode hex="007E"/>
  <outline>
    <contour>
      <point x="747" y="476" type="curve" smooth="yes"/>
      <point x="907" y="476"/>
      <point x="967" y="570"/>
      <point x="967" y="729" type="curve" smooth="yes"/>
      <point x="967" y="768" type="line"/>
      <point x="822" y="768" type="line"/>
      <point x="822" y="751" type="line" smooth="yes"/>
      <point x="822" y="679"/>
      <point x="800" y="639"/>
      <point x="734" y="639" type="curve" smooth="yes"/>
      <point x="624" y="639"/>
      <point x="489" y="748"/>
      <point x="337" y="748" type="curve" smooth="yes"/>
      <point x="176" y="748"/>
      <point x="117" y="651"/>
      <point x="117" y="494" type="curve" smooth="yes"/>
      <point x="117" y="456" type="line"/>
      <point x="261" y="456" type="line"/>
      <point x="261" y="472" type="line" smooth="yes"/>
      <point x="261" y="542"/>
      <point x="285" y="584"/>
      <point x="349" y="584" type="curve" smooth="yes"/>
      <point x="461" y="584"/>
      <point x="596" y="476"/>
    </contour>
  </outline>
</glyph>
<glyph name="twosuperior" format="2">
  <advance width="593"/>
  <unicode hex="00B2"/>
  <outline>
    <contour>
      <point x="37" y="726" type="line"/>
      <point x="551" y="726" type="line"/>
      <point x="551" y="848" type="line"/>
      <point x="173" y="848" type="line"/>
      <point x="238" y="825" type="line"/>
      <point x="238" y="855" type="line"/>
      <point x="359" y="946" type="line" smooth="yes"/>
      <point x="474" y="1035"/>
      <point x="542" y="1105"/>
      <point x="542" y="1213" type="curve" smooth="yes"/>
      <point x="542" y="1224" type="line" smooth="yes"/>
      <point x="542" y="1346"/>
      <point x="452" y="1419"/>
      <point x="283" y="1419" type="curve" smooth="yes"/>
      <point x="197" y="1419"/>
      <point x="110" y="1396"/>
      <point x="57" y="1368" type="curve"/>
      <point x="45" y="1244" type="line"/>
      <point x="106" y="1271"/>
      <point x="175" y="1296"/>
      <point x="260" y="1296" type="curve" smooth="yes"/>
      <point x="354" y="1296"/>
      <point x="392" y="1264"/>
      <point x="392" y="1208" type="curve" smooth="yes"/>
      <point x="392" y="1201" type="line" smooth="yes"/>
      <point x="392" y="1136"/>
      <point x="332" y="1081"/>
      <point x="240" y="1009" type="curve" smooth="yes"/>
      <point x="37" y="850" type="line"/>
    </contour>
  </outline>
</glyph>
<glyph name="oslash" format="2">
  <advance width="1051"/>
  <unicode hex="00F8"/>
  <anchor x="525" y="0" name="bottom"/>
  <anchor x="525" y="490" name="center"/>
  <anchor x="950" y="10" name="ogonek"/>
  <anchor x="525" y="978" name="top"/>
  <anchor x="1036" y="978" name="topright"/>
  <outline>
    <contour>
      <point x="526" y="-25" type="curve" smooth="yes"/>
      <point x="814" y="-25"/>
      <point x="965" y="133"/>
      <point x="965" y="421" type="curve"/>
      <point x="965" y="560" type="line"/>
      <point x="965" y="847"/>
      <point x="814" y="1004"/>
      <point x="526" y="1004" type="curve" smooth="yes"/>
      <point x="238" y="1004"/>
      <point x="86" y="847"/>
      <point x="86" y="560" type="curve"/>
      <point x="86" y="421" type="line"/>
      <point x="86" y="134"/>
      <point x="238" y="-25"/>
    </contour>
    <contour>
      <point x="102" y="-69" type="line"/>
      <point x="270" y="-69" type="line"/>
      <point x="350" y="59" type="line"/>
      <point x="378" y="108" type="line"/>
      <point x="783" y="804" type="line"/>
      <point x="827" y="864" type="line"/>
      <point x="949" y="1047" type="line"/>
      <point x="782" y="1047" type="line"/>
      <point x="711" y="932" type="line"/>
      <point x="685" y="888" type="line"/>
      <point x="275" y="188" type="line"/>
      <point x="232" y="131" type="line"/>
    </contour>
    <contour>
      <point x="526" y="134" type="curve" smooth="yes"/>
      <point x="367" y="134"/>
      <point x="283" y="232"/>
      <point x="283" y="409" type="curve" smooth="yes"/>
      <point x="283" y="572" type="line" smooth="yes"/>
      <point x="283" y="748"/>
      <point x="367" y="845"/>
      <point x="526" y="845" type="curve" smooth="yes"/>
      <point x="685" y="845"/>
      <point x="769" y="748"/>
      <point x="769" y="572" type="curve" smooth="yes"/>
      <point x="769" y="409" type="line" smooth="yes"/>
      <point x="769" y="231"/>
      <point x="685" y="134"/>
    </contour>
  </outline>
</glyph>
<glyph name="Anusvara.tm" format="2">
  <unicode hex="0B82"/>
  <note>
Anusvara.tm
</note>
  <outline>
    <contour>
      <point x="289" y="1813" type="curve" smooth="yes"/>
      <point x="90" y="1813"/>
      <point x="2" y="1716"/>
      <point x="2" y="1554" type="curve" smooth="yes"/>
      <point x="2" y="1501" type="line"/>
      <point x="2" y="1338"/>
      <point x="90" y="1243"/>
      <point x="289" y="1243" type="curve" smooth="yes"/>
      <point x="490" y="1243"/>
      <point x="576" y="1338"/>
      <point x="576" y="1501" type="curve" smooth="yes"/>
      <point x="576" y="1554" type="line"/>
      <point x="576" y="1716"/>
      <point x="490" y="1813"/>
    </contour>
    <contour>
      <point x="289" y="1683" type="curve" smooth="yes"/>
      <point x="380" y="1683"/>
      <point x="417" y="1639"/>
      <point x="417" y="1556" type="curve" smooth="yes"/>
      <point x="417" y="1500" type="line"/>
      <point x="417" y="1417"/>
      <point x="381" y="1372"/>
      <point x="289" y="1372" type="curve" smooth="yes"/>
      <point x="199" y="1372"/>
      <point x="160" y="1417"/>
      <point x="160" y="1500" type="curve" smooth="yes"/>
      <point x="160" y="1556" type="line"/>
      <point x="160" y="1639"/>
      <point x="200" y="1683"/>
    </contour>
  </outline>
</glyph>
<glyph name="Aaytam.tm" format="2">
  <advance width="1608"/>
  <unicode hex="0B83"/>
  <note>
Aaytam.tm
</note>
  <outline>
    <contour>
      <point x="413" y="643" type="curve" smooth="yes"/>
      <point x="193" y="643"/>
      <point x="86" y="526"/>
      <point x="86" y="330" type="curve" smooth="yes"/>
      <point x="86" y="288" type="line"/>
      <point x="86" y="90"/>
      <point x="193" y="-27"/>
      <point x="413" y="-27" type="curve" smooth="yes"/>
      <point x="633" y="-27"/>
      <point x="740" y="89"/>
      <point x="740" y="285" type="curve" smooth="yes"/>
      <point x="740" y="332" type="line"/>
      <point x="740" y="526"/>
      <point x="633" y="643"/>
    </contour>
    <contour>
      <point x="413" y="495" type="curve" smooth="yes"/>
      <point x="519" y="495"/>
      <point x="567" y="433"/>
      <point x="567" y="325" type="curve" smooth="yes"/>
      <point x="567" y="292" type="line"/>
      <point x="567" y="184"/>
      <point x="519" y="123"/>
      <point x="413" y="123" type="curve" smooth="yes"/>
      <point x="306" y="123"/>
      <point x="257" y="184"/>
      <point x="257" y="292" type="curve" smooth="yes"/>
      <point x="257" y="325" type="line"/>
      <point x="257" y="433"/>
      <point x="306" y="495"/>
    </contour>
    <contour>
      <point x="1196" y="643" type="curve" smooth="yes"/>
      <point x="976" y="643"/>
      <point x="869" y="526"/>
      <point x="869" y="330" type="curve" smooth="yes"/>
      <point x="869" y="288" type="line"/>
      <point x="869" y="90"/>
      <point x="976" y="-27"/>
      <point x="1196" y="-27" type="curve" smooth="yes"/>
      <point x="1416" y="-27"/>
      <point x="1522" y="89"/>
      <point x="1522" y="285" type="curve" smooth="yes"/>
      <point x="1522" y="332" type="line"/>
      <point x="1522" y="526"/>
      <point x="1416" y="643"/>
    </contour>
    <contour>
      <point x="1196" y="495" type="curve" smooth="yes"/>
      <point x="1302" y="495"/>
      <point x="1351" y="433"/>
      <point x="1351" y="325" type="curve" smooth="yes"/>
      <point x="1351" y="292" type="line"/>
      <point x="1351" y="184"/>
      <point x="1302" y="123"/>
      <point x="1196" y="123" type="curve" smooth="yes"/>
      <point x="1089" y="123"/>
      <point x="1041" y="184"/>
      <point x="1041" y="292" type="curve" smooth="yes"/>
      <point x="1041" y="325" type="line"/>
      <point x="1041" y="433"/>
      <point x="1089" y="495"/>
    </contour>
    <contour>
      <point x="806" y="1343" type="curve" smooth="yes"/>
      <point x="585" y="1343"/>
      <point x="478" y="1227"/>
      <point x="478" y="1032" type="curve" smooth="yes"/>
      <point x="478" y="990" type="line"/>
      <point x="478" y="795"/>
      <point x="585" y="679"/>
      <point x="806" y="679" type="curve" smooth="yes"/>
      <point x="1026" y="679"/>
      <point x="1132" y="794"/>
      <point x="1132" y="988" type="curve" smooth="yes"/>
      <point x="1132" y="1034" type="line"/>
      <point x="1132" y="1228"/>
      <point x="1026" y="1343"/>
    </contour>
    <contour>
      <point x="806" y="1195" type="curve" smooth="yes"/>
      <point x="911" y="1195"/>
      <point x="961" y="1134"/>
      <point x="961" y="1027" type="curve" smooth="yes"/>
      <point x="961" y="995" type="line"/>
      <point x="961" y="888"/>
      <point x="911" y="827"/>
      <point x="806" y="827" type="curve" smooth="yes"/>
      <point x="699" y="827"/>
      <point x="650" y="888"/>
      <point x="650" y="995" type="curve" smooth="yes"/>
      <point x="650" y="1027" type="line"/>
      <point x="650" y="1134"/>
      <point x="699" y="1195"/>
    </contour>
  </outline>
</glyph>
<glyph name="VowelA.tm" format="2">
  <advance width="2188"/>
  <unicode hex="0B85"/>
  <note>
vowelA.tm
</note>
  <outline>
    <contour>
      <point x="1041" y="1192" type="curve" smooth="yes"/>
      <point x="688" y="1192"/>
      <point x="499" y="1003"/>
      <point x="499" y="682" type="curve" smooth="yes"/>
      <point x="499" y="574" type="line" smooth="yes"/>
      <point x="499" y="357"/>
      <point x="612" y="224"/>
      <point x="841" y="224" type="curve" smooth="yes"/>
      <point x="1058" y="224"/>
      <point x="1154" y="347"/>
      <point x="1154" y="541" type="curve" smooth="yes"/>
      <point x="1154" y="619" type="line" smooth="yes"/>
      <point x="1154" y="806"/>
      <point x="1070" y="911"/>
      <point x="902" y="911" type="curve" smooth="yes"/>
      <point x="769" y="911"/>
      <point x="689" y="835"/>
      <point x="664" y="739" type="curve"/>
      <point x="651" y="739" type="line"/>
      <point x="657" y="624" type="line"/>
      <point x="678" y="709"/>
      <point x="747" y="772"/>
      <point x="840" y="772" type="curve" smooth="yes"/>
      <point x="940" y="772"/>
      <point x="986" y="715"/>
      <point x="986" y="605" type="curve" smooth="yes"/>
      <point x="986" y="543" type="line" smooth="yes"/>
      <point x="986" y="428"/>
      <point x="939" y="364"/>
      <point x="836" y="364" type="curve" smooth="yes"/>
      <point x="719" y="364"/>
      <point x="666" y="437"/>
      <point x="666" y="566" type="curve"/>
      <point x="666" y="739" type="line"/>
      <point x="659" y="739" type="line"/>
      <point x="665" y="918"/>
      <point x="787" y="1053"/>
      <point x="1040" y="1053" type="curve" smooth="yes"/>
      <point x="1317" y="1053"/>
      <point x="1421" y="913"/>
      <point x="1421" y="662" type="curve" smooth="yes"/>
      <point x="1421" y="562" type="line" smooth="yes"/>
      <point x="1421" y="219"/>
      <point x="1248" y="55"/>
      <point x="855" y="55" type="curve" smooth="yes"/>
      <point x="853" y="55" type="line" smooth="yes"/>
      <point x="483" y="55"/>
      <point x="251" y="216"/>
      <point x="251" y="507" type="curve" smooth="yes"/>
      <point x="251" y="512" type="line" smooth="yes"/>
      <point x="251" y="523"/>
      <point x="251" y="534"/>
      <point x="252" y="545" type="curve"/>
      <point x="576" y="545" type="line"/>
      <point x="572" y="680" type="line"/>
      <point x="76" y="680" type="line"/>
      <point x="74" y="648"/>
      <point x="73" y="615"/>
      <point x="73" y="579" type="curve" smooth="yes"/>
      <point x="73" y="561" type="line" smooth="yes"/>
      <point x="73" y="125"/>
      <point x="373" y="-93"/>
      <point x="855" y="-93" type="curve" smooth="yes"/>
      <point x="859" y="-93" type="line" smooth="yes"/>
      <point x="1373" y="-93"/>
      <point x="1599" y="130"/>
      <point x="1599" y="565" type="curve" smooth="yes"/>
      <point x="1599" y="657" type="line" smooth="yes"/>
      <point x="1599" y="997"/>
      <point x="1434" y="1192"/>
    </contour>
    <contour>
      <point x="1024" y="678" type="line"/>
      <point x="1024" y="540" type="line"/>
      <point x="1459" y="539" type="line"/>
      <point x="1459" y="677" type="line"/>
    </contour>
    <contour>
      <point x="1481" y="680" type="line"/>
      <point x="1481" y="537" type="line"/>
      <point x="1848" y="537" type="line"/>
      <point x="1848" y="680" type="line"/>
    </contour>
    <contour>
      <point x="1834" y="1146" type="line"/>
      <point x="1834" y="-60" type="line"/>
      <point x="2020" y="-60" type="line"/>
      <point x="2020" y="1146" type="line"/>
    </contour>
  </outline>
</glyph>
<glyph name="VowelI.tm" format="2">
  <advance width="2183"/>
  <unicode hex="0B87"/>
  <note>
vowelI.tm
</note>
  <outline>
    <contour>
      <point x="1077" y="1168" type="curve" smooth="yes"/>
      <point x="724" y="1168"/>
      <point x="544" y="984"/>
      <point x="544" y="680" type="curve" smooth="yes"/>
      <point x="544" y="573" type="line" smooth="yes"/>
      <point x="544" y="358"/>
      <point x="652" y="228"/>
      <point x="877" y="228" type="curve" smooth="yes"/>
      <point x="1090" y="228"/>
      <point x="1185" y="349"/>
      <point x="1185" y="543" type="curve" smooth="yes"/>
      <point x="1185" y="613" type="line" smooth="yes"/>
      <point x="1185" y="797"/>
      <point x="1103" y="901"/>
      <point x="935" y="901" type="curve" smooth="yes"/>
      <point x="806" y="901"/>
      <point x="729" y="825"/>
      <point x="706" y="731" type="curve"/>
      <point x="692" y="731" type="line"/>
      <point x="697" y="623" type="line"/>
      <point x="718" y="706"/>
      <point x="788" y="767"/>
      <point x="879" y="767" type="curve" smooth="yes"/>
      <point x="979" y="767"/>
      <point x="1024" y="710"/>
      <point x="1024" y="604" type="curve" smooth="yes"/>
      <point x="1024" y="537" type="line" smooth="yes"/>
      <point x="1024" y="427"/>
      <point x="978" y="364"/>
      <point x="873" y="364" type="curve" smooth="yes"/>
      <point x="759" y="364"/>
      <point x="706" y="436"/>
      <point x="706" y="564" type="curve" smooth="yes"/>
      <point x="706" y="731" type="line"/>
      <point x="699" y="731" type="line"/>
      <point x="703" y="902"/>
      <point x="819" y="1033"/>
      <point x="1068" y="1033" type="curve" smooth="yes"/>
      <point x="1336" y="1033"/>
      <point x="1433" y="898"/>
      <point x="1433" y="649" type="curve" smooth="yes"/>
      <point x="1433" y="614" type="line" smooth="yes"/>
      <point x="1433" y="241"/>
      <point x="1275" y="62"/>
      <point x="883" y="62" type="curve" smooth="yes"/>
      <point x="513" y="62"/>
      <point x="294" y="204"/>
      <point x="294" y="485" type="curve" smooth="yes"/>
      <point x="294" y="493" type="line"/>
      <point x="294" y="507"/>
      <point x="294" y="522"/>
      <point x="294" y="541" type="curve"/>
      <point x="614" y="541" type="line"/>
      <point x="611" y="681" type="line"/>
      <point x="116" y="681" type="line"/>
      <point x="114" y="640"/>
      <point x="113" y="597"/>
      <point x="113" y="561" type="curve" smooth="yes"/>
      <point x="113" y="538" type="line" smooth="yes"/>
      <point x="113" y="107"/>
      <point x="401" y="-90"/>
      <point x="888" y="-90" type="curve" smooth="yes"/>
      <point x="1103" y="-90"/>
      <point x="1266" y="-45"/>
      <point x="1371" y="37" type="curve"/>
      <point x="1402" y="68" type="line"/>
      <point x="1548" y="177"/>
      <point x="1614" y="366"/>
      <point x="1614" y="620" type="curve"/>
      <point x="1614" y="644" type="line"/>
      <point x="1614" y="971"/>
      <point x="1460" y="1168"/>
    </contour>
    <contour>
      <point x="2076" y="683" type="curve"/>
      <point x="1083" y="683" type="line"/>
      <point x="1083" y="540" type="line"/>
      <point x="1900" y="540" type="line"/>
      <point x="1901" y="512"/>
      <point x="1901" y="482"/>
      <point x="1901" y="454" type="curve"/>
      <point x="1901" y="418" type="line" smooth="yes"/>
      <point x="1901" y="178"/>
      <point x="1821" y="64"/>
      <point x="1626" y="64" type="curve" smooth="yes"/>
      <point x="1532" y="64"/>
      <point x="1445" y="89"/>
      <point x="1377" y="144" type="curve"/>
      <point x="1282" y="35" type="line"/>
      <point x="1363" y="-45"/>
      <point x="1498" y="-87"/>
      <point x="1645" y="-87" type="curve" smooth="yes"/>
      <point x="1950" y="-87"/>
      <point x="2081" y="76"/>
      <point x="2081" y="441" type="curve" smooth="yes"/>
      <point x="2081" y="508" type="line"/>
      <point x="2081" y="562"/>
      <point x="2078" y="628"/>
    </contour>
    <contour>
      <point x="1088" y="1574" type="curve" smooth="yes"/>
      <point x="498" y="1574"/>
      <point x="177" y="1321"/>
      <point x="177" y="900" type="curve" smooth="yes"/>
      <point x="177" y="891" type="line" smooth="yes"/>
      <point x="177" y="851"/>
      <point x="185" y="809"/>
      <point x="198" y="775" type="curve"/>
      <point x="382" y="732" type="line"/>
      <point x="365" y="772"/>
      <point x="357" y="823"/>
      <point x="357" y="873" type="curve" smooth="yes"/>
      <point x="357" y="883" type="line" smooth="yes"/>
      <point x="357" y="1219"/>
      <point x="613" y="1415"/>
      <point x="1088" y="1415" type="curve" smooth="yes"/>
      <point x="1567" y="1415"/>
      <point x="1806" y="1218"/>
      <point x="1806" y="878" type="curve" smooth="yes"/>
      <point x="1806" y="840"/>
      <point x="1805" y="798"/>
      <point x="1801" y="758" type="curve"/>
      <point x="1980" y="758" type="line"/>
      <point x="1985" y="803"/>
      <point x="1987" y="849"/>
      <point x="1987" y="893" type="curve" smooth="yes"/>
      <point x="1987" y="1322"/>
      <point x="1680" y="1574"/>
    </contour>
  </outline>
</glyph>
<glyph name="VowelIi.tm" format="2">
  <advance width="1419"/>
  <unicode hex="0B88"/>
  <note>
vowelIi.tm
</note>
  <outline>
    <contour>
      <point x="853" y="0" type="line"/>
      <point x="1039" y="0" type="line"/>
      <point x="1039" y="1098" type="line"/>
      <point x="853" y="1098" type="line"/>
    </contour>
    <contour>
      <point x="603" y="418" type="curve" smooth="yes"/>
      <point x="681" y="418"/>
      <point x="710" y="461"/>
      <point x="710" y="552" type="curve" smooth="yes"/>
      <point x="710" y="577" type="line" smooth="yes"/>
      <point x="710" y="666"/>
      <point x="678" y="709"/>
      <point x="603" y="709" type="curve" smooth="yes"/>
      <point x="530" y="709"/>
      <point x="498" y="666"/>
      <point x="498" y="577" type="curve" smooth="yes"/>
      <point x="498" y="552" type="line" smooth="yes"/>
      <point x="498" y="461"/>
      <point x="528" y="418"/>
    </contour>
    <contour>
      <point x="1273" y="418" type="curve" smooth="yes"/>
      <point x="1349" y="418"/>
      <point x="1379" y="461"/>
      <point x="1379" y="552" type="curve" smooth="yes"/>
      <point x="1379" y="577" type="line" smooth="yes"/>
      <point x="1379" y="666"/>
      <point x="1347" y="709"/>
      <point x="1273" y="709" type="curve" smooth="yes"/>
      <point x="1198" y="709"/>
      <point x="1167" y="666"/>
      <point x="1167" y="577" type="curve" smooth="yes"/>
      <point x="1167" y="552" type="line" smooth="yes"/>
      <point x="1167" y="461"/>
      <point x="1197" y="418"/>
    </contour>
    <contour>
      <point x="1065" y="1147" type="line"/>
      <point x="168" y="1147" type="line"/>
      <point x="168" y="0" type="line"/>
      <point x="354" y="0" type="line"/>
      <point x="354" y="994" type="line"/>
      <point x="1065" y="994" type="line"/>
    </contour>
    <component base="RaBeak_Nonexporting" xOffset="804"/>
  </outline>
</glyph>
<glyph name="VowelU.tm" format="2">
  <advance width="1781"/>
  <unicode hex="0B89"/>
  <note>
vowelU.tm
</note>
  <outline>
    <contour>
      <point x="694" y="1210" type="curve" smooth="yes"/>
      <point x="338" y="1210"/>
      <point x="148" y="1050"/>
      <point x="148" y="794" type="curve" smooth="yes"/>
      <point x="148" y="780" type="line" smooth="yes"/>
      <point x="148" y="586"/>
      <point x="268" y="470"/>
      <point x="483" y="470" type="curve" smooth="yes"/>
      <point x="691" y="470"/>
      <point x="789" y="570"/>
      <point x="789" y="738" type="curve" smooth="yes"/>
      <point x="789" y="744" type="line" smooth="yes"/>
      <point x="789" y="895"/>
      <point x="709" y="976"/>
      <point x="555" y="976" type="curve" smooth="yes"/>
      <point x="424" y="976"/>
      <point x="343" y="908"/>
      <point x="319" y="818" type="curve"/>
      <point x="304" y="818" type="line"/>
      <point x="310" y="714" type="line"/>
      <point x="325" y="791"/>
      <point x="400" y="847"/>
      <point x="490" y="847" type="curve" smooth="yes"/>
      <point x="582" y="847"/>
      <point x="628" y="808"/>
      <point x="628" y="728" type="curve" smooth="yes"/>
      <point x="628" y="722" type="line" smooth="yes"/>
      <point x="628" y="645"/>
      <point x="582" y="600"/>
      <point x="483" y="600" type="curve" smooth="yes"/>
      <point x="375" y="600"/>
      <point x="320" y="656"/>
      <point x="320" y="741" type="curve" smooth="yes"/>
      <point x="320" y="818" type="line"/>
      <point x="312" y="818" type="line"/>
      <point x="317" y="967"/>
      <point x="439" y="1069"/>
      <point x="689" y="1069" type="curve" smooth="yes"/>
      <point x="956" y="1069"/>
      <point x="1068" y="955"/>
      <point x="1068" y="757" type="curve" smooth="yes"/>
      <point x="1068" y="735" type="line" smooth="yes"/>
      <point x="1068" y="543"/>
      <point x="991" y="429"/>
      <point x="715" y="409" type="curve" smooth="yes"/>
      <point x="308" y="379" type="line" smooth="yes"/>
      <point x="181" y="370"/>
      <point x="125" y="315"/>
      <point x="125" y="207" type="curve" smooth="yes"/>
      <point x="125" y="147"/>
      <point x="144" y="69"/>
      <point x="171" y="0" type="curve"/>
      <point x="1753" y="0" type="line"/>
      <point x="1777" y="139" type="line"/>
      <point x="296" y="139" type="line"/>
      <point x="290" y="158"/>
      <point x="286" y="178"/>
      <point x="286" y="196" type="curve" smooth="yes"/>
      <point x="286" y="233"/>
      <point x="307" y="250"/>
      <point x="365" y="253" type="curve" smooth="yes"/>
      <point x="736" y="273" type="line" smooth="yes"/>
      <point x="1126" y="294"/>
      <point x="1246" y="452"/>
      <point x="1246" y="734" type="curve" smooth="yes"/>
      <point x="1246" y="751" type="line" smooth="yes"/>
      <point x="1246" y="1043"/>
      <point x="1074" y="1210"/>
    </contour>
  </outline>
</glyph>
<glyph name="VowelE.tm" format="2">
  <advance width="1493"/>
  <unicode hex="0B8E"/>
  <note>
vowelE.tm
</note>
  <outline>
    <contour>
      <point x="792" y="994" type="line"/>
      <point x="1506" y="994" type="line"/>
      <point x="1488" y="1147" type="line"/>
      <point x="792" y="1147" type="line"/>
    </contour>
    <contour>
      <point x="1092" y="1097" type="line"/>
      <point x="1092" y="0" type="line"/>
      <point x="1277" y="0" type="line"/>
      <point x="1277" y="1097" type="line"/>
    </contour>
    <component base="VowelE_NonExporting" xOffset="20"/>
  </outline>
</glyph>
<glyph name="VowelEe.tm" format="2">
  <advance width="1506"/>
  <unicode hex="0B8F"/>
  <note>
vowelEe.tm
</note>
  <outline>
    <contour>
      <point x="1104" y="1100" type="line"/>
      <point x="1104" y="-126" type="line"/>
      <point x="572" y="-212" type="line"/>
      <point x="572" y="-362" type="line"/>
      <point x="1290" y="-262" type="line"/>
      <point x="1290" y="1100" type="line"/>
    </contour>
    <contour>
      <point x="802" y="994" type="line"/>
      <point x="1519" y="994" type="line"/>
      <point x="1501" y="1147" type="line"/>
      <point x="802" y="1147" type="line"/>
    </contour>
    <component base="VowelE_NonExporting" xOffset="20"/>
  </outline>
</glyph>
<glyph name="VowelO.tm" format="2">
  <advance width="1816"/>
  <unicode hex="0B92"/>
  <note>
vowelO.tm
</note>
  <outline>
    <contour>
      <point x="907" y="1242" type="curve" smooth="yes"/>
      <point x="385" y="1242"/>
      <point x="106" y="1006"/>
      <point x="106" y="592" type="curve" smooth="yes"/>
      <point x="106" y="501" type="line" smooth="yes"/>
      <point x="106" y="254"/>
      <point x="218" y="97"/>
      <point x="474" y="97" type="curve" smooth="yes"/>
      <point x="712" y="97"/>
      <point x="809" y="233"/>
      <point x="809" y="444" type="curve" smooth="yes"/>
      <point x="809" y="506" type="line" smooth="yes"/>
      <point x="809" y="715"/>
      <point x="721" y="825"/>
      <point x="543" y="825" type="curve" smooth="yes"/>
      <point x="399" y="825"/>
      <point x="311" y="746"/>
      <point x="285" y="645" type="curve"/>
      <point x="270" y="645" type="line"/>
      <point x="275" y="520" type="line"/>
      <point x="296" y="607"/>
      <point x="373" y="672"/>
      <point x="472" y="672" type="curve" smooth="yes"/>
      <point x="583" y="672"/>
      <point x="632" y="609"/>
      <point x="632" y="493" type="curve" smooth="yes"/>
      <point x="632" y="431" type="line" smooth="yes"/>
      <point x="632" y="312"/>
      <point x="583" y="241"/>
      <point x="469" y="241" type="curve" smooth="yes"/>
      <point x="342" y="241"/>
      <point x="284" y="322"/>
      <point x="284" y="461" type="curve" smooth="yes"/>
      <point x="284" y="635" type="line"/>
      <point x="278" y="635" type="line"/>
      <point x="283" y="926"/>
      <point x="500" y="1088"/>
      <point x="904" y="1088" type="curve" smooth="yes"/>
      <point x="1345" y="1088"/>
      <point x="1505" y="903"/>
      <point x="1505" y="590" type="curve" smooth="yes"/>
      <point x="1505" y="510" type="line" smooth="yes"/>
      <point x="1505" y="357"/>
      <point x="1458" y="281"/>
      <point x="1340" y="281" type="curve" smooth="yes"/>
      <point x="1215" y="281"/>
      <point x="1165" y="364"/>
      <point x="1165" y="528" type="curve" smooth="yes"/>
      <point x="1165" y="617"/>
      <point x="1168" y="690"/>
      <point x="1177" y="778" type="curve"/>
      <point x="1007" y="778" type="line"/>
      <point x="999" y="699"/>
      <point x="992" y="616"/>
      <point x="992" y="528" type="curve" smooth="yes"/>
      <point x="992" y="291"/>
      <point x="1083" y="159"/>
      <point x="1326" y="159" type="curve" smooth="yes"/>
      <point x="1389" y="159"/>
      <point x="1446" y="171"/>
      <point x="1494" y="193" type="curve"/>
      <point x="1627" y="233"/>
      <point x="1683" y="351"/>
      <point x="1683" y="545" type="curve" smooth="yes"/>
      <point x="1683" y="601" type="line" smooth="yes"/>
      <point x="1683" y="990"/>
      <point x="1460" y="1242"/>
    </contour>
    <contour>
      <point x="1714" y="240" type="line"/>
      <point x="1442" y="240" type="line"/>
      <point x="1310" y="164" type="line"/>
      <point x="1310" y="152" type="line"/>
      <point x="1214" y="137"/>
      <point x="1172" y="88"/>
      <point x="1164" y="-27" type="curve" smooth="yes"/>
      <point x="1160" y="-90" type="line" smooth="yes"/>
      <point x="1150" y="-275"/>
      <point x="1087" y="-356"/>
      <point x="937" y="-356" type="curve" smooth="yes"/>
      <point x="783" y="-356"/>
      <point x="702" y="-268"/>
      <point x="702" y="-74" type="curve" smooth="yes"/>
      <point x="702" y="-52"/>
      <point x="704" y="-25"/>
      <point x="706" y="-6" type="curve"/>
      <point x="525" y="-20" type="line"/>
      <point x="524" y="-35"/>
      <point x="523" y="-54"/>
      <point x="523" y="-74" type="curve" smooth="yes"/>
      <point x="523" y="-355"/>
      <point x="663" y="-504"/>
      <point x="941" y="-504" type="curve" smooth="yes"/>
      <point x="1215" y="-504"/>
      <point x="1329" y="-368"/>
      <point x="1341" y="-92" type="curve" smooth="yes"/>
      <point x="1343" y="-36" type="line" smooth="yes"/>
      <point x="1347" y="48"/>
      <point x="1371" y="94"/>
      <point x="1464" y="94" type="curve" smooth="yes"/>
      <point x="1695" y="94" type="line"/>
    </contour>
  </outline>
</glyph>
<glyph name="VowelOo.tm" format="2">
  <advance width="1816"/>
  <unicode hex="0B93"/>
  <note>
vowelOo.tm
</note>
  <outline>
    <contour>
      <point x="1714" y="240" type="line"/>
      <point x="1461" y="240" type="line"/>
      <point x="1326" y="164" type="line"/>
      <point x="1326" y="152" type="line"/>
      <point x="1233" y="138"/>
      <point x="1190" y="87"/>
      <point x="1184" y="-33" type="curve" smooth="yes"/>
      <point x="1181" y="-89" type="line" smooth="yes"/>
      <point x="1170" y="-303"/>
      <point x="1083" y="-393"/>
      <point x="891" y="-394" type="curve" smooth="yes"/>
      <point x="885" y="-394"/>
      <point x="880" y="-394"/>
      <point x="871" y="-393" type="curve"/>
      <point x="871" y="-386" type="line"/>
      <point x="804" y="-387" type="line"/>
      <point x="661" y="-377"/>
      <point x="585" y="-300"/>
      <point x="585" y="-189" type="curve" smooth="yes"/>
      <point x="585" y="-184" type="line" smooth="yes"/>
      <point x="585" y="-100"/>
      <point x="631" y="-54"/>
      <point x="713" y="-54" type="curve" smooth="yes"/>
      <point x="794" y="-54"/>
      <point x="834" y="-99"/>
      <point x="834" y="-194" type="curve" smooth="yes"/>
      <point x="834" y="-198" type="line" smooth="yes"/>
      <point x="834" y="-282"/>
      <point x="806" y="-359"/>
      <point x="767" y="-406" type="curve"/>
      <point x="871" y="-405" type="line"/>
      <point x="871" y="-388" type="line"/>
      <point x="964" y="-357"/>
      <point x="998" y="-274"/>
      <point x="998" y="-171" type="curve" smooth="yes"/>
      <point x="998" y="-163" type="line" smooth="yes"/>
      <point x="998" y="2"/>
      <point x="903" y="86"/>
      <point x="718" y="86" type="curve" smooth="yes"/>
      <point x="536" y="86"/>
      <point x="425" y="-9"/>
      <point x="425" y="-178" type="curve" smooth="yes"/>
      <point x="425" y="-186" type="line" smooth="yes"/>
      <point x="425" y="-395"/>
      <point x="582" y="-529"/>
      <point x="893" y="-529" type="curve" smooth="yes"/>
      <point x="1205" y="-529"/>
      <point x="1339" y="-388"/>
      <point x="1355" y="-96" type="curve" smooth="yes"/>
      <point x="1358" y="-40" type="line" smooth="yes"/>
      <point x="1363" y="47"/>
      <point x="1385" y="94"/>
      <point x="1478" y="94" type="curve" smooth="yes"/>
      <point x="1695" y="94" type="line"/>
    </contour>
    <contour>
      <point x="907" y="1242" type="curve" smooth="yes"/>
      <point x="385" y="1242"/>
      <point x="106" y="1006"/>
      <point x="106" y="592" type="curve" smooth="yes"/>
      <point x="106" y="536" type="line" smooth="yes"/>
      <point x="106" y="290"/>
      <point x="218" y="132"/>
      <point x="474" y="132" type="curve" smooth="yes"/>
      <point x="712" y="132"/>
      <point x="809" y="268"/>
      <point x="809" y="479" type="curve" smooth="yes"/>
      <point x="809" y="506" type="line" smooth="yes"/>
      <point x="809" y="715"/>
      <point x="721" y="825"/>
      <point x="543" y="825" type="curve" smooth="yes"/>
      <point x="399" y="825"/>
      <point x="309" y="746"/>
      <point x="282" y="645" type="curve"/>
      <point x="270" y="645" type="line"/>
      <point x="275" y="520" type="line"/>
      <point x="296" y="607"/>
      <point x="373" y="672"/>
      <point x="472" y="672" type="curve" smooth="yes"/>
      <point x="583" y="672"/>
      <point x="632" y="609"/>
      <point x="632" y="493" type="curve" smooth="yes"/>
      <point x="632" y="466" type="line" smooth="yes"/>
      <point x="632" y="347"/>
      <point x="583" y="276"/>
      <point x="469" y="276" type="curve" smooth="yes"/>
      <point x="342" y="276"/>
      <point x="284" y="358"/>
      <point x="284" y="496" type="curve"/>
      <point x="284" y="635" type="line"/>
      <point x="278" y="635" type="line"/>
      <point x="283" y="926"/>
      <point x="500" y="1088"/>
      <point x="904" y="1088" type="curve" smooth="yes"/>
      <point x="1345" y="1088"/>
      <point x="1505" y="903"/>
      <point x="1505" y="590" type="curve" smooth="yes"/>
      <point x="1505" y="510" type="line" smooth="yes"/>
      <point x="1505" y="357"/>
      <point x="1458" y="281"/>
      <point x="1340" y="281" type="curve" smooth="yes"/>
      <point x="1215" y="281"/>
      <point x="1165" y="364"/>
      <point x="1165" y="528" type="curve" smooth="yes"/>
      <point x="1165" y="617"/>
      <point x="1168" y="690"/>
      <point x="1177" y="778" type="curve"/>
      <point x="1007" y="778" type="line"/>
      <point x="999" y="699"/>
      <point x="992" y="616"/>
      <point x="992" y="528" type="curve" smooth="yes"/>
      <point x="992" y="291"/>
      <point x="1083" y="159"/>
      <point x="1326" y="159" type="curve" smooth="yes"/>
      <point x="1389" y="159"/>
      <point x="1446" y="171"/>
      <point x="1494" y="193" type="curve"/>
      <point x="1627" y="233"/>
      <point x="1683" y="351"/>
      <point x="1683" y="545" type="curve" smooth="yes"/>
      <point x="1683" y="601" type="line" smooth="yes"/>
      <point x="1683" y="990"/>
      <point x="1460" y="1242"/>
    </contour>
  </outline>
</glyph>
<glyph name="Ka.tm" format="2">
  <advance width="1614"/>
  <unicode hex="0B95"/>
  <note>
Ka.tm
</note>
  <anchor x="906" y="1239" name="top"/>
  <outline>
    <contour>
      <point x="939" y="546" type="line"/>
      <point x="1140" y="546" type="line" smooth="yes"/>
      <point x="1278" y="546"/>
      <point x="1335" y="497"/>
      <point x="1335" y="367" type="curve" smooth="yes"/>
      <point x="1335" y="324" type="line" smooth="yes"/>
      <point x="1335" y="203"/>
      <point x="1286" y="130"/>
      <point x="1144" y="130" type="curve" smooth="yes"/>
      <point x="1051" y="130"/>
      <point x="985" y="153"/>
      <point x="927" y="188" type="curve"/>
      <point x="924" y="175" type="line"/>
      <point x="956" y="17" type="line"/>
      <point x="1008" y="-5"/>
      <point x="1091" y="-24"/>
      <point x="1186" y="-24" type="curve" smooth="yes"/>
      <point x="1423" y="-24"/>
      <point x="1520" y="99"/>
      <point x="1520" y="318" type="curve" smooth="yes"/>
      <point x="1520" y="375" type="line" smooth="yes"/>
      <point x="1520" y="598"/>
      <point x="1417" y="694"/>
      <point x="1163" y="694" type="curve" smooth="yes"/>
      <point x="939" y="694" type="line"/>
    </contour>
    <component base="KaComponent_Nonexporting" xOffset="74"/>
    <component base="KaBeak_Nonexporting" xOffset="1039"/>
  </outline>
</glyph>
<glyph name="Nga.tm" format="2">
  <advance width="2109"/>
  <unicode hex="0B99"/>
  <note>
Nga.tm
</note>
  <anchor x="1164" y="1239" name="top"/>
  <outline>
    <contour>
      <point x="752" y="1095" type="line"/>
      <point x="752" y="0" type="line"/>
      <point x="938" y="0" type="line"/>
      <point x="938" y="1095" type="line"/>
    </contour>
    <contour>
      <point x="1219" y="762" type="curve" smooth="yes"/>
      <point x="1056" y="762"/>
      <point x="969" y="669"/>
      <point x="945" y="556" type="curve"/>
      <point x="927" y="556" type="line"/>
      <point x="927" y="429" type="line"/>
      <point x="932" y="429" type="line"/>
      <point x="964" y="531"/>
      <point x="1038" y="594"/>
      <point x="1138" y="594" type="curve" smooth="yes"/>
      <point x="1261" y="594"/>
      <point x="1310" y="517"/>
      <point x="1310" y="377" type="curve" smooth="yes"/>
      <point x="1310" y="339" type="line" smooth="yes"/>
      <point x="1310" y="186"/>
      <point x="1280" y="98"/>
      <point x="1206" y="13" type="curve"/>
      <point x="1206" y="0" type="line"/>
      <point x="1833" y="0" type="line"/>
      <point x="1833" y="151" type="line"/>
      <point x="1364" y="151" type="line"/>
      <point x="1422" y="103" type="line"/>
      <point x="1465" y="173"/>
      <point x="1490" y="255"/>
      <point x="1490" y="402" type="curve" smooth="yes"/>
      <point x="1490" y="441" type="line" smooth="yes"/>
      <point x="1490" y="648"/>
      <point x="1404" y="762"/>
    </contour>
    <contour>
      <point x="1755" y="1147" type="line"/>
      <point x="1755" y="0" type="line"/>
      <point x="1941" y="0" type="line"/>
      <point x="1941" y="1147" type="line"/>
    </contour>
    <contour>
      <point x="1128" y="1147" type="line"/>
      <point x="168" y="1147" type="line"/>
      <point x="168" y="0" type="line"/>
      <point x="354" y="0" type="line"/>
      <point x="354" y="994" type="line"/>
      <point x="1128" y="994" type="line"/>
    </contour>
    <component base="RaBeak_Nonexporting" xOffset="901"/>
  </outline>
</glyph>
<glyph name="Ca.tm" format="2">
  <advance width="1375"/>
  <unicode hex="0B9A"/>
  <note>
Ca.tm
</note>
  <anchor x="906" y="1239" name="top"/>
  <outline>
    <contour>
      <point x="948" y="554" type="line"/>
      <point x="1354" y="554" type="line"/>
      <point x="1333" y="704" type="line"/>
      <point x="948" y="704" type="line"/>
    </contour>
    <component base="KaComponent_Nonexporting" xOffset="74"/>
    <component base="KaBeak_Nonexporting" xOffset="978"/>
  </outline>
</glyph>
<glyph name="Tta.tm" format="2">
  <advance width="1481"/>
  <unicode hex="0B9F"/>
  <note>
Tta.tm
</note>
  <anchor x="889" y="1239" name="top"/>
  <outline>
    <contour>
      <point x="356" y="1147" type="line"/>
      <point x="168" y="1147" type="line"/>
      <point x="168" y="0" type="line"/>
      <point x="1456" y="0" type="line"/>
      <point x="1477" y="155" type="line"/>
      <point x="355" y="155" type="line"/>
    </contour>
  </outline>
</glyph>
<glyph name="Ta.tm" format="2">
  <advance width="1615"/>
  <unicode hex="0BA4"/>
  <note>
Ta.tm
</note>
  <anchor x="917" y="1239" name="top"/>
  <outline>
    <contour>
      <point x="945" y="544" type="line"/>
      <point x="1023" y="544" type="line" smooth="yes"/>
      <point x="1244" y="544"/>
      <point x="1330" y="466"/>
      <point x="1330" y="254" type="curve" smooth="yes"/>
      <point x="1330" y="206" type="line" smooth="yes"/>
      <point x="1330" y="-103"/>
      <point x="1203" y="-212"/>
      <point x="840" y="-212" type="curve" smooth="yes"/>
      <point x="489" y="-212" type="line"/>
      <point x="514" y="-368" type="line"/>
      <point x="852" y="-368" type="line" smooth="yes"/>
      <point x="1346" y="-368"/>
      <point x="1515" y="-210"/>
      <point x="1515" y="209" type="curve" smooth="yes"/>
      <point x="1515" y="260" type="line" smooth="yes"/>
      <point x="1515" y="565"/>
      <point x="1377" y="694"/>
      <point x="1039.009" y="694" type="curve" smooth="yes"/>
      <point x="945" y="694" type="line"/>
    </contour>
    <component base="Tail_NonExporting" xOffset="-8"/>
    <component base="KaComponent_Nonexporting" xOffset="83"/>
    <component base="KaBeak_Nonexporting" xOffset="1055"/>
  </outline>
</glyph>
<glyph name="Nnna.tm" format="2">
  <advance width="2442"/>
  <unicode hex="0BA9"/>
  <note>
Nnna.tm
</note>
  <anchor x="1397" y="1239" name="top"/>
  <outline>
    <contour>
      <point x="2040" y="1017" type="line"/>
      <point x="2039.991" y="0" type="line"/>
      <point x="2226" y="0" type="line"/>
      <point x="2226" y="1015" type="line"/>
    </contour>
    <contour>
      <point x="2171" y="1147" type="line"/>
      <point x="1733" y="1147" type="line" smooth="yes"/>
      <point x="1628" y="1147"/>
      <point x="1547" y="1140"/>
      <point x="1481" y="1132" type="curve"/>
      <point x="1440" y="981" type="line"/>
      <point x="1520" y="991"/>
      <point x="1606" y="996"/>
      <point x="1715" y="996" type="curve" smooth="yes"/>
      <point x="2171" y="996" type="line"/>
    </contour>
    <contour>
      <point x="934" y="1180" type="curve" smooth="yes"/>
      <point x="403" y="1180"/>
      <point x="124" y="952"/>
      <point x="124" y="538" type="curve" smooth="yes"/>
      <point x="124" y="395" type="line" smooth="yes"/>
      <point x="124" y="140"/>
      <point x="237" y="-23"/>
      <point x="497" y="-23" type="curve" smooth="yes"/>
      <point x="739" y="-23"/>
      <point x="841" y="117"/>
      <point x="841" y="334" type="curve" smooth="yes"/>
      <point x="841" y="423" type="line" smooth="yes"/>
      <point x="841" y="635"/>
      <point x="752" y="750"/>
      <point x="570" y="750" type="curve" smooth="yes"/>
      <point x="422" y="750"/>
      <point x="331" y="664"/>
      <point x="307" y="559" type="curve"/>
      <point x="292" y="559" type="line"/>
      <point x="297" y="434" type="line"/>
      <point x="318" y="520"/>
      <point x="393" y="592"/>
      <point x="496" y="592" type="curve" smooth="yes"/>
      <point x="611" y="592"/>
      <point x="661" y="527"/>
      <point x="661" y="405" type="curve" smooth="yes"/>
      <point x="661" y="325" type="line" smooth="yes"/>
      <point x="661" y="199"/>
      <point x="610" y="125"/>
      <point x="493" y="125" type="curve" smooth="yes"/>
      <point x="362" y="125"/>
      <point x="306" y="211"/>
      <point x="306" y="356" type="curve"/>
      <point x="306" y="539" type="line"/>
      <point x="300" y="539" type="line"/>
      <point x="300" y="546"/>
      <point x="300" y="553"/>
      <point x="300" y="557" type="curve" smooth="yes"/>
      <point x="304" y="866"/>
      <point x="515" y="1025"/>
      <point x="938" y="1025" type="curve" smooth="yes"/>
      <point x="1144" y="1025"/>
      <point x="1279" y="997"/>
      <point x="1367" y="961" type="curve"/>
      <point x="1378" y="957" type="line"/>
      <point x="1536" y="889"/>
      <point x="1584" y="744"/>
      <point x="1584" y="540" type="curve" smooth="yes"/>
      <point x="1584" y="405" type="line" smooth="yes"/>
      <point x="1584" y="233"/>
      <point x="1535" y="135"/>
      <point x="1407" y="135" type="curve" smooth="yes"/>
      <point x="1276" y="135"/>
      <point x="1222" y="233"/>
      <point x="1222" y="405" type="curve" smooth="yes"/>
      <point x="1222" y="540" type="line" smooth="yes"/>
      <point x="1222" y="743"/>
      <point x="1273" y="889"/>
      <point x="1433" y="957" type="curve"/>
      <point x="1353" y="1056" type="line"/>
      <point x="1121" y="978"/>
      <point x="1037" y="779"/>
      <point x="1037" y="531" type="curve" smooth="yes"/>
      <point x="1037" y="401" type="line" smooth="yes"/>
      <point x="1037" y="144"/>
      <point x="1147" y="-23"/>
      <point x="1407" y="-23" type="curve" smooth="yes"/>
      <point x="1665" y="-23"/>
      <point x="1769" y="142"/>
      <point x="1769" y="401" type="curve" smooth="yes"/>
      <point x="1769" y="531" type="line" smooth="yes"/>
      <point x="1769" y="778"/>
      <point x="1690" y="965"/>
      <point x="1487" y="1059" type="curve"/>
      <point x="1486" y="1066" type="line"/>
      <point x="1373" y="1132"/>
      <point x="1198" y="1180"/>
    </contour>
    <component base="RaBeak_Nonexporting" xOffset="1945"/>
  </outline>
</glyph>
<glyph name="Ya.tm" format="2">
  <advance width="1973"/>
  <unicode hex="0BAF"/>
  <note>
Ya.tm
</note>
  <anchor x="824" y="1239" name="top"/>
  <outline>
    <contour>
      <point x="1616" y="1147" type="line"/>
      <point x="1616" y="158" type="line"/>
      <point x="1245" y="158" type="line"/>
      <point x="1245" y="0" type="line"/>
      <point x="1805" y="0" type="line"/>
      <point x="1805" y="1147" type="line"/>
    </contour>
    <contour>
      <point x="1388" y="0" type="line"/>
      <point x="1388" y="158" type="line"/>
      <point x="919" y="158" type="line"/>
      <point x="919" y="1147" type="line"/>
      <point x="729" y="1147" type="line"/>
      <point x="729" y="418" type="line" smooth="yes"/>
      <point x="729" y="225"/>
      <point x="668" y="138"/>
      <point x="531" y="138" type="curve" smooth="yes"/>
      <point x="415" y="138"/>
      <point x="349" y="209"/>
      <point x="349" y="373" type="curve" smooth="yes"/>
      <point x="349" y="1147" type="line"/>
      <point x="163" y="1147" type="line"/>
      <point x="163" y="370" type="line" smooth="yes"/>
      <point x="163" y="101"/>
      <point x="276" y="-21"/>
      <point x="486" y="-21" type="curve" smooth="yes"/>
      <point x="670" y="-21"/>
      <point x="762" y="72"/>
      <point x="783" y="222" type="curve"/>
      <point x="792" y="222" type="line"/>
      <point x="790" y="0" type="line"/>
    </contour>
  </outline>
</glyph>
<glyph name="Rra.tm" format="2">
  <advance width="1661"/>
  <unicode hex="0BB1"/>
  <note>
Rra.tm
</note>
  <anchor x="832" y="1239" name="top"/>
  <outline>
    <contour>
      <point x="514" y="1171" type="curve" smooth="yes"/>
      <point x="286" y="1171"/>
      <point x="161" y="1045"/>
      <point x="161" y="765" type="curve" smooth="yes"/>
      <point x="161" y="0" type="line"/>
      <point x="347" y="0" type="line"/>
      <point x="347" y="775" type="line" smooth="yes"/>
      <point x="347" y="940"/>
      <point x="417" y="1013"/>
      <point x="537" y="1013" type="curve" smooth="yes"/>
      <point x="668" y="1013"/>
      <point x="722" y="941"/>
      <point x="722" y="775" type="curve"/>
      <point x="722" y="0" type="line"/>
      <point x="908" y="0" type="line"/>
      <point x="908" y="751" type="line" smooth="yes"/>
      <point x="908" y="940"/>
      <point x="993" y="1014"/>
      <point x="1136" y="1014" type="curve" smooth="yes"/>
      <point x="1278" y="1014"/>
      <point x="1337" y="938"/>
      <point x="1337" y="804" type="curve" smooth="yes"/>
      <point x="1337" y="791" type="line" smooth="yes"/>
      <point x="1337" y="663"/>
      <point x="1274" y="587"/>
      <point x="1120" y="583" type="curve" smooth="yes"/>
      <point x="1045" y="581" type="line"/>
      <point x="1045" y="433" type="line"/>
      <point x="1118" y="430" type="line" smooth="yes"/>
      <point x="1278" y="425"/>
      <point x="1355" y="357"/>
      <point x="1355" y="184" type="curve" smooth="yes"/>
      <point x="1355" y="151" type="line" smooth="yes"/>
      <point x="1355" y="-115"/>
      <point x="1255" y="-212"/>
      <point x="905" y="-212" type="curve" smooth="yes"/>
      <point x="404" y="-212" type="line"/>
      <point x="430" y="-368" type="line"/>
      <point x="922" y="-368" type="line" smooth="yes"/>
      <point x="1400" y="-368"/>
      <point x="1542" y="-222"/>
      <point x="1542" y="140" type="curve" smooth="yes"/>
      <point x="1542" y="176" type="line" smooth="yes"/>
      <point x="1542" y="395"/>
      <point x="1446" y="498"/>
      <point x="1272" y="509" type="curve"/>
      <point x="1272" y="515" type="line"/>
      <point x="1437" y="529"/>
      <point x="1515" y="640"/>
      <point x="1515" y="814" type="curve" smooth="yes"/>
      <point x="1515" y="827" type="line" smooth="yes"/>
      <point x="1515" y="1047"/>
      <point x="1408" y="1172"/>
      <point x="1174" y="1172" type="curve" smooth="yes"/>
      <point x="962" y="1172"/>
      <point x="846" y="1071"/>
      <point x="824" y="890" type="curve"/>
      <point x="817" y="890" type="line"/>
      <point x="800" y="1070"/>
      <point x="706" y="1171"/>
    </contour>
    <component base="Tail_NonExporting" xOffset="-40"/>
  </outline>
</glyph>
<glyph name="La.tm" format="2">
  <advance width="1977"/>
  <unicode hex="0BB2"/>
  <note>
La.tm
</note>
  <anchor x="1129" y="1239" name="top"/>
  <outline>
    <contour>
      <point x="708" y="1174" type="curve" smooth="yes"/>
      <point x="323" y="1174"/>
      <point x="129" y="956"/>
      <point x="129" y="564" type="curve" smooth="yes"/>
      <point x="129" y="395" type="line" smooth="yes"/>
      <point x="129" y="140"/>
      <point x="243" y="-23"/>
      <point x="502" y="-23" type="curve" smooth="yes"/>
      <point x="744" y="-23"/>
      <point x="846" y="117"/>
      <point x="846" y="334" type="curve" smooth="yes"/>
      <point x="846" y="423" type="line" smooth="yes"/>
      <point x="846" y="635"/>
      <point x="757" y="750"/>
      <point x="575" y="750" type="curve" smooth="yes"/>
      <point x="427" y="750"/>
      <point x="336" y="664"/>
      <point x="312" y="559" type="curve"/>
      <point x="297" y="559" type="line"/>
      <point x="302" y="434" type="line"/>
      <point x="323" y="520"/>
      <point x="398" y="592"/>
      <point x="501" y="592" type="curve" smooth="yes"/>
      <point x="616" y="592"/>
      <point x="666" y="527"/>
      <point x="666" y="405" type="curve" smooth="yes"/>
      <point x="666" y="325" type="line" smooth="yes"/>
      <point x="666" y="199"/>
      <point x="615" y="125"/>
      <point x="499" y="125" type="curve" smooth="yes"/>
      <point x="368" y="125"/>
      <point x="311" y="211"/>
      <point x="311" y="356" type="curve"/>
      <point x="311" y="559" type="line"/>
      <point x="305" y="559" type="line"/>
      <point x="305" y="566"/>
      <point x="305" y="570"/>
      <point x="305" y="577" type="curve" smooth="yes"/>
      <point x="307" y="864"/>
      <point x="435" y="1014"/>
      <point x="705" y="1014" type="curve" smooth="yes"/>
      <point x="965" y="1014"/>
      <point x="1067" y="870"/>
      <point x="1067" y="590" type="curve" smooth="yes"/>
      <point x="1067" y="421" type="line" smooth="yes"/>
      <point x="1067" y="131"/>
      <point x="1184" y="-23"/>
      <point x="1458" y="-23" type="curve" smooth="yes"/>
      <point x="1733" y="-23"/>
      <point x="1844" y="140"/>
      <point x="1844" y="444" type="curve" smooth="yes"/>
      <point x="1844" y="685" type="line" smooth="yes"/>
      <point x="1844" y="997"/>
      <point x="1746" y="1174"/>
      <point x="1439" y="1174" type="curve" smooth="yes"/>
      <point x="1404" y="1174"/>
      <point x="1368" y="1170"/>
      <point x="1340" y="1164" type="curve"/>
      <point x="1313" y="1005" type="line"/>
      <point x="1339" y="1009"/>
      <point x="1368" y="1013"/>
      <point x="1401" y="1013" type="curve" smooth="yes"/>
      <point x="1597" y="1013"/>
      <point x="1655" y="895"/>
      <point x="1655" y="680" type="curve" smooth="yes"/>
      <point x="1655" y="438" type="line" smooth="yes"/>
      <point x="1655" y="241"/>
      <point x="1601" y="136"/>
      <point x="1458" y="136" type="curve" smooth="yes"/>
      <point x="1313" y="136"/>
      <point x="1254" y="230"/>
      <point x="1254" y="425" type="curve" smooth="yes"/>
      <point x="1254" y="594" type="line" smooth="yes"/>
      <point x="1254" y="970"/>
      <point x="1101" y="1174"/>
    </contour>
  </outline>
</glyph>
<glyph name="Llla.tm" format="2">
  <advance width="1686"/>
  <unicode hex="0BB4"/>
  <note>
Llla.tm
</note>
  <anchor x="834" y="1239" name="top"/>
  <outline>
    <contour>
      <point x="765" y="-652" type="curve" smooth="yes"/>
      <point x="1007" y="-652"/>
      <point x="1088" y="-547"/>
      <point x="1163" y="-377" type="curve" smooth="yes"/>
      <point x="1170" y="-360" type="line" smooth="yes"/>
      <point x="1185" y="-328"/>
      <point x="1196" y="-313"/>
      <point x="1235" y="-313" type="curve" smooth="yes"/>
      <point x="1337" y="-313" type="line"/>
      <point x="1361" y="-169" type="line"/>
      <point x="1144" y="-169" type="line" smooth="yes"/>
      <point x="990" y="-169"/>
      <point x="950" y="-123"/>
      <point x="950" y="-3" type="curve" smooth="yes"/>
      <point x="950" y="84" type="line"/>
      <point x="768" y="84" type="line"/>
      <point x="768" y="-14" type="line" smooth="yes"/>
      <point x="768" y="-194"/>
      <point x="834" y="-272"/>
      <point x="1030" y="-283" type="curve"/>
      <point x="1030" y="-289" type="line"/>
      <point x="1011" y="-292"/>
      <point x="1000" y="-307"/>
      <point x="987" y="-332" type="curve" smooth="yes"/>
      <point x="982" y="-344" type="line" smooth="yes"/>
      <point x="938" y="-439"/>
      <point x="893" y="-506"/>
      <point x="765" y="-506" type="curve" smooth="yes"/>
      <point x="624" y="-506"/>
      <point x="550" y="-432"/>
      <point x="550" y="-284" type="curve" smooth="yes"/>
      <point x="550" y="-243"/>
      <point x="554" y="-203"/>
      <point x="557" y="-172" type="curve"/>
      <point x="377" y="-172" type="line"/>
      <point x="374" y="-201"/>
      <point x="370" y="-238"/>
      <point x="370" y="-280" type="curve" smooth="yes"/>
      <point x="370" y="-518"/>
      <point x="504" y="-652"/>
    </contour>
    <component base="Ma.tm"/>
  </outline>
</glyph>
<glyph name="Va.tm" format="2">
  <advance width="1985"/>
  <unicode hex="0BB5"/>
  <note>
Va.tm
</note>
  <anchor x="1147" y="1239" name="top"/>
  <outline>
    <contour>
      <point x="1631" y="1147" type="line"/>
      <point x="1631" y="153" type="line"/>
      <point x="1265" y="153" type="line"/>
      <point x="1270" y="0" type="line"/>
      <point x="1817" y="0" type="line"/>
      <point x="1817" y="1147" type="line"/>
    </contour>
    <component base="Va_NonExporting" xOffset="17"/>
  </outline>
</glyph>
<glyph name="Sha.tm" format="2">
  <advance width="2147"/>
  <unicode hex="0BB6"/>
  <note>
Sha.tm
</note>
  <anchor x="1078" y="1239" name="top"/>
  <outline>
    <contour>
      <point x="163" y="1147" type="line"/>
      <point x="163" y="392" type="line" smooth="yes"/>
      <point x="163" y="117"/>
      <point x="274" y="-24"/>
      <point x="545" y="-24" type="curve" smooth="yes"/>
      <point x="815" y="-24"/>
      <point x="925" y="116"/>
      <point x="925" y="391" type="curve" smooth="yes"/>
      <point x="925" y="1147" type="line"/>
      <point x="738" y="1147" type="line"/>
      <point x="738" y="388" type="line" smooth="yes"/>
      <point x="738" y="211"/>
      <point x="677" y="135"/>
      <point x="545" y="135" type="curve" smooth="yes"/>
      <point x="413" y="135"/>
      <point x="350" y="211"/>
      <point x="350" y="388" type="curve" smooth="yes"/>
      <point x="350" y="1147" type="line"/>
    </contour>
    <contour>
      <point x="1230" y="1147" type="line"/>
      <point x="1230" y="392" type="line" smooth="yes"/>
      <point x="1230" y="117"/>
      <point x="1340" y="-24"/>
      <point x="1607" y="-24" type="curve" smooth="yes"/>
      <point x="1875" y="-24"/>
      <point x="1984" y="116"/>
      <point x="1984" y="392" type="curve" smooth="yes"/>
      <point x="1984" y="1147" type="line"/>
      <point x="1797" y="1147" type="line"/>
      <point x="1797" y="389" type="line" smooth="yes"/>
      <point x="1797" y="211"/>
      <point x="1737" y="135"/>
      <point x="1607" y="135" type="curve" smooth="yes"/>
      <point x="1479" y="135"/>
      <point x="1417" y="211"/>
      <point x="1417" y="388" type="curve" smooth="yes"/>
      <point x="1417" y="1147" type="line"/>
    </contour>
    <contour>
      <point x="788" y="1147" type="line"/>
      <point x="788" y="994" type="line"/>
      <point x="1912" y="994" type="line"/>
      <point x="1912" y="1147" type="line"/>
    </contour>
  </outline>
</glyph>
<glyph name="Ha.tm" format="2">
  <advance width="3101"/>
  <unicode hex="0BB9"/>
  <note>
Ha.tm
</note>
  <anchor x="1405" y="1239" name="top"/>
  <outline>
    <contour>
      <point x="1357" y="153" type="line"/>
      <point x="1357" y="0" type="line"/>
      <point x="1699" y="0" type="line"/>
      <point x="1699" y="153" type="line"/>
    </contour>
    <contour>
      <point x="1773" y="-212" type="line"/>
      <point x="453" y="-212" type="line"/>
      <point x="479" y="-368" type="line"/>
      <point x="1773" y="-368" type="line"/>
    </contour>
    <component base="Va_NonExporting" xOffset="12.991"/>
    <component base="Rra_Simple.tm" xOffset="1440"/>
    <component base="Tail_NonExporting" xOffset="18"/>
  </outline>
</glyph>
<glyph name="MatraAa.tm" format="2">
  <advance width="1154"/>
  <unicode hex="0BBE"/>
  <note>
RaAltMatraAa.tm
</note>
  <outline>
    <contour>
      <point x="752" y="1098" type="line"/>
      <point x="752" y="0" type="line"/>
      <point x="938" y="0" type="line"/>
      <point x="938" y="1098" type="line"/>
    </contour>
    <contour>
      <point x="901" y="1147" type="line"/>
      <point x="168" y="1147" type="line"/>
      <point x="168" y="0" type="line"/>
      <point x="354" y="0" type="line"/>
      <point x="354" y="994" type="line"/>
      <point x="901" y="994" type="line"/>
    </contour>
    <component base="RaBeak_Nonexporting" xOffset="657"/>
  </outline>
</glyph>
<glyph name="MatraIDflt.tm" format="2">
  <advance width="979"/>
  <unicode hex="0BBF"/>
  <note>
MatraIDflt.tm
</note>
  <outline>
    <contour>
      <point x="406" y="1742" type="curve" smooth="yes"/>
      <point x="138" y="1742"/>
      <point x="0" y="1595"/>
      <point x="0" y="1359" type="curve" smooth="yes"/>
      <point x="0" y="1354" type="line" smooth="yes"/>
      <point x="0" y="1272"/>
      <point x="22" y="1186"/>
      <point x="50" y="1139" type="curve"/>
      <point x="225" y="1139" type="line"/>
      <point x="198" y="1185"/>
      <point x="182" y="1250"/>
      <point x="182" y="1331" type="curve" smooth="yes"/>
      <point x="182" y="1335" type="line" smooth="yes"/>
      <point x="182" y="1501"/>
      <point x="254" y="1585"/>
      <point x="404" y="1585" type="curve" smooth="yes"/>
      <point x="565" y="1585"/>
      <point x="625" y="1496"/>
      <point x="625" y="1297" type="curve" smooth="yes"/>
      <point x="625" y="0" type="line"/>
      <point x="811" y="0" type="line"/>
      <point x="811" y="1291" type="line" smooth="yes"/>
      <point x="811" y="1598"/>
      <point x="693" y="1742"/>
    </contour>
  </outline>
</glyph>
<glyph name="MatraIiDflt.tm" format="2">
  <unicode hex="0BC0"/>
  <note>
MatraIiDflt.tm
</note>
  <outline>
    <contour>
      <point x="452" y="1865" type="curve" smooth="yes"/>
      <point x="135" y="1865"/>
      <point x="-20" y="1715"/>
      <point x="-20" y="1453" type="curve" smooth="yes"/>
      <point x="-20" y="1441" type="line" smooth="yes"/>
      <point x="-20" y="1316"/>
      <point x="25" y="1198"/>
      <point x="74" y="1139" type="curve"/>
      <point x="252" y="1139" type="line"/>
      <point x="195" y="1206"/>
      <point x="153" y="1315"/>
      <point x="153" y="1430" type="curve" smooth="yes"/>
      <point x="153" y="1441" type="line" smooth="yes"/>
      <point x="153" y="1615"/>
      <point x="240" y="1711"/>
      <point x="402" y="1725" type="curve"/>
      <point x="402" y="1719" type="line"/>
      <point x="430" y="1724"/>
      <point x="459" y="1727"/>
      <point x="490" y="1727" type="curve" smooth="yes"/>
      <point x="630" y="1727"/>
      <point x="687" y="1665"/>
      <point x="687" y="1550" type="curve" smooth="yes"/>
      <point x="687" y="1542" type="line" smooth="yes"/>
      <point x="687" y="1451"/>
      <point x="648" y="1404"/>
      <point x="566" y="1404" type="curve" smooth="yes"/>
      <point x="475" y="1404"/>
      <point x="437" y="1458"/>
      <point x="437" y="1552" type="curve" smooth="yes"/>
      <point x="437" y="1570" type="line" smooth="yes"/>
      <point x="437" y="1637"/>
      <point x="449" y="1690"/>
      <point x="477" y="1731" type="curve"/>
      <point x="402" y="1732" type="line"/>
      <point x="402" y="1720" type="line"/>
      <point x="331" y="1691"/>
      <point x="287" y="1626"/>
      <point x="287" y="1532" type="curve" smooth="yes"/>
      <point x="287" y="1522" type="line" smooth="yes"/>
      <point x="287" y="1370"/>
      <point x="374" y="1274"/>
      <point x="567" y="1274" type="curve" smooth="yes"/>
      <point x="755" y="1274"/>
      <point x="845" y="1370"/>
      <point x="845" y="1545" type="curve" smooth="yes"/>
      <point x="845" y="1551" type="line" smooth="yes"/>
      <point x="845" y="1746"/>
      <point x="723" y="1865"/>
    </contour>
  </outline>
</glyph>
<glyph name="MatraE.tm" format="2">
  <advance width="1722"/>
  <unicode hex="0BC6"/>
  <note>
MatraE.tm
</note>
  <outline>
    <contour>
      <point x="858" y="1396" type="curve" smooth="yes"/>
      <point x="389" y="1396"/>
      <point x="132" y="1147"/>
      <point x="132" y="688" type="curve" smooth="yes"/>
      <point x="132" y="571" type="line" smooth="yes"/>
      <point x="132" y="204"/>
      <point x="316" y="-21"/>
      <point x="718" y="-21" type="curve" smooth="yes"/>
      <point x="1039" y="-21"/>
      <point x="1165" y="135"/>
      <point x="1165" y="381" type="curve" smooth="yes"/>
      <point x="1165" y="416" type="line" smooth="yes"/>
      <point x="1165" y="653"/>
      <point x="1055" y="781"/>
      <point x="833" y="781" type="curve" smooth="yes"/>
      <point x="605" y="781"/>
      <point x="482" y="661"/>
      <point x="482" y="446" type="curve"/>
      <point x="482" y="413" type="line" smooth="yes"/>
      <point x="482" y="282"/>
      <point x="536" y="184"/>
      <point x="630" y="133" type="curve"/>
      <point x="630" y="124" type="line"/>
      <point x="725" y="117" type="line"/>
      <point x="685" y="182"/>
      <point x="661" y="270"/>
      <point x="661" y="367" type="curve" smooth="yes"/>
      <point x="661" y="413" type="line" smooth="yes"/>
      <point x="661" y="554"/>
      <point x="717" y="625"/>
      <point x="828" y="625" type="curve" smooth="yes"/>
      <point x="944" y="625"/>
      <point x="985" y="551"/>
      <point x="985" y="416" type="curve" smooth="yes"/>
      <point x="985" y="379" type="line" smooth="yes"/>
      <point x="985" y="221"/>
      <point x="929" y="124"/>
      <point x="747" y="124" type="curve" smooth="yes"/>
      <point x="719" y="124"/>
      <point x="689" y="126"/>
      <point x="654" y="130" type="curve"/>
      <point x="630" y="131" type="line"/>
      <point x="630" y="127" type="line"/>
      <point x="410" y="164"/>
      <point x="316" y="317"/>
      <point x="316" y="563" type="curve" smooth="yes"/>
      <point x="316" y="687" type="line"/>
      <point x="316" y="1043"/>
      <point x="501" y="1235"/>
      <point x="856" y="1235" type="curve" smooth="yes"/>
      <point x="1240" y="1235"/>
      <point x="1381" y="1038"/>
      <point x="1381" y="651" type="curve"/>
      <point x="1381" y="0" type="line"/>
      <point x="1566" y="-1" type="line"/>
      <point x="1566" y="658" type="line"/>
      <point x="1566" y="1136"/>
      <point x="1368" y="1396"/>
    </contour>
  </outline>
</glyph>
<glyph name="PulliDflt.tm" format="2">
  <unicode hex="0BCD"/>
  <note>
PulliDflt.tm
</note>
  <anchor x="119" y="1240" name="_top"/>
  <outline>
    <contour>
      <point x="119" y="1311" type="curve" smooth="yes"/>
      <point x="203" y="1311"/>
      <point x="239" y="1356"/>
      <point x="239" y="1435" type="curve" smooth="yes"/>
      <point x="239" y="1453" type="line" smooth="yes"/>
      <point x="239" y="1531"/>
      <point x="201" y="1574"/>
      <point x="119" y="1574" type="curve" smooth="yes"/>
      <point x="38" y="1574"/>
      <point x="-1" y="1531"/>
      <point x="-1" y="1453" type="curve" smooth="yes"/>
      <point x="-1" y="1435" type="line" smooth="yes"/>
      <point x="-1" y="1356"/>
      <point x="36" y="1311"/>
    </contour>
  </outline>
</glyph>
<glyph name="Om.tm" format="2">
  <advance width="2162"/>
  <unicode hex="0BD0"/>
  <note>
Om.tm
</note>
  <outline>
    <contour>
      <point x="1078" y="1314" type="curve" smooth="yes"/>
      <point x="451" y="1314"/>
      <point x="106" y="1052"/>
      <point x="106" y="587" type="curve" smooth="yes"/>
      <point x="106" y="499" type="line" smooth="yes"/>
      <point x="106" y="255"/>
      <point x="218" y="100"/>
      <point x="474" y="100" type="curve" smooth="yes"/>
      <point x="710" y="100"/>
      <point x="806" y="231"/>
      <point x="806" y="435" type="curve" smooth="yes"/>
      <point x="806" y="511" type="line" smooth="yes"/>
      <point x="806" y="713"/>
      <point x="719" y="820"/>
      <point x="542" y="820" type="curve" smooth="yes"/>
      <point x="397" y="820"/>
      <point x="311" y="741"/>
      <point x="285" y="642" type="curve"/>
      <point x="271" y="642" type="line"/>
      <point x="275" y="517" type="line"/>
      <point x="296" y="605"/>
      <point x="373" y="669"/>
      <point x="472" y="669" type="curve" smooth="yes"/>
      <point x="583" y="669"/>
      <point x="632" y="607"/>
      <point x="632" y="490" type="curve" smooth="yes"/>
      <point x="632" y="429" type="line" smooth="yes"/>
      <point x="632" y="309"/>
      <point x="583" y="239"/>
      <point x="469" y="239" type="curve" smooth="yes"/>
      <point x="342" y="239"/>
      <point x="284" y="320"/>
      <point x="284.009" y="458.991" type="curve"/>
      <point x="284" y="632" type="line"/>
      <point x="278" y="632" type="line"/>
      <point x="282" y="969"/>
      <point x="563" y="1160"/>
      <point x="1078" y="1160" type="curve" smooth="yes"/>
      <point x="1639" y="1160"/>
      <point x="1850" y="946"/>
      <point x="1850" y="584" type="curve" smooth="yes"/>
      <point x="1850" y="516" type="line" smooth="yes"/>
      <point x="1850" y="366"/>
      <point x="1804" y="291"/>
      <point x="1687" y="291" type="curve" smooth="yes"/>
      <point x="1564" y="291"/>
      <point x="1514" y="369"/>
      <point x="1514" y="521" type="curve" smooth="yes"/>
      <point x="1514" y="613"/>
      <point x="1517" y="690"/>
      <point x="1526" y="782" type="curve"/>
      <point x="1360" y="782" type="line"/>
      <point x="1353" y="701"/>
      <point x="1346" y="616"/>
      <point x="1346" y="525" type="curve" smooth="yes"/>
      <point x="1346" y="298"/>
      <point x="1438" y="172"/>
      <point x="1684" y="172" type="curve" smooth="yes"/>
      <point x="1743" y="172"/>
      <point x="1795" y="184"/>
      <point x="1839" y="205" type="curve"/>
      <point x="1972" y="244"/>
      <point x="2028" y="360"/>
      <point x="2028" y="551" type="curve" smooth="yes"/>
      <point x="2028" y="594" type="line" smooth="yes"/>
      <point x="2028" y="1030"/>
      <point x="1750" y="1314"/>
    </contour>
    <contour>
      <point x="2060" y="254" type="line"/>
      <point x="1791" y="253" type="line"/>
      <point x="1725" y="178" type="line"/>
      <point x="1725" y="167" type="line"/>
      <point x="1633" y="149"/>
      <point x="1593" y="101"/>
      <point x="1585" y="-17" type="curve" smooth="yes"/>
      <point x="1582" y="-62" type="line" smooth="yes"/>
      <point x="1562" y="-362"/>
      <point x="1428" y="-493"/>
      <point x="1095" y="-493" type="curve" smooth="yes"/>
      <point x="743" y="-493"/>
      <point x="578" y="-340"/>
      <point x="578" y="-4" type="curve" smooth="yes"/>
      <point x="578" y="47"/>
      <point x="580" y="98"/>
      <point x="585" y="142" type="curve"/>
      <point x="413" y="142" type="line"/>
      <point x="407" y="101"/>
      <point x="405" y="52"/>
      <point x="405" y="-5" type="curve" smooth="yes"/>
      <point x="405" y="-414"/>
      <point x="638" y="-639"/>
      <point x="1098" y="-639" type="curve" smooth="yes"/>
      <point x="1545" y="-639"/>
      <point x="1727" y="-445"/>
      <point x="1755" y="-65" type="curve" smooth="yes"/>
      <point x="1758" y="-25" type="line" smooth="yes"/>
      <point x="1765" y="62"/>
      <point x="1784" y="107"/>
      <point x="1876" y="107" type="curve" smooth="yes"/>
      <point x="2041" y="107" type="line"/>
    </contour>
    <contour>
      <point x="812" y="125" type="line"/>
      <point x="812" y="-301" type="line"/>
      <point x="1180" y="-301" type="line" smooth="yes"/>
      <point x="1373" y="-301"/>
      <point x="1438" y="-234"/>
      <point x="1438" y="-60" type="curve" smooth="yes"/>
      <point x="1438" y="5" type="line" smooth="yes"/>
      <point x="1438" y="153"/>
      <point x="1373" y="222"/>
      <point x="1196" y="222" type="curve" smooth="yes"/>
      <point x="1067" y="222" type="line"/>
      <point x="1067" y="-281" type="line"/>
      <point x="1166" y="-281" type="line"/>
      <point x="1166" y="136" type="line"/>
      <point x="1201" y="136" type="line" smooth="yes"/>
      <point x="1306" y="136"/>
      <point x="1338" y="96"/>
      <point x="1338" y="10" type="curve" smooth="yes"/>
      <point x="1338" y="-65" type="line" smooth="yes"/>
      <point x="1338" y="-176"/>
      <point x="1308" y="-216"/>
      <point x="1186" y="-216" type="curve" smooth="yes"/>
      <point x="916" y="-216" type="line"/>
      <point x="916" y="125" type="line"/>
    </contour>
    <contour>
      <point x="1093" y="311" type="curve" smooth="yes"/>
      <point x="1147" y="311"/>
      <point x="1170" y="342"/>
      <point x="1170" y="398" type="curve" smooth="yes"/>
      <point x="1170" y="408" type="line" smooth="yes"/>
      <point x="1170" y="465"/>
      <point x="1146" y="493"/>
      <point x="1093" y="493" type="curve" smooth="yes"/>
      <point x="1039" y="493"/>
      <point x="1014" y="465"/>
      <point x="1014" y="408" type="curve" smooth="yes"/>
      <point x="1014" y="398" type="line" smooth="yes"/>
      <point x="1014" y="342"/>
      <point x="1037" y="311"/>
    </contour>
    <contour>
      <point x="916" y="119" type="line"/>
      <point x="916" y="132" type="line" smooth="yes"/>
      <point x="916" y="261"/>
      <point x="871" y="318"/>
      <point x="770" y="332" type="curve"/>
      <point x="741" y="229" type="line"/>
      <point x="793" y="224"/>
      <point x="812" y="197"/>
      <point x="812" y="119" type="curve"/>
    </contour>
  </outline>
</glyph>
<glyph name="Zero.tm" format="2">
  <advance width="1203"/>
  <unicode hex="0BE6"/>
  <note>
Zero.tm
</note>
  <outline>
    <contour>
      <point x="604" y="1034" type="curve" smooth="yes"/>
      <point x="807" y="1034"/>
      <point x="892" y="912"/>
      <point x="892" y="689" type="curve" smooth="yes"/>
      <point x="892" y="479" type="line" smooth="yes"/>
      <point x="892" y="257"/>
      <point x="807" y="136"/>
      <point x="604" y="136" type="curve" smooth="yes"/>
      <point x="398" y="136"/>
      <point x="311" y="257"/>
      <point x="311" y="479" type="curve" smooth="yes"/>
      <point x="311" y="689" type="line" smooth="yes"/>
      <point x="311" y="912"/>
      <point x="399" y="1034"/>
    </contour>
    <contour>
      <point x="605" y="1193" type="curve" smooth="yes"/>
      <point x="272" y="1193"/>
      <point x="126" y="1012"/>
      <point x="126" y="683" type="curve" smooth="yes"/>
      <point x="126" y="485" type="line" smooth="yes"/>
      <point x="126" y="159"/>
      <point x="271" y="-24"/>
      <point x="605" y="-24" type="curve" smooth="yes"/>
      <point x="935" y="-24"/>
      <point x="1077" y="159"/>
      <point x="1077" y="485" type="curve" smooth="yes"/>
      <point x="1077" y="683" type="line" smooth="yes"/>
      <point x="1077" y="1012"/>
      <point x="934" y="1193"/>
    </contour>
  </outline>
</glyph>
<glyph name="Two.tm" format="2">
  <advance width="1712"/>
  <unicode hex="0BE8"/>
  <note>
Two.tm
</note>
  <outline>
    <contour>
      <point x="462" y="336" type="curve"/>
      <point x="593" y="389" type="line"/>
      <point x="406" y="421"/>
      <point x="323" y="514"/>
      <point x="323" y="672" type="curve" smooth="yes"/>
      <point x="323" y="758" type="line" smooth="yes"/>
      <point x="323" y="945"/>
      <point x="420" y="1047"/>
      <point x="635" y="1047" type="curve" smooth="yes"/>
      <point x="854" y="1047"/>
      <point x="942" y="945"/>
      <point x="942" y="766" type="curve" smooth="yes"/>
      <point x="942" y="717" type="line" smooth="yes"/>
      <point x="942" y="527"/>
      <point x="873" y="436"/>
      <point x="626" y="417" type="curve" smooth="yes"/>
      <point x="323" y="394" type="line" smooth="yes"/>
      <point x="188" y="384"/>
      <point x="125" y="323"/>
      <point x="125" y="214" type="curve" smooth="yes"/>
      <point x="125" y="145"/>
      <point x="145" y="66"/>
      <point x="171" y="0" type="curve"/>
      <point x="1685" y="0" type="line"/>
      <point x="1708" y="139" type="line"/>
      <point x="296" y="139" type="line"/>
      <point x="290" y="158"/>
      <point x="286" y="178"/>
      <point x="286" y="199" type="curve" smooth="yes"/>
      <point x="286" y="247"/>
      <point x="311" y="274"/>
      <point x="373" y="277" type="curve" smooth="yes"/>
      <point x="643" y="292" type="line" smooth="yes"/>
      <point x="1010" y="312"/>
      <point x="1121" y="449"/>
      <point x="1121" y="718" type="curve" smooth="yes"/>
      <point x="1121" y="762" type="line" smooth="yes"/>
      <point x="1121" y="1038"/>
      <point x="974" y="1196"/>
      <point x="636" y="1196" type="curve" smooth="yes"/>
      <point x="309" y="1196"/>
      <point x="143" y="1042"/>
      <point x="143" y="767" type="curve" smooth="yes"/>
      <point x="143" y="689" type="line" smooth="yes"/>
      <point x="143" y="494"/>
      <point x="234" y="376"/>
    </contour>
  </outline>
</glyph>
<glyph name="Four.tm" format="2">
  <advance width="1628"/>
  <unicode hex="0BEA"/>
  <note>
Four.tm
</note>
  <outline>
    <contour>
      <point x="963" y="554" type="line"/>
      <point x="1476" y="554" type="line"/>
      <point x="1474" y="704" type="line"/>
      <point x="963" y="704" type="line"/>
    </contour>
    <contour>
      <point x="1370" y="1146" type="line"/>
      <point x="1370" y="554" type="line"/>
      <point x="1541" y="554" type="line"/>
      <point x="1541" y="1146" type="line"/>
    </contour>
    <component base="KaComponent_Nonexporting" xOffset="74"/>
    <component base="KaBeak_Nonexporting" xOffset="967"/>
  </outline>
</glyph>
<glyph name="Five.tm" format="2">
  <advance width="2161"/>
  <unicode hex="0BEB"/>
  <note>
Five.tm
</note>
  <outline>
    <contour>
      <point x="1293" y="1098" type="line"/>
      <point x="1293" y="0" type="line"/>
      <point x="1478" y="0" type="line"/>
      <point x="1478" y="1098" type="line"/>
    </contour>
    <contour>
      <point x="1753" y="760" type="curve" smooth="yes"/>
      <point x="1601" y="760"/>
      <point x="1511" y="671"/>
      <point x="1486" y="552" type="curve"/>
      <point x="1454" y="552" type="line"/>
      <point x="1454" y="399" type="line"/>
      <point x="1468" y="399" type="line"/>
      <point x="1494" y="521"/>
      <point x="1569" y="593"/>
      <point x="1679" y="593" type="curve" smooth="yes"/>
      <point x="1814" y="593"/>
      <point x="1864" y="505"/>
      <point x="1864" y="333" type="curve" smooth="yes"/>
      <point x="1864" y="281" type="line" smooth="yes"/>
      <point x="1864" y="-129"/>
      <point x="1652" y="-339"/>
      <point x="1166" y="-339" type="curve" smooth="yes"/>
      <point x="1158" y="-339" type="line" smooth="yes"/>
      <point x="586" y="-339"/>
      <point x="320" y="-78"/>
      <point x="320" y="462" type="curve" smooth="yes"/>
      <point x="320" y="665" type="line" smooth="yes"/>
      <point x="320" y="1242"/>
      <point x="607" y="1511"/>
      <point x="1238" y="1511" type="curve" smooth="yes"/>
      <point x="1535" y="1511"/>
      <point x="1760" y="1457"/>
      <point x="1947" y="1368" type="curve"/>
      <point x="1919" y="1543" type="line"/>
      <point x="1745" y="1623"/>
      <point x="1514" y="1672"/>
      <point x="1235" y="1672" type="curve" smooth="yes"/>
      <point x="496" y="1672"/>
      <point x="132" y="1336"/>
      <point x="132" y="660" type="curve" smooth="yes"/>
      <point x="132" y="468" type="line" smooth="yes"/>
      <point x="132" y="-183"/>
      <point x="480" y="-501"/>
      <point x="1159" y="-501" type="curve" smooth="yes"/>
      <point x="1166" y="-501" type="line" smooth="yes"/>
      <point x="1770" y="-501"/>
      <point x="2052" y="-229"/>
      <point x="2052" y="285" type="curve" smooth="yes"/>
      <point x="2052" y="349" type="line" smooth="yes"/>
      <point x="2052" y="619"/>
      <point x="1964" y="760"/>
    </contour>
    <contour>
      <point x="1591" y="1147" type="line"/>
      <point x="722" y="1147" type="line"/>
      <point x="722" y="0" type="line"/>
      <point x="908" y="0" type="line"/>
      <point x="908" y="994" type="line"/>
      <point x="1591" y="994" type="line"/>
    </contour>
    <component base="RaBeak_Nonexporting" xOffset="1370"/>
  </outline>
</glyph>
<glyph name="Six.tm" format="2">
  <advance width="2201"/>
  <unicode hex="0BEC"/>
  <note>
Six.tm
</note>
  <outline>
    <contour>
      <point x="950" y="554" type="line"/>
      <point x="1080" y="554" type="line" smooth="yes"/>
      <point x="1236" y="554"/>
      <point x="1285" y="498"/>
      <point x="1285" y="332" type="curve" smooth="yes"/>
      <point x="1285" y="0" type="line"/>
      <point x="1469" y="0" type="line"/>
      <point x="1469" y="332" type="line" smooth="yes"/>
      <point x="1469" y="498"/>
      <point x="1517" y="554"/>
      <point x="1669" y="554" type="curve" smooth="yes"/>
      <point x="2171" y="554" type="line"/>
      <point x="2153" y="704" type="line"/>
      <point x="1654" y="704" type="line" smooth="yes"/>
      <point x="1466" y="704"/>
      <point x="1395" y="633"/>
      <point x="1380" y="472" type="curve"/>
      <point x="1373" y="472" type="line"/>
      <point x="1359" y="633"/>
      <point x="1288" y="704"/>
      <point x="1094" y="704" type="curve" smooth="yes"/>
      <point x="950" y="704" type="line"/>
    </contour>
    <contour>
      <point x="1777" y="597" type="line"/>
      <point x="1777" y="0" type="line"/>
      <point x="1961" y="0" type="line"/>
      <point x="1961" y="597" type="line"/>
    </contour>
    <component base="KaComponent_Nonexporting" xOffset="74"/>
    <component base="KaBeak_Nonexporting" xOffset="1045"/>
  </outline>
</glyph>
<glyph name="Eight.tm" format="2">
  <advance width="1999"/>
  <unicode hex="0BEE"/>
  <note>
Eight.tm
</note>
  <outline>
    <contour>
      <point x="1645" y="1146" type="line"/>
      <point x="1645" y="-60" type="line"/>
      <point x="1831" y="-60" type="line"/>
      <point x="1831" y="1146" type="line"/>
    </contour>
    <contour>
      <point x="903" y="1192" type="curve" smooth="yes"/>
      <point x="569" y="1192"/>
      <point x="415" y="1000"/>
      <point x="413" y="673" type="curve" smooth="yes"/>
      <point x="413" y="642"/>
      <point x="413" y="611"/>
      <point x="413" y="578" type="curve"/>
      <point x="589" y="579" type="line"/>
      <point x="588" y="613"/>
      <point x="588" y="644"/>
      <point x="588" y="677" type="curve" smooth="yes"/>
      <point x="590" y="914"/>
      <point x="683" y="1046"/>
      <point x="903" y="1046" type="curve" smooth="yes"/>
      <point x="1134" y="1046"/>
      <point x="1212.991" y="911.009"/>
      <point x="1213" y="671" type="curve" smooth="yes"/>
      <point x="1213" y="520" type="line" smooth="yes"/>
      <point x="1213" y="206"/>
      <point x="1078" y="55"/>
      <point x="751" y="55" type="curve" smooth="yes"/>
      <point x="748" y="55" type="line" smooth="yes"/>
      <point x="435" y="55"/>
      <point x="251" y="196"/>
      <point x="251" y="452" type="curve" smooth="yes"/>
      <point x="251" y="477" type="line" smooth="yes"/>
      <point x="251" y="487"/>
      <point x="251" y="495"/>
      <point x="251" y="506" type="curve"/>
      <point x="1700" y="506" type="line"/>
      <point x="1696" y="649" type="line"/>
      <point x="76" y="649" type="line"/>
      <point x="74" y="616"/>
      <point x="73" y="584"/>
      <point x="73" y="549" type="curve" smooth="yes"/>
      <point x="73" y="511" type="line" smooth="yes"/>
      <point x="73" y="114"/>
      <point x="319" y="-93"/>
      <point x="749" y="-93" type="curve" smooth="yes"/>
      <point x="753" y="-93" type="line" smooth="yes"/>
      <point x="1207" y="-93"/>
      <point x="1392" y="121"/>
      <point x="1392" y="523" type="curve" smooth="yes"/>
      <point x="1392" y="666" type="line" smooth="yes"/>
      <point x="1392" y="998"/>
      <point x="1255" y="1192"/>
    </contour>
  </outline>
</glyph>
<glyph name="Nine.tm" format="2">
  <advance width="2110"/>
  <unicode hex="0BEF"/>
  <note>
Nine.tm
</note>
  <outline>
    <contour>
      <point x="916" y="544" type="line"/>
      <point x="1069" y="544" type="line" smooth="yes"/>
      <point x="1232" y="544"/>
      <point x="1285" y="485"/>
      <point x="1285" y="314" type="curve" smooth="yes"/>
      <point x="1285" y="0" type="line"/>
      <point x="1469" y="0" type="line"/>
      <point x="1469" y="379" type="line" smooth="yes"/>
      <point x="1469" y="553"/>
      <point x="1544" y="632"/>
      <point x="1665" y="632" type="curve" smooth="yes"/>
      <point x="1787" y="632"/>
      <point x="1838" y="555"/>
      <point x="1838" y="417" type="curve" smooth="yes"/>
      <point x="1838" y="336" type="line" smooth="yes"/>
      <point x="1838" y="195"/>
      <point x="1811" y="89"/>
      <point x="1761" y="0" type="curve"/>
      <point x="1946" y="0" type="line"/>
      <point x="1989" y="85"/>
      <point x="2020" y="203"/>
      <point x="2020" y="377" type="curve" smooth="yes"/>
      <point x="2020" y="452" type="line" smooth="yes"/>
      <point x="2020" y="669"/>
      <point x="1926" y="789"/>
      <point x="1706" y="789" type="curve" smooth="yes"/>
      <point x="1500" y="789"/>
      <point x="1383" y="667"/>
      <point x="1383" y="466" type="curve" smooth="yes"/>
      <point x="1383" y="455" type="line"/>
      <point x="1375" y="455" type="line"/>
      <point x="1359" y="621"/>
      <point x="1285" y="694"/>
      <point x="1084" y="694" type="curve" smooth="yes"/>
      <point x="916" y="694" type="line"/>
    </contour>
    <component base="KaComponent_Nonexporting" xOffset="74"/>
    <component base="KaBeak_Nonexporting" xOffset="1044"/>
  </outline>
</glyph>
<glyph name="Hundred.tm" format="2">
  <advance width="1691"/>
  <unicode hex="0BF1"/>
  <note>
Hundred.tm
</note>
  <outline>
    <contour>
      <point x="1289" y="1098" type="line"/>
      <point x="1289" y="0" type="line"/>
      <point x="1475" y="0" type="line"/>
      <point x="1475" y="1098" type="line"/>
    </contour>
    <contour>
      <point x="1407" y="1147" type="line"/>
      <point x="766" y="1147" type="line"/>
      <point x="768" y="943" type="line"/>
      <point x="758" y="943" type="line"/>
      <point x="739" y="1085"/>
      <point x="658" y="1171"/>
      <point x="490" y="1171" type="curve" smooth="yes"/>
      <point x="278" y="1171"/>
      <point x="161" y="1051"/>
      <point x="161" y="783" type="curve" smooth="yes"/>
      <point x="161" y="0" type="line"/>
      <point x="347" y="0" type="line"/>
      <point x="347" y="786" type="line" smooth="yes"/>
      <point x="347" y="944"/>
      <point x="413" y="1014"/>
      <point x="529" y="1014" type="curve" smooth="yes"/>
      <point x="653" y="1014"/>
      <point x="705" y="939"/>
      <point x="705" y="768" type="curve" smooth="yes"/>
      <point x="705" y="0" type="line"/>
      <point x="891" y="0" type="line"/>
      <point x="891" y="994" type="line"/>
      <point x="1407" y="994" type="line"/>
    </contour>
    <component base="RaBeak_Nonexporting" xOffset="1193.991"/>
  </outline>
</glyph>
<glyph name="Thousand.tm" format="2">
  <advance width="2237"/>
  <unicode hex="0BF2"/>
  <note>
Thousand.tm
</note>
  <outline>
    <contour>
      <point x="950" y="554" type="line"/>
      <point x="2036" y="554" type="line"/>
      <point x="2017" y="704" type="line"/>
      <point x="950" y="704" type="line"/>
    </contour>
    <contour>
      <point x="1625" y="638" type="line"/>
      <point x="1625" y="302" type="line"/>
      <point x="1620" y="284" type="line"/>
      <point x="1620" y="63" type="line" smooth="yes"/>
      <point x="1620" y="-66"/>
      <point x="1569" y="-125"/>
      <point x="1450" y="-125" type="curve" smooth="yes"/>
      <point x="1334" y="-125"/>
      <point x="1271" y="-67"/>
      <point x="1271" y="40" type="curve" smooth="yes"/>
      <point x="1271" y="88" type="line" smooth="yes"/>
      <point x="1271" y="180"/>
      <point x="1308" y="216"/>
      <point x="1396" y="216" type="curve" smooth="yes"/>
      <point x="1693" y="216" type="line"/>
      <point x="1719" y="213" type="line"/>
      <point x="1784" y="213" type="line" smooth="yes"/>
      <point x="1958" y="213"/>
      <point x="2023" y="152"/>
      <point x="2023" y="-21" type="curve" smooth="yes"/>
      <point x="2023" y="-72" type="line" smooth="yes"/>
      <point x="2023" y="-326"/>
      <point x="1928" y="-416"/>
      <point x="1647" y="-416" type="curve" smooth="yes"/>
      <point x="1367" y="-416" type="line"/>
      <point x="1390" y="-554" type="line"/>
      <point x="1657" y="-554" type="line" smooth="yes"/>
      <point x="2047" y="-554"/>
      <point x="2187" y="-424"/>
      <point x="2187" y="-71" type="curve" smooth="yes"/>
      <point x="2187" y="-15" type="line" smooth="yes"/>
      <point x="2187" y="240"/>
      <point x="2073" y="345"/>
      <point x="1797" y="345" type="curve" smooth="yes"/>
      <point x="1719" y="345" type="line"/>
      <point x="1693" y="342" type="line"/>
      <point x="1374" y="342" type="line" smooth="yes"/>
      <point x="1190" y="342"/>
      <point x="1113" y="266"/>
      <point x="1113" y="91" type="curve" smooth="yes"/>
      <point x="1113" y="40" type="line" smooth="yes"/>
      <point x="1113" y="-153"/>
      <point x="1230" y="-259"/>
      <point x="1451" y="-259" type="curve" smooth="yes"/>
      <point x="1680" y="-259"/>
      <point x="1776" y="-156"/>
      <point x="1776" y="64" type="curve" smooth="yes"/>
      <point x="1776" y="284" type="line"/>
      <point x="1776" y="302" type="line"/>
      <point x="1776" y="638" type="line"/>
    </contour>
    <contour>
      <point x="1501" y="-416" type="line"/>
      <point x="1336" y="-416" type="line"/>
      <point x="1153" y="-416"/>
      <point x="1078" y="-436"/>
      <point x="1005" y="-473" type="curve"/>
      <point x="988" y="-635" type="line"/>
      <point x="1082" y="-585"/>
      <point x="1168" y="-554"/>
      <point x="1341" y="-554" type="curve" smooth="yes"/>
      <point x="1501" y="-554" type="line"/>
    </contour>
    <component base="KaComponent_Nonexporting" xOffset="74"/>
    <component base="KaBeak_Nonexporting" xOffset="1013"/>
  </outline>
</glyph>
<glyph name="MonthSign.tm" format="2">
  <advance width="1686"/>
  <unicode hex="0BF4"/>
  <note>
MonthSign.tm
</note>
  <anchor x="853" y="1239" name="top"/>
  <outline>
    <contour>
      <point x="1790" y="1927" type="curve" smooth="yes"/>
      <point x="1581" y="1927"/>
      <point x="1472" y="1808"/>
      <point x="1472" y="1595" type="curve" smooth="yes"/>
      <point x="1472" y="1562" type="line"/>
      <point x="1465" y="1562" type="line"/>
      <point x="1445" y="1688"/>
      <point x="1366" y="1759"/>
      <point x="1224" y="1759" type="curve" smooth="yes"/>
      <point x="1041" y="1759"/>
      <point x="938" y="1640"/>
      <point x="938" y="1430" type="curve"/>
      <point x="938" y="1390" type="line" smooth="yes"/>
      <point x="938" y="1267"/>
      <point x="973" y="1178"/>
      <point x="1021" y="1129" type="curve"/>
      <point x="1202" y="1122" type="line"/>
      <point x="1149" y="1173"/>
      <point x="1115" y="1249"/>
      <point x="1115" y="1355" type="curve" smooth="yes"/>
      <point x="1115" y="1412" type="line"/>
      <point x="1115" y="1532"/>
      <point x="1160" y="1600"/>
      <point x="1257" y="1600" type="curve" smooth="yes"/>
      <point x="1353" y="1600"/>
      <point x="1396" y="1539"/>
      <point x="1396" y="1403" type="curve" smooth="yes"/>
      <point x="1396" y="1329" type="line"/>
      <point x="1576" y="1329" type="line"/>
      <point x="1576" y="1549" type="line" smooth="yes"/>
      <point x="1576" y="1702"/>
      <point x="1640" y="1769"/>
      <point x="1751" y="1769" type="curve" smooth="yes"/>
      <point x="1858" y="1769"/>
      <point x="1902" y="1700"/>
      <point x="1902" y="1584" type="curve" smooth="yes"/>
      <point x="1902" y="1561" type="line" smooth="yes"/>
      <point x="1902" y="1419"/>
      <point x="1872" y="1341"/>
      <point x="1801" y="1262" type="curve"/>
      <point x="1801" y="1247" type="line"/>
      <point x="2375" y="1247" type="line"/>
      <point x="2393" y="1393" type="line"/>
      <point x="1964" y="1393" type="line"/>
      <point x="1996" y="1331" type="line"/>
      <point x="2052" y="1405"/>
      <point x="2082" y="1477"/>
      <point x="2082" y="1612" type="curve" smooth="yes"/>
      <point x="2082" y="1633" type="line" smooth="yes"/>
      <point x="2082" y="1819"/>
      <point x="1991" y="1927"/>
    </contour>
    <component base="Ma.tm"/>
  </outline>
</glyph>
<glyph name="YearSign.tm" format="2">
  <advance width="4683"/>
  <unicode hex="0BF5"/>
  <note>
YearSign.tm
</note>
  <outline>
    <contour>
      <point x="2741" y="1098" type="line"/>
      <point x="2741" y="0" type="line"/>
      <point x="2927" y="0" type="line"/>
      <point x="2927" y="1098" type="line"/>
    </contour>
    <contour>
      <point x="1921" y="0" type="line"/>
      <point x="2252" y="0" type="line"/>
      <point x="2252" y="153" type="line"/>
      <point x="1917" y="153" type="line"/>
    </contour>
    <contour>
      <point x="1870" y="1716" type="line" smooth="yes"/>
      <point x="659" y="1716"/>
      <point x="135" y="1359"/>
      <point x="135" y="607" type="curve" smooth="yes"/>
      <point x="135" y="498" type="line" smooth="yes"/>
      <point x="135" y="-254"/>
      <point x="645" y="-605"/>
      <point x="1837" y="-605" type="curve" smooth="yes"/>
      <point x="2035" y="-605" type="line" smooth="yes"/>
      <point x="3066" y="-605"/>
      <point x="3502" y="-304"/>
      <point x="3502" y="288" type="curve" smooth="yes"/>
      <point x="3502" y="349" type="line" smooth="yes"/>
      <point x="3502" y="619"/>
      <point x="3414" y="760"/>
      <point x="3201" y="760" type="curve" smooth="yes"/>
      <point x="3049" y="760"/>
      <point x="2959" y="671"/>
      <point x="2934" y="552" type="curve"/>
      <point x="2902" y="552" type="line"/>
      <point x="2902" y="399" type="line"/>
      <point x="2916" y="399" type="line"/>
      <point x="2942" y="521"/>
      <point x="3017" y="593"/>
      <point x="3128" y="593" type="curve" smooth="yes"/>
      <point x="3263" y="593"/>
      <point x="3313" y="505"/>
      <point x="3313" y="333" type="curve" smooth="yes"/>
      <point x="3313" y="286" type="line" smooth="yes"/>
      <point x="3313" y="-202"/>
      <point x="2949" y="-444"/>
      <point x="2039" y="-444" type="curve" smooth="yes"/>
      <point x="1832" y="-444" type="line" smooth="yes"/>
      <point x="753" y="-444"/>
      <point x="324" y="-152"/>
      <point x="324" y="501" type="curve" smooth="yes"/>
      <point x="324" y="604" type="line" smooth="yes"/>
      <point x="324" y="1257"/>
      <point x="766" y="1555"/>
      <point x="1865" y="1555" type="curve" smooth="yes"/>
      <point x="2169" y="1555" type="line" smooth="yes"/>
      <point x="3300" y="1555"/>
      <point x="3759" y="1251"/>
      <point x="3771" y="574" type="curve" smooth="yes"/>
      <point x="3774" y="407" type="line" smooth="yes"/>
      <point x="3779" y="125"/>
      <point x="3895" y="-23"/>
      <point x="4166" y="-23" type="curve" smooth="yes"/>
      <point x="4440" y="-23"/>
      <point x="4550" y="137"/>
      <point x="4550" y="436" type="curve" smooth="yes"/>
      <point x="4550" y="697" type="line" smooth="yes"/>
      <point x="4550" y="1001"/>
      <point x="4452" y="1174"/>
      <point x="4148" y="1174" type="curve" smooth="yes"/>
      <point x="4112" y="1174"/>
      <point x="4077" y="1170"/>
      <point x="4049" y="1165" type="curve"/>
      <point x="4021" y="1006" type="line"/>
      <point x="4047" y="1010"/>
      <point x="4075" y="1013"/>
      <point x="4107" y="1013" type="curve" smooth="yes"/>
      <point x="4304" y="1013"/>
      <point x="4361" y="897"/>
      <point x="4361" y="688" type="curve" smooth="yes"/>
      <point x="4361" y="427" type="line" smooth="yes"/>
      <point x="4361" y="237"/>
      <point x="4308" y="136"/>
      <point x="4166" y="136" type="curve" smooth="yes"/>
      <point x="4020" y="136"/>
      <point x="3963" y="227"/>
      <point x="3959" y="411" type="curve" smooth="yes"/>
      <point x="3955" y="587" type="line" smooth="yes"/>
      <point x="3937" y="1361"/>
      <point x="3400" y="1716"/>
      <point x="2165" y="1716" type="curve" smooth="yes"/>
    </contour>
    <contour>
      <point x="3035" y="1147" type="line"/>
      <point x="2171" y="1147" type="line"/>
      <point x="2171" y="0" type="line"/>
      <point x="2356" y="0" type="line"/>
      <point x="2356" y="994" type="line"/>
      <point x="3035" y="994" type="line"/>
    </contour>
    <component base="Va_NonExporting" xOffset="579"/>
    <component base="RaBeak_Nonexporting" xOffset="2794"/>
  </outline>
</glyph>
<glyph name="CreditSign.tm" format="2">
  <advance width="2712"/>
  <unicode hex="0BF7"/>
  <note>
CreditSign.tm
</note>
  <outline>
    <contour>
      <point x="2025" y="789" type="curve" smooth="yes"/>
      <point x="1815" y="789"/>
      <point x="1700" y="666"/>
      <point x="1700" y="466" type="curve" smooth="yes"/>
      <point x="1700" y="455" type="line"/>
      <point x="1692" y="455" type="line"/>
      <point x="1676" y="621"/>
      <point x="1602" y="694"/>
      <point x="1401" y="694" type="curve" smooth="yes"/>
      <point x="1248" y="694" type="line"/>
      <point x="1248" y="544" type="line"/>
      <point x="1386" y="544" type="line" smooth="yes"/>
      <point x="1549" y="544"/>
      <point x="1602" y="486"/>
      <point x="1602" y="315" type="curve" smooth="yes"/>
      <point x="1602" y="0" type="line"/>
      <point x="1786" y="0" type="line"/>
      <point x="1786" y="379" type="line" smooth="yes"/>
      <point x="1786" y="552"/>
      <point x="1863" y="632"/>
      <point x="1982" y="632" type="curve" smooth="yes"/>
      <point x="2104" y="632"/>
      <point x="2155" y="554"/>
      <point x="2155" y="412" type="curve" smooth="yes"/>
      <point x="2155" y="342" type="line" smooth="yes"/>
      <point x="2155" y="188"/>
      <point x="2119" y="100"/>
      <point x="2050" y="13" type="curve"/>
      <point x="2050" y="0" type="line"/>
      <point x="2686" y="0" type="line"/>
      <point x="2708" y="154" type="line"/>
      <point x="2210" y="154" type="line"/>
      <point x="2247" y="103" type="line"/>
      <point x="2299" y="173"/>
      <point x="2335" y="255"/>
      <point x="2335" y="401" type="curve" smooth="yes"/>
      <point x="2335" y="464" type="line" smooth="yes"/>
      <point x="2335" y="674"/>
      <point x="2240" y="789"/>
    </contour>
    <component base="VowelE.tm"/>
  </outline>
</glyph>
<glyph name="RupeeSign.tm" format="2">
  <advance width="3231"/>
  <unicode hex="0BF9"/>
  <note>
RupeeSign.tm
</note>
  <outline>
    <contour>
      <point x="1307" y="1098" type="line"/>
      <point x="1307" y="1" type="line"/>
      <point x="1492" y="1" type="line"/>
      <point x="1492" y="1098" type="line"/>
    </contour>
    <contour>
      <point x="1766" y="760" type="curve" smooth="yes"/>
      <point x="1615" y="760"/>
      <point x="1525" y="671"/>
      <point x="1500" y="552" type="curve"/>
      <point x="1467" y="552" type="line"/>
      <point x="1467" y="399" type="line"/>
      <point x="1482" y="399" type="line"/>
      <point x="1507" y="521"/>
      <point x="1583" y="593"/>
      <point x="1693" y="593" type="curve" smooth="yes"/>
      <point x="1827" y="593"/>
      <point x="1878" y="505"/>
      <point x="1878" y="333" type="curve" smooth="yes"/>
      <point x="1878" y="283" type="line" smooth="yes"/>
      <point x="1878" y="-130"/>
      <point x="1665" y="-341"/>
      <point x="1180" y="-341" type="curve" smooth="yes"/>
      <point x="1172" y="-341" type="line" smooth="yes"/>
      <point x="600" y="-341"/>
      <point x="334" y="-78"/>
      <point x="334" y="466" type="curve" smooth="yes"/>
      <point x="334" y="667" type="line" smooth="yes"/>
      <point x="334" y="1259"/>
      <point x="641" y="1554"/>
      <point x="1299" y="1554" type="curve" smooth="yes"/>
      <point x="1307" y="1554" type="line" smooth="yes"/>
      <point x="1945" y="1554"/>
      <point x="2218" y="1277"/>
      <point x="2218" y="708" type="curve" smooth="yes"/>
      <point x="2218" y="672" type="line"/>
      <point x="2396" y="672" type="line"/>
      <point x="2396" y="844" type="line" smooth="yes"/>
      <point x="2396" y="1012"/>
      <point x="2466" y="1091"/>
      <point x="2588" y="1091" type="curve" smooth="yes"/>
      <point x="2704" y="1091"/>
      <point x="2753" y="1018"/>
      <point x="2753" y="891" type="curve" smooth="yes"/>
      <point x="2753" y="839" type="line" smooth="yes"/>
      <point x="2753" y="690"/>
      <point x="2714" y="605"/>
      <point x="2641" y="521" type="curve"/>
      <point x="2641" y="506" type="line"/>
      <point x="3217" y="506" type="line"/>
      <point x="3236" y="652" type="line"/>
      <point x="2804" y="652" type="line"/>
      <point x="2836" y="600" type="line"/>
      <point x="2892" y="667"/>
      <point x="2932" y="747"/>
      <point x="2932" y="904" type="curve" smooth="yes"/>
      <point x="2932" y="941" type="line" smooth="yes"/>
      <point x="2932" y="1138"/>
      <point x="2840" y="1249"/>
      <point x="2642" y="1249" type="curve" smooth="yes"/>
      <point x="2445" y="1249"/>
      <point x="2341" y="1134"/>
      <point x="2340" y="940" type="curve" smooth="yes"/>
      <point x="2340" y="937" type="line"/>
      <point x="2332" y="937" type="line"/>
      <point x="2300" y="1420"/>
      <point x="1966" y="1716"/>
      <point x="1307" y="1716" type="curve" smooth="yes"/>
      <point x="1299" y="1716" type="line" smooth="yes"/>
      <point x="539" y="1716"/>
      <point x="146" y="1364"/>
      <point x="146" y="661" type="curve" smooth="yes"/>
      <point x="146" y="471" type="line" smooth="yes"/>
      <point x="146" y="-184"/>
      <point x="493" y="-503"/>
      <point x="1172" y="-503" type="curve" smooth="yes"/>
      <point x="1179" y="-503" type="line" smooth="yes"/>
      <point x="1784" y="-503"/>
      <point x="2066" y="-229"/>
      <point x="2066" y="286" type="curve" smooth="yes"/>
      <point x="2066" y="349" type="line" smooth="yes"/>
      <point x="2066" y="619"/>
      <point x="1978" y="760"/>
    </contour>
    <contour>
      <point x="1605" y="1147" type="line"/>
      <point x="736" y="1147" type="line"/>
      <point x="736" y="1" type="line"/>
      <point x="922" y="1" type="line"/>
      <point x="922" y="994" type="line"/>
      <point x="1605" y="994" type="line"/>
    </contour>
    <component base="RaBeak_Nonexporting" xOffset="1383"/>
  </outline>
</glyph>
<glyph name="guilsinglright" format="2">
  <advance width="570"/>
  <unicode hex="203A"/>
  <outline>
    <contour>
      <point x="324" y="490" type="line"/>
      <point x="41" y="88" type="line"/>
      <point x="233" y="88" type="line"/>
      <point x="505" y="468" type="line"/>
      <point x="505" y="512" type="line"/>
      <point x="233" y="886" type="line"/>
      <point x="41" y="886" type="line"/>
    </contour>
  </outline>
</glyph>
<glyph name="AsAboveSign_Simple.tm" format="2">
  <advance width="3507"/>
  <note>
AsAboveSign.tm
</note>
  <outline>
    <contour>
      <point x="734" y="1360" type="curve" smooth="yes"/>
      <point x="334" y="1360"/>
      <point x="125" y="1134"/>
      <point x="125" y="715" type="curve" smooth="yes"/>
      <point x="125" y="420" type="line" smooth="yes"/>
      <point x="120" y="148"/>
      <point x="245" y="-23"/>
      <point x="515" y="-23" type="curve" smooth="yes"/>
      <point x="764" y="-23"/>
      <point x="868" y="122"/>
      <point x="868" y="346" type="curve" smooth="yes"/>
      <point x="868" y="434" type="line" smooth="yes"/>
      <point x="868" y="655"/>
      <point x="774" y="773"/>
      <point x="580" y="773" type="curve" smooth="yes"/>
      <point x="427" y="773"/>
      <point x="333" y="684"/>
      <point x="308" y="576" type="curve"/>
      <point x="293" y="576" type="line"/>
      <point x="297" y="451" type="line"/>
      <point x="320" y="542"/>
      <point x="399" y="615"/>
      <point x="512" y="615" type="curve" smooth="yes"/>
      <point x="634" y="615"/>
      <point x="689" y="546"/>
      <point x="689" y="416" type="curve" smooth="yes"/>
      <point x="689" y="337" type="line" smooth="yes"/>
      <point x="689" y="204"/>
      <point x="636" y="125"/>
      <point x="513" y="125" type="curve" smooth="yes"/>
      <point x="369" y="125"/>
      <point x="307" y="218"/>
      <point x="307" y="378" type="curve" smooth="yes"/>
      <point x="307" y="576" type="line"/>
      <point x="301" y="576" type="line"/>
      <point x="301" y="628"/>
      <point x="301" y="670"/>
      <point x="301" y="722" type="curve" smooth="yes"/>
      <point x="301" y="1035"/>
      <point x="448" y="1198"/>
      <point x="737" y="1198" type="curve" smooth="yes"/>
      <point x="1004" y="1198"/>
      <point x="1120" y="1045"/>
      <point x="1141" y="795" type="curve"/>
      <point x="1269" y="938" type="line"/>
      <point x="1228" y="1185"/>
      <point x="1053" y="1360"/>
    </contour>
    <contour>
      <point x="1081" y="563" type="curve" smooth="yes"/>
      <point x="1081" y="395" type="line" smooth="yes"/>
      <point x="1081" y="140"/>
      <point x="1194" y="-23"/>
      <point x="1453" y="-23" type="curve" smooth="yes"/>
      <point x="1696" y="-23"/>
      <point x="1797" y="117"/>
      <point x="1797" y="334" type="curve" smooth="yes"/>
      <point x="1797" y="423" type="line" smooth="yes"/>
      <point x="1797" y="635"/>
      <point x="1709" y="750"/>
      <point x="1527" y="750" type="curve" smooth="yes"/>
      <point x="1379" y="750"/>
      <point x="1287" y="664"/>
      <point x="1263" y="559" type="curve"/>
      <point x="1249" y="559" type="line"/>
      <point x="1253" y="434" type="line"/>
      <point x="1274" y="520"/>
      <point x="1350" y="592"/>
      <point x="1453" y="592" type="curve" smooth="yes"/>
      <point x="1568" y="592"/>
      <point x="1618" y="527"/>
      <point x="1618" y="405" type="curve" smooth="yes"/>
      <point x="1618" y="325" type="line" smooth="yes"/>
      <point x="1618" y="199"/>
      <point x="1567" y="125"/>
      <point x="1450" y="125" type="curve" smooth="yes"/>
      <point x="1319" y="125"/>
      <point x="1262" y="211"/>
      <point x="1262" y="356" type="curve"/>
      <point x="1262" y="559" type="line"/>
      <point x="1256" y="559" type="line"/>
      <point x="1256" y="566"/>
      <point x="1256" y="569"/>
      <point x="1256" y="575" type="curve" smooth="yes"/>
      <point x="1259" y="862"/>
      <point x="1398" y="1013"/>
      <point x="1679" y="1013" type="curve" smooth="yes"/>
      <point x="1959" y="1013"/>
      <point x="2068" y="864"/>
      <point x="2068" y="591" type="curve" smooth="yes"/>
      <point x="2068" y="485" type="line" smooth="yes"/>
      <point x="2068" y="277"/>
      <point x="2030" y="143"/>
      <point x="1942" y="13" type="curve"/>
      <point x="1942" y="0" type="line"/>
      <point x="2487" y="0" type="line"/>
      <point x="2487" y="153" type="line"/>
      <point x="2111" y="153" type="line"/>
      <point x="2127" y="72" type="line"/>
      <point x="2215" y="179"/>
      <point x="2257" y="307"/>
      <point x="2257" y="508" type="curve" smooth="yes"/>
      <point x="2257" y="610" type="line" smooth="yes"/>
      <point x="2257" y="967"/>
      <point x="2099" y="1174"/>
      <point x="1695" y="1174" type="curve" smooth="yes"/>
      <point x="1458" y="1174"/>
      <point x="1279" y="1082"/>
      <point x="1216" y="931" type="curve"/>
      <point x="1181" y="932" type="line"/>
      <point x="1109" y="842"/>
      <point x="1081" y="711"/>
    </contour>
    <component base="Ssa_Above_NonExporting" xOffset="2184"/>
    <component base="Ssa_Below_Simple_NonExporting" xOffset="2593"/>
  </outline>
</glyph>
<glyph name="CaMatraI.tm" format="2">
  <advance width="1779"/>
  <note>
CaMatraI.tm
</note>
  <outline>
    <contour>
      <point x="958" y="554" type="line"/>
      <point x="1313" y="554" type="line"/>
      <point x="1293" y="704" type="line"/>
      <point x="958" y="704" type="line"/>
    </contour>
    <contour>
      <point x="1188" y="1742" type="curve" smooth="yes"/>
      <point x="910" y="1742"/>
      <point x="764" y="1592"/>
      <point x="764" y="1351" type="curve" smooth="yes"/>
      <point x="764" y="1346" type="line" smooth="yes"/>
      <point x="764" y="1265"/>
      <point x="785" y="1185"/>
      <point x="814" y="1139" type="curve"/>
      <point x="989" y="1139" type="line"/>
      <point x="961" y="1184"/>
      <point x="945" y="1243"/>
      <point x="945" y="1323" type="curve" smooth="yes"/>
      <point x="945" y="1327" type="line" smooth="yes"/>
      <point x="945" y="1497"/>
      <point x="1025" y="1584"/>
      <point x="1186" y="1584" type="curve" smooth="yes"/>
      <point x="1359" y="1584"/>
      <point x="1425" y="1494"/>
      <point x="1425" y="1291" type="curve" smooth="yes"/>
      <point x="1425" y="0" type="line"/>
      <point x="1611" y="0" type="line"/>
      <point x="1611" y="1285" type="line" smooth="yes"/>
      <point x="1611" y="1596"/>
      <point x="1486" y="1742"/>
    </contour>
    <component base="KaComponent_Nonexporting" xOffset="74"/>
    <component base="KaBeak_Nonexporting" xOffset="952"/>
  </outline>
</glyph>
<glyph name="CaMatraUu.tm" format="2">
  <advance width="2553"/>
  <note>
CaMatraUu.tm
</note>
  <outline>
    <contour>
      <point x="1485" y="544" type="line"/>
      <point x="1870" y="544" type="line"/>
      <point x="1922" y="551" type="line"/>
      <point x="2332" y="551" type="line"/>
      <point x="2312" y="694" type="line"/>
      <point x="1485" y="694" type="line"/>
    </contour>
    <contour>
      <point x="1807" y="583" type="line"/>
      <point x="1807" y="0" type="line"/>
      <point x="1992" y="0" type="line"/>
      <point x="1992" y="583" type="line"/>
    </contour>
    <contour>
      <point x="258" y="1147" type="line"/>
      <point x="202" y="1003"/>
      <point x="144" y="768"/>
      <point x="144" y="459" type="curve" smooth="yes"/>
      <point x="144" y="-218"/>
      <point x="547" y="-564"/>
      <point x="1422" y="-564" type="curve" smooth="yes"/>
      <point x="1433" y="-564" type="line" smooth="yes"/>
      <point x="2138" y="-564"/>
      <point x="2497" y="-326"/>
      <point x="2497" y="92" type="curve" smooth="yes"/>
      <point x="2497" y="102" type="line" smooth="yes"/>
      <point x="2497" y="312"/>
      <point x="2418" y="428"/>
      <point x="2240" y="428" type="curve" smooth="yes"/>
      <point x="2103" y="428"/>
      <point x="2021" y="350"/>
      <point x="1998" y="253" type="curve"/>
      <point x="1967" y="253" type="line"/>
      <point x="1967" y="120" type="line"/>
      <point x="1981" y="120" type="line"/>
      <point x="2006" y="212"/>
      <point x="2070" y="272"/>
      <point x="2162" y="272" type="curve" smooth="yes"/>
      <point x="2268" y="272"/>
      <point x="2311" y="206"/>
      <point x="2311" y="88" type="curve" smooth="yes"/>
      <point x="2311" y="86" type="line" smooth="yes"/>
      <point x="2311" y="-227"/>
      <point x="2019" y="-402"/>
      <point x="1433" y="-402" type="curve" smooth="yes"/>
      <point x="1422" y="-402" type="line" smooth="yes"/>
      <point x="660" y="-402"/>
      <point x="332" y="-113"/>
      <point x="332" y="463" type="curve" smooth="yes"/>
      <point x="332" y="753"/>
      <point x="383" y="971"/>
      <point x="450" y="1147" type="curve"/>
    </contour>
    <component base="KaComponent_Nonexporting" xOffset="621"/>
    <component base="KaBeak_Nonexporting" xOffset="1597"/>
  </outline>
</glyph>
<glyph name="CaMatraUu_Simple.tm" format="2">
  <advance width="2497"/>
  <note>
CaMatraUu.tm
</note>
  <outline>
    <contour>
      <point x="1450" y="554" type="line"/>
      <point x="1815" y="554" type="line"/>
      <point x="1867" y="561" type="line"/>
      <point x="2276" y="561" type="line"/>
      <point x="2257" y="704" type="line"/>
      <point x="1450" y="704" type="line"/>
    </contour>
    <contour>
      <point x="1752" y="592" type="line"/>
      <point x="1752" y="0" type="line"/>
      <point x="1936" y="0" type="line"/>
      <point x="1936" y="592" type="line"/>
    </contour>
    <contour>
      <point x="158" y="1147" type="line"/>
      <point x="158" y="448" type="line"/>
      <point x="158" y="-224"/>
      <point x="549" y="-564"/>
      <point x="1394" y="-564" type="curve" smooth="yes"/>
      <point x="1410" y="-564" type="line" smooth="yes"/>
      <point x="2108" y="-564"/>
      <point x="2441" y="-327"/>
      <point x="2441" y="101" type="curve" smooth="yes"/>
      <point x="2441" y="122" type="line" smooth="yes"/>
      <point x="2441" y="328"/>
      <point x="2362" y="443"/>
      <point x="2185" y="443" type="curve" smooth="yes"/>
      <point x="2048" y="443"/>
      <point x="1966" y="365"/>
      <point x="1943" y="268" type="curve"/>
      <point x="1911" y="268" type="line"/>
      <point x="1911" y="135" type="line"/>
      <point x="1926" y="135" type="line"/>
      <point x="1950" y="227"/>
      <point x="2015" y="287"/>
      <point x="2106" y="287" type="curve" smooth="yes"/>
      <point x="2212" y="287"/>
      <point x="2256" y="222"/>
      <point x="2256" y="105" type="curve" smooth="yes"/>
      <point x="2256" y="98" type="line" smooth="yes"/>
      <point x="2256" y="-228"/>
      <point x="1989" y="-402"/>
      <point x="1410" y="-402" type="curve" smooth="yes"/>
      <point x="1394" y="-402" type="line" smooth="yes"/>
      <point x="661" y="-402"/>
      <point x="346" y="-118"/>
      <point x="346" y="452" type="curve"/>
      <point x="346" y="1146" type="line"/>
    </contour>
    <component base="KaComponent_Nonexporting" xOffset="586"/>
    <component base="KaBeak_Nonexporting" xOffset="1562"/>
  </outline>
</glyph>
<glyph name="DebitSign_Simple.tm" format="2">
  <advance width="2019"/>
  <note>
DebitSign.tm
</note>
  <anchor x="708" y="1239" name="top"/>
  <outline>
    <contour>
      <point x="1851" y="-224" type="line"/>
      <point x="48" y="-224" type="line"/>
      <point x="74" y="-380" type="line"/>
      <point x="1851" y="-380" type="line"/>
    </contour>
    <contour>
      <point x="1665" y="1146" type="line"/>
      <point x="1665" y="-328" type="line"/>
      <point x="1851" y="-328" type="line"/>
      <point x="1851" y="1146" type="line"/>
    </contour>
    <contour>
      <point x="1115" y="147" type="line"/>
      <point x="1115" y="-283" type="line"/>
      <point x="1301" y="-283" type="line"/>
      <point x="1301" y="147" type="line"/>
    </contour>
    <component base="Pa.tm"/>
  </outline>
</glyph>
<glyph name="HaMatraI_Fly.tm" format="2">
  <advance width="3102"/>
  <note>
HaMatraI.tm
</note>
  <anchor x="1405" y="1239" name="top"/>
  <outline>
    <contour>
      <point x="3048" y="1577" type="line"/>
      <point x="2711" y="1577" type="line" smooth="yes"/>
      <point x="2521" y="1577"/>
      <point x="2440" y="1512"/>
      <point x="2440" y="1380" type="curve" smooth="yes"/>
      <point x="2440" y="1302"/>
      <point x="2472" y="1233"/>
      <point x="2526" y="1138" type="curve"/>
      <point x="2705" y="1138" type="line"/>
      <point x="2664" y="1203"/>
      <point x="2631" y="1267"/>
      <point x="2631" y="1320" type="curve" smooth="yes"/>
      <point x="2631" y="1390"/>
      <point x="2669" y="1420"/>
      <point x="2770" y="1420" type="curve" smooth="yes"/>
      <point x="3073" y="1420" type="line"/>
    </contour>
    <component base="Ha.tm"/>
  </outline>
</glyph>
<glyph name="HaMatraIi_Simple.tm" format="2">
  <advance width="3091"/>
  <note>
HaMatraIi.tm
</note>
  <anchor x="2257" y="1239" name="top"/>
  <outline>
    <contour>
      <point x="1357" y="153" type="line"/>
      <point x="1357" y="0" type="line"/>
      <point x="1697" y="0" type="line"/>
      <point x="1697" y="153" type="line"/>
    </contour>
    <contour>
      <point x="1689" y="-212" type="line"/>
      <point x="67" y="-212" type="line"/>
      <point x="92" y="-368" type="line"/>
      <point x="1689" y="-368" type="line"/>
    </contour>
    <component base="Va_NonExporting" xOffset="12.991"/>
    <component base="RraMatraIi_Simple.tm" xOffset="1430"/>
  </outline>
</glyph>
<glyph name="HaMatraU_Simple.tm" format="2">
  <advance width="3947"/>
  <note>
HaMatraU.tm
</note>
  <outline>
    <contour>
      <point x="1362" y="153" type="line"/>
      <point x="1362" y="0" type="line"/>
      <point x="1705" y="0" type="line"/>
      <point x="1705" y="153" type="line"/>
    </contour>
    <contour>
      <point x="1954" y="1171" type="curve" smooth="yes"/>
      <point x="1727" y="1171"/>
      <point x="1602" y="1045"/>
      <point x="1602" y="765" type="curve" smooth="yes"/>
      <point x="1602" y="0" type="line"/>
      <point x="1787" y="0" type="line"/>
      <point x="1787" y="775" type="line" smooth="yes"/>
      <point x="1787" y="940"/>
      <point x="1857" y="1013"/>
      <point x="1978" y="1013" type="curve" smooth="yes"/>
      <point x="2109" y="1013"/>
      <point x="2163" y="941"/>
      <point x="2163" y="775" type="curve"/>
      <point x="2163" y="0" type="line"/>
      <point x="2349" y="0" type="line"/>
      <point x="2349" y="751" type="line" smooth="yes"/>
      <point x="2349" y="940"/>
      <point x="2434" y="1014"/>
      <point x="2577" y="1014" type="curve" smooth="yes"/>
      <point x="2718" y="1014"/>
      <point x="2777" y="938"/>
      <point x="2777" y="804" type="curve" smooth="yes"/>
      <point x="2777" y="791" type="line" smooth="yes"/>
      <point x="2777" y="661"/>
      <point x="2717" y="587"/>
      <point x="2560" y="583" type="curve" smooth="yes"/>
      <point x="2485" y="581" type="line"/>
      <point x="2485" y="433" type="line"/>
      <point x="2558" y="430" type="line" smooth="yes"/>
      <point x="2722" y="425"/>
      <point x="2796" y="357"/>
      <point x="2796" y="184" type="curve" smooth="yes"/>
      <point x="2796" y="151" type="line" smooth="yes"/>
      <point x="2796" y="-115"/>
      <point x="2696" y="-212"/>
      <point x="2346" y="-212" type="curve" smooth="yes"/>
      <point x="67" y="-212" type="line"/>
      <point x="92" y="-368" type="line"/>
      <point x="2362" y="-368" type="line" smooth="yes"/>
      <point x="2840" y="-368"/>
      <point x="2983" y="-222"/>
      <point x="2983" y="140" type="curve" smooth="yes"/>
      <point x="2983" y="176" type="line" smooth="yes"/>
      <point x="2983" y="395"/>
      <point x="2889" y="498"/>
      <point x="2712" y="509" type="curve"/>
      <point x="2712" y="515" type="line"/>
      <point x="2880" y="529"/>
      <point x="2956" y="637"/>
      <point x="2956" y="814" type="curve" smooth="yes"/>
      <point x="2956" y="826" type="line" smooth="yes"/>
      <point x="2956" y="922"/>
      <point x="2929" y="1003"/>
      <point x="2866" y="1049" type="curve"/>
      <point x="2861" y="1086" type="line"/>
      <point x="2810" y="1143"/>
      <point x="2732" y="1172"/>
      <point x="2615" y="1172" type="curve" smooth="yes"/>
      <point x="2402" y="1172"/>
      <point x="2285" y="1071"/>
      <point x="2263" y="890" type="curve"/>
      <point x="2259" y="890" type="line"/>
      <point x="2242" y="1070"/>
      <point x="2148" y="1171"/>
    </contour>
    <contour>
      <point x="3012" y="1147" type="line"/>
      <point x="2715" y="1147" type="line"/>
      <point x="2737" y="994" type="line"/>
      <point x="3012" y="994" type="line"/>
    </contour>
    <component base="Va_NonExporting" xOffset="12.991"/>
    <component base="MatraUDflt.tm" xOffset="2851"/>
  </outline>
</glyph>
<glyph name="HaMatraUu_Simple_SimpleUu.tm" format="2">
  <advance width="4418"/>
  <note>
HaMatraUu.tm
</note>
  <outline>
    <contour>
      <point x="1954" y="1171" type="curve" smooth="yes"/>
      <point x="1726" y="1171"/>
      <point x="1601" y="1045"/>
      <point x="1601" y="765" type="curve" smooth="yes"/>
      <point x="1601" y="0" type="line"/>
      <point x="1787" y="0" type="line"/>
      <point x="1787" y="775" type="line" smooth="yes"/>
      <point x="1787" y="940"/>
      <point x="1857" y="1013"/>
      <point x="1977" y="1013" type="curve" smooth="yes"/>
      <point x="2108" y="1013"/>
      <point x="2162" y="941"/>
      <point x="2162" y="775" type="curve"/>
      <point x="2162" y="0" type="line"/>
      <point x="2348" y="0" type="line"/>
      <point x="2348" y="751" type="line" smooth="yes"/>
      <point x="2348" y="940"/>
      <point x="2433" y="1014"/>
      <point x="2576" y="1014" type="curve" smooth="yes"/>
      <point x="2718" y="1014"/>
      <point x="2777" y="938"/>
      <point x="2777" y="804" type="curve" smooth="yes"/>
      <point x="2777" y="791" type="line" smooth="yes"/>
      <point x="2777" y="663"/>
      <point x="2714" y="587"/>
      <point x="2560" y="583" type="curve" smooth="yes"/>
      <point x="2485" y="581" type="line"/>
      <point x="2485" y="433" type="line"/>
      <point x="2558" y="430" type="line" smooth="yes"/>
      <point x="2718" y="423"/>
      <point x="2795" y="357"/>
      <point x="2795" y="184" type="curve" smooth="yes"/>
      <point x="2795" y="151" type="line" smooth="yes"/>
      <point x="2795" y="-115"/>
      <point x="2695" y="-212"/>
      <point x="2345" y="-212" type="curve" smooth="yes"/>
      <point x="67" y="-212" type="line"/>
      <point x="92" y="-368" type="line"/>
      <point x="2362" y="-368" type="line" smooth="yes"/>
      <point x="2840" y="-368"/>
      <point x="2982" y="-222"/>
      <point x="2982" y="140" type="curve" smooth="yes"/>
      <point x="2982" y="176" type="line" smooth="yes"/>
      <point x="2982" y="395"/>
      <point x="2886" y="498"/>
      <point x="2712" y="509" type="curve"/>
      <point x="2712" y="515" type="line"/>
      <point x="2877" y="529"/>
      <point x="2955" y="640"/>
      <point x="2955" y="814" type="curve" smooth="yes"/>
      <point x="2955" y="826" type="line" smooth="yes"/>
      <point x="2955" y="922"/>
      <point x="2929" y="1003"/>
      <point x="2866" y="1049" type="curve"/>
      <point x="2861" y="1086" type="line"/>
      <point x="2810" y="1143"/>
      <point x="2731" y="1172"/>
      <point x="2614" y="1172" type="curve" smooth="yes"/>
      <point x="2402" y="1172"/>
      <point x="2286" y="1071"/>
      <point x="2264" y="890" type="curve"/>
      <point x="2257" y="890" type="line"/>
      <point x="2240" y="1070"/>
      <point x="2146" y="1171"/>
    </contour>
    <contour>
      <point x="1362" y="153" type="line"/>
      <point x="1362" y="0" type="line"/>
      <point x="1705" y="0" type="line"/>
      <point x="1705" y="153" type="line"/>
    </contour>
    <contour>
      <point x="3013" y="1147" type="line"/>
      <point x="2716" y="1147" type="line"/>
      <point x="2738" y="994" type="line"/>
      <point x="3013" y="994" type="line"/>
    </contour>
    <component base="Va_NonExporting" xOffset="13"/>
    <component base="MatraUuDflt_Simple.tm" xOffset="2836"/>
  </outline>
</glyph>
<glyph name="JaMatraI.tm" format="2">
  <advance width="2438"/>
  <note>
JaMatraI.tm
</note>
  <anchor x="1093" y="1239" name="top"/>
  <outline>
    <contour>
      <point x="1812" y="1742" type="curve" smooth="yes"/>
      <point x="1511" y="1742"/>
      <point x="1352" y="1580"/>
      <point x="1352" y="1331" type="curve" smooth="yes"/>
      <point x="1352" y="1327" type="line" smooth="yes"/>
      <point x="1352" y="1256"/>
      <point x="1368" y="1185"/>
      <point x="1392" y="1143" type="curve"/>
      <point x="1569" y="1143" type="line"/>
      <point x="1546" y="1182"/>
      <point x="1534" y="1237"/>
      <point x="1534" y="1304" type="curve" smooth="yes"/>
      <point x="1534" y="1306" type="line" smooth="yes"/>
      <point x="1534" y="1485"/>
      <point x="1628" y="1582"/>
      <point x="1810" y="1582" type="curve" smooth="yes"/>
      <point x="2007" y="1582"/>
      <point x="2084" y="1477"/>
      <point x="2084" y="1246" type="curve" smooth="yes"/>
      <point x="2084" y="0" type="line"/>
      <point x="2270" y="0" type="line"/>
      <point x="2270" y="1241" type="line"/>
      <point x="2270" y="1580"/>
      <point x="2132" y="1742"/>
    </contour>
    <component base="Ja.tm"/>
  </outline>
</glyph>
<glyph name="JaMatraIi_Fused_SimpleIi.tm" format="2">
  <advance width="1928"/>
  <note>
JaMatraIi.tm
</note>
  <anchor x="1095" y="1239" name="top"/>
  <outline>
    <contour>
      <point x="1638" y="1838" type="curve" smooth="yes"/>
      <point x="1401" y="1838"/>
      <point x="1293" y="1713"/>
      <point x="1293" y="1488" type="curve" smooth="yes"/>
      <point x="1293" y="1423" type="line" smooth="yes"/>
      <point x="1293" y="1298"/>
      <point x="1321" y="1208"/>
      <point x="1377" y="1155" type="curve"/>
      <point x="1554" y="1155" type="line"/>
      <point x="1492" y="1213"/>
      <point x="1466" y="1297"/>
      <point x="1466" y="1406" type="curve" smooth="yes"/>
      <point x="1466" y="1451" type="line"/>
      <point x="1466" y="1512" type="line" smooth="yes"/>
      <point x="1466" y="1638"/>
      <point x="1525" y="1697"/>
      <point x="1634" y="1697" type="curve" smooth="yes"/>
      <point x="1734" y="1697"/>
      <point x="1785" y="1649"/>
      <point x="1785" y="1559" type="curve" smooth="yes"/>
      <point x="1785" y="1539" type="line" smooth="yes"/>
      <point x="1785" y="1447"/>
      <point x="1741" y="1399"/>
      <point x="1639" y="1399" type="curve" smooth="yes"/>
      <point x="1550" y="1399"/>
      <point x="1491" y="1441"/>
      <point x="1462" y="1496" type="curve"/>
      <point x="1458" y="1496" type="line"/>
      <point x="1460" y="1427" type="line"/>
      <point x="1471" y="1427" type="line"/>
      <point x="1516" y="1306" type="line"/>
      <point x="1543" y="1283"/>
      <point x="1606" y="1266"/>
      <point x="1684" y="1266" type="curve" smooth="yes"/>
      <point x="1872" y="1266"/>
      <point x="1955" y="1362"/>
      <point x="1955" y="1536" type="curve" smooth="yes"/>
      <point x="1955" y="1553" type="line" smooth="yes"/>
      <point x="1955" y="1733"/>
      <point x="1855" y="1838"/>
    </contour>
    <component base="Ja_Fused.tm"/>
  </outline>
</glyph>
<glyph name="JaMatraU.tm" format="2">
  <advance width="2785"/>
  <note>
JaMatraU.tm
</note>
  <outline>
    <contour>
      <point x="1822" y="1147" type="line"/>
      <point x="1552" y="1147" type="line"/>
      <point x="1569" y="994" type="line"/>
      <point x="1822" y="994" type="line"/>
    </contour>
    <contour>
      <point x="652" y="1184" type="curve" smooth="yes"/>
      <point x="309" y="1184"/>
      <point x="125" y="1014"/>
      <point x="125" y="719" type="curve" smooth="yes"/>
      <point x="125" y="696" type="line" smooth="yes"/>
      <point x="125" y="490"/>
      <point x="238" y="348"/>
      <point x="473" y="348" type="curve" smooth="yes"/>
      <point x="693" y="348"/>
      <point x="792" y="459"/>
      <point x="792" y="638" type="curve" smooth="yes"/>
      <point x="792" y="650" type="line" smooth="yes"/>
      <point x="792" y="822"/>
      <point x="713" y="922"/>
      <point x="540" y="922" type="curve" smooth="yes"/>
      <point x="398" y="922"/>
      <point x="323" y="847"/>
      <point x="300" y="752" type="curve"/>
      <point x="286" y="752" type="line"/>
      <point x="293" y="645" type="line"/>
      <point x="314" y="724"/>
      <point x="385" y="783"/>
      <point x="476" y="783" type="curve" smooth="yes"/>
      <point x="576" y="783"/>
      <point x="622" y="734"/>
      <point x="622" y="646" type="curve" smooth="yes"/>
      <point x="622" y="634" type="line" smooth="yes"/>
      <point x="622" y="541"/>
      <point x="577" y="486"/>
      <point x="473" y="486" type="curve" smooth="yes"/>
      <point x="356" y="486"/>
      <point x="302" y="557"/>
      <point x="302" y="673" type="curve" smooth="yes"/>
      <point x="302" y="742" type="line"/>
      <point x="293" y="742" type="line"/>
      <point x="294" y="922"/>
      <point x="419" y="1035"/>
      <point x="664" y="1035" type="curve" smooth="yes"/>
      <point x="932" y="1035"/>
      <point x="1030" y="902"/>
      <point x="1030" y="650" type="curve" smooth="yes"/>
      <point x="1030" y="442" type="line"/>
      <point x="1209" y="442" type="line"/>
      <point x="1209" y="754" type="line" smooth="yes"/>
      <point x="1209" y="950"/>
      <point x="1288" y="1023"/>
      <point x="1414" y="1023" type="curve" smooth="yes"/>
      <point x="1554" y="1023"/>
      <point x="1608" y="931"/>
      <point x="1608" y="769" type="curve" smooth="yes"/>
      <point x="1608" y="713" type="line" smooth="yes"/>
      <point x="1608" y="488"/>
      <point x="1531" y="394"/>
      <point x="1256" y="361" type="curve" smooth="yes"/>
      <point x="597" y="281" type="line" smooth="yes"/>
      <point x="300" y="245"/>
      <point x="165" y="138"/>
      <point x="165" y="-108" type="curve" smooth="yes"/>
      <point x="165" y="-118" type="line" smooth="yes"/>
      <point x="165" y="-340"/>
      <point x="302" y="-465"/>
      <point x="547" y="-465" type="curve" smooth="yes"/>
      <point x="758" y="-465"/>
      <point x="850" y="-375"/>
      <point x="992" y="-249" type="curve" smooth="yes"/>
      <point x="1111" y="-144" type="line" smooth="yes"/>
      <point x="1224" y="-44"/>
      <point x="1322" y="-1"/>
      <point x="1447" y="-1" type="curve" smooth="yes"/>
      <point x="1559" y="-1"/>
      <point x="1604" y="-54"/>
      <point x="1604" y="-145" type="curve" smooth="yes"/>
      <point x="1604" y="-155" type="line" smooth="yes"/>
      <point x="1604" y="-259"/>
      <point x="1543" y="-311"/>
      <point x="1393" y="-311" type="curve" smooth="yes"/>
      <point x="1313" y="-311"/>
      <point x="1240" y="-296"/>
      <point x="1163" y="-269" type="curve"/>
      <point x="1200" y="-427" type="line"/>
      <point x="1273" y="-452"/>
      <point x="1354" y="-465"/>
      <point x="1435" y="-465" type="curve" smooth="yes"/>
      <point x="1676" y="-465"/>
      <point x="1785" y="-360"/>
      <point x="1785" y="-155" type="curve" smooth="yes"/>
      <point x="1785" y="-147" type="line" smooth="yes"/>
      <point x="1785" y="48"/>
      <point x="1686" y="151"/>
      <point x="1454" y="151" type="curve" smooth="yes"/>
      <point x="1257" y="151"/>
      <point x="1119" y="70"/>
      <point x="956" y="-70" type="curve" smooth="yes"/>
      <point x="839" y="-170" type="line" smooth="yes"/>
      <point x="744" y="-251"/>
      <point x="679" y="-313"/>
      <point x="552" y="-313" type="curve" smooth="yes"/>
      <point x="409" y="-313"/>
      <point x="346" y="-239"/>
      <point x="346" y="-113" type="curve" smooth="yes"/>
      <point x="346" y="-104" type="line" smooth="yes"/>
      <point x="346" y="43"/>
      <point x="419" y="106"/>
      <point x="629" y="132" type="curve" smooth="yes"/>
      <point x="1291" y="213" type="line" smooth="yes"/>
      <point x="1669" y="259"/>
      <point x="1788" y="394"/>
      <point x="1788" y="716" type="curve" smooth="yes"/>
      <point x="1788" y="763" type="line" smooth="yes"/>
      <point x="1788" y="888"/>
      <point x="1759" y="993"/>
      <point x="1688" y="1055" type="curve"/>
      <point x="1685" y="1086" type="line"/>
      <point x="1635" y="1145"/>
      <point x="1559" y="1176"/>
      <point x="1445" y="1176" type="curve" smooth="yes"/>
      <point x="1229" y="1176"/>
      <point x="1129" y="1053"/>
      <point x="1113" y="847" type="curve"/>
      <point x="1109" y="847" type="line"/>
      <point x="1078" y="1050"/>
      <point x="948" y="1184"/>
    </contour>
    <component base="MatraUDflt.tm" xOffset="1689"/>
  </outline>
</glyph>
<glyph name="JaMatraUu_Fused_SimpleUu.tm" format="2">
  <advance width="3265"/>
  <note>
JaMatraUu.tm
</note>
  <outline>
    <contour>
      <point x="1827" y="1146" type="line"/>
      <point x="1557" y="1146" type="line"/>
      <point x="1574" y="994" type="line"/>
      <point x="1827" y="994" type="line"/>
    </contour>
    <contour>
      <point x="1450" y="1176" type="curve" smooth="yes"/>
      <point x="1235" y="1176"/>
      <point x="1135" y="1053"/>
      <point x="1119" y="847" type="curve"/>
      <point x="1112" y="847" type="line"/>
      <point x="1082" y="1050"/>
      <point x="955" y="1184"/>
      <point x="665" y="1184" type="curve" smooth="yes"/>
      <point x="317" y="1184"/>
      <point x="130" y="998"/>
      <point x="130" y="670" type="curve" smooth="yes"/>
      <point x="130" y="542" type="line" smooth="yes"/>
      <point x="130" y="319"/>
      <point x="226" y="180"/>
      <point x="437" y="162" type="curve"/>
      <point x="678" y="218" type="line"/>
      <point x="786" y="264"/>
      <point x="829" y="368"/>
      <point x="829" y="497" type="curve" smooth="yes"/>
      <point x="829" y="575" type="line" smooth="yes"/>
      <point x="829" y="772"/>
      <point x="745" y="881"/>
      <point x="564" y="881" type="curve" smooth="yes"/>
      <point x="423" y="881"/>
      <point x="331" y="800"/>
      <point x="308" y="699" type="curve"/>
      <point x="291" y="699" type="line"/>
      <point x="300" y="582" type="line"/>
      <point x="322" y="669"/>
      <point x="398" y="734"/>
      <point x="495" y="734" type="curve" smooth="yes"/>
      <point x="604" y="734"/>
      <point x="654" y="672"/>
      <point x="654" y="559" type="curve" smooth="yes"/>
      <point x="654" y="467" type="line" smooth="yes"/>
      <point x="654" y="350"/>
      <point x="608" y="277"/>
      <point x="492" y="277" type="curve" smooth="yes"/>
      <point x="362" y="277"/>
      <point x="309" y="360"/>
      <point x="309" y="499" type="curve" smooth="yes"/>
      <point x="309" y="699" type="line"/>
      <point x="300" y="699" type="line"/>
      <point x="301" y="909"/>
      <point x="428" y="1035"/>
      <point x="676" y="1035" type="curve" smooth="yes"/>
      <point x="938" y="1035"/>
      <point x="1035" y="902"/>
      <point x="1035" y="652" type="curve" smooth="yes"/>
      <point x="1035" y="422" type="line"/>
      <point x="1214" y="422" type="line"/>
      <point x="1214" y="754" type="line" smooth="yes"/>
      <point x="1214" y="950"/>
      <point x="1293" y="1023"/>
      <point x="1419" y="1023" type="curve" smooth="yes"/>
      <point x="1559" y="1023"/>
      <point x="1613" y="932"/>
      <point x="1613" y="769" type="curve" smooth="yes"/>
      <point x="1613" y="681" type="line"/>
      <point x="1613" y="451"/>
      <point x="1531" y="343"/>
      <point x="1266" y="325" type="curve" smooth="yes"/>
      <point x="637" y="281" type="line"/>
      <point x="418" y="219" type="line"/>
      <point x="248" y="182"/>
      <point x="170" y="78"/>
      <point x="170" y="-103" type="curve" smooth="yes"/>
      <point x="170" y="-114" type="line" smooth="yes"/>
      <point x="170" y="-339"/>
      <point x="307" y="-465"/>
      <point x="552" y="-465" type="curve" smooth="yes"/>
      <point x="771" y="-465"/>
      <point x="873" y="-373"/>
      <point x="1012" y="-208" type="curve" smooth="yes"/>
      <point x="1148" y="-46" type="line" smooth="yes"/>
      <point x="1262" y="89"/>
      <point x="1329" y="159"/>
      <point x="1448" y="159" type="curve" smooth="yes"/>
      <point x="1563" y="159"/>
      <point x="1609" y="81"/>
      <point x="1609" y="-48" type="curve" smooth="yes"/>
      <point x="1609" y="-88" type="line" smooth="yes"/>
      <point x="1609" y="-235"/>
      <point x="1549" y="-311"/>
      <point x="1398" y="-311" type="curve" smooth="yes"/>
      <point x="1318" y="-311"/>
      <point x="1245" y="-296"/>
      <point x="1168" y="-269" type="curve"/>
      <point x="1205" y="-427" type="line"/>
      <point x="1278" y="-452"/>
      <point x="1359" y="-465"/>
      <point x="1440" y="-465" type="curve" smooth="yes"/>
      <point x="1682" y="-465"/>
      <point x="1790" y="-336"/>
      <point x="1790" y="-88" type="curve" smooth="yes"/>
      <point x="1790" y="-54" type="line" smooth="yes"/>
      <point x="1790" y="134"/>
      <point x="1716" y="262"/>
      <point x="1531" y="279" type="curve"/>
      <point x="1446" y="291" type="line"/>
      <point x="1268" y="291"/>
      <point x="1169" y="205"/>
      <point x="1031" y="56" type="curve" smooth="yes"/>
      <point x="859" y="-133" type="line" smooth="yes"/>
      <point x="760" y="-242"/>
      <point x="693" y="-313"/>
      <point x="557" y="-313" type="curve" smooth="yes"/>
      <point x="414" y="-313"/>
      <point x="351" y="-237"/>
      <point x="351" y="-109" type="curve" smooth="yes"/>
      <point x="351" y="-99" type="line" smooth="yes"/>
      <point x="351" y="49"/>
      <point x="422" y="124"/>
      <point x="642" y="138" type="curve" smooth="yes"/>
      <point x="1301" y="178" type="line" smooth="yes"/>
      <point x="1681" y="201"/>
      <point x="1793" y="357"/>
      <point x="1793" y="687" type="curve" smooth="yes"/>
      <point x="1793" y="763" type="line" smooth="yes"/>
      <point x="1793" y="888"/>
      <point x="1764" y="993"/>
      <point x="1693" y="1055" type="curve"/>
      <point x="1690" y="1086" type="line"/>
      <point x="1640" y="1145"/>
      <point x="1564" y="1176"/>
    </contour>
    <component base="MatraUuDflt_Simple.tm" xOffset="1683"/>
  </outline>
</glyph>
<glyph name="KaBeak_Nonexporting" format="2">
  <advance width="285"/>
  <outline>
    <contour>
      <point x="-8" y="999" type="line"/>
      <point x="285" y="999" type="line"/>
      <point x="266" y="1147" type="line"/>
      <point x="-8" y="1147" type="line"/>
    </contour>
  </outline>
</glyph>
<glyph name="KaComponent_Nonexporting" format="2">
  <advance width="1023"/>
  <outline>
    <contour>
      <point x="834" y="690" type="line"/>
      <point x="392" y="690" type="line"/>
      <point x="258" y="680" type="line"/>
      <point x="63" y="633" type="line"/>
      <point x="51" y="566"/>
      <point x="46" y="471"/>
      <point x="46" y="397" type="curve" smooth="yes"/>
      <point x="46" y="126"/>
      <point x="187" y="-23"/>
      <point x="496" y="-23" type="curve" smooth="yes"/>
      <point x="798" y="-23"/>
      <point x="916" y="122"/>
      <point x="916" y="395" type="curve" smooth="yes"/>
      <point x="916" y="624" type="line"/>
      <point x="916" y="646" type="line"/>
      <point x="916" y="1096" type="line"/>
      <point x="747" y="1096" type="line"/>
      <point x="747" y="646" type="line"/>
      <point x="740" y="624" type="line"/>
      <point x="740" y="394" type="line" smooth="yes"/>
      <point x="740" y="216"/>
      <point x="668" y="131"/>
      <point x="494" y="131" type="curve" smooth="yes"/>
      <point x="310" y="131"/>
      <point x="223" y="218"/>
      <point x="223" y="389" type="curve" smooth="yes"/>
      <point x="223" y="431"/>
      <point x="225" y="492"/>
      <point x="229" y="530" type="curve"/>
      <point x="352" y="547" type="line"/>
      <point x="834" y="547" type="line"/>
    </contour>
    <contour>
      <point x="1023" y="1147" type="line"/>
      <point x="247" y="1147" type="line"/>
      <point x="247" y="628" type="line"/>
      <point x="414" y="628" type="line"/>
      <point x="422" y="1008" type="line"/>
      <point x="822" y="1008" type="line"/>
      <point x="843" y="999" type="line"/>
      <point x="1023" y="999" type="line"/>
    </contour>
  </outline>
</glyph>
<glyph name="KaMatraU.tm" format="2">
  <advance width="2133"/>
  <note>
KaMatraU.tm
</note>
  <outline>
    <contour>
      <point x="1449" y="546" type="line"/>
      <point x="1558" y="546" type="line" smooth="yes"/>
      <point x="1766" y="546"/>
      <point x="1848" y="460"/>
      <point x="1848" y="255" type="curve" smooth="yes"/>
      <point x="1848" y="233" type="line" smooth="yes"/>
      <point x="1848" y="-117"/>
      <point x="1652" y="-316"/>
      <point x="1161" y="-316" type="curve" smooth="yes"/>
      <point x="1157" y="-316" type="line" smooth="yes"/>
      <point x="587" y="-316"/>
      <point x="331" y="-45"/>
      <point x="331" y="468" type="curve" smooth="yes"/>
      <point x="331" y="756"/>
      <point x="382" y="972"/>
      <point x="449" y="1147" type="curve"/>
      <point x="256" y="1147" type="line"/>
      <point x="201" y="1004"/>
      <point x="142" y="771"/>
      <point x="142" y="464" type="curve" smooth="yes"/>
      <point x="142" y="-151"/>
      <point x="470" y="-478"/>
      <point x="1157" y="-478" type="curve" smooth="yes"/>
      <point x="1162" y="-478" type="line" smooth="yes"/>
      <point x="1768" y="-478"/>
      <point x="2034" y="-215"/>
      <point x="2034" y="236" type="curve" smooth="yes"/>
      <point x="2034" y="257" type="line" smooth="yes"/>
      <point x="2034" y="552"/>
      <point x="1904" y="694"/>
      <point x="1569" y="694" type="curve" smooth="yes"/>
      <point x="1449" y="694" type="line"/>
    </contour>
    <component base="KaComponent_Nonexporting" xOffset="620"/>
    <component base="KaBeak_Nonexporting" xOffset="1583"/>
  </outline>
</glyph>
<glyph name="KaMatraU_Simple.tm" format="2">
  <advance width="2119"/>
  <note>
KaMatraU.tm
</note>
  <outline>
    <contour>
      <point x="1429" y="556" type="line"/>
      <point x="1544" y="556" type="line" smooth="yes"/>
      <point x="1753" y="556"/>
      <point x="1834" y="473"/>
      <point x="1834" y="265" type="curve" smooth="yes"/>
      <point x="1834" y="221" type="line" smooth="yes"/>
      <point x="1834" y="-126"/>
      <point x="1639" y="-316"/>
      <point x="1149" y="-316" type="curve" smooth="yes"/>
      <point x="1145" y="-316" type="line" smooth="yes"/>
      <point x="584" y="-316"/>
      <point x="346" y="-67"/>
      <point x="346" y="429" type="curve"/>
      <point x="346" y="1147" type="line"/>
      <point x="158" y="1147" type="line"/>
      <point x="158" y="425" type="line"/>
      <point x="158" y="-174"/>
      <point x="468" y="-478"/>
      <point x="1145" y="-478" type="curve" smooth="yes"/>
      <point x="1150" y="-478" type="line" smooth="yes"/>
      <point x="1754" y="-478"/>
      <point x="2020" y="-231"/>
      <point x="2020" y="221" type="curve" smooth="yes"/>
      <point x="2020" y="272" type="line" smooth="yes"/>
      <point x="2020" y="569"/>
      <point x="1892" y="704"/>
      <point x="1560" y="704" type="curve" smooth="yes"/>
      <point x="1429" y="704" type="line"/>
    </contour>
    <component base="KaComponent_Nonexporting" xOffset="601"/>
    <component base="KaBeak_Nonexporting" xOffset="1563"/>
  </outline>
</glyph>
<glyph name="KaMatraUu.tm" format="2">
  <advance width="2407"/>
  <note>
KaMatraUu.tm
</note>
  <outline>
    <contour>
      <point x="931" y="544" type="line"/>
      <point x="1069" y="544" type="line" smooth="yes"/>
      <point x="1232" y="544"/>
      <point x="1285" y="486"/>
      <point x="1285" y="315" type="curve" smooth="yes"/>
      <point x="1285" y="0" type="line"/>
      <point x="1469" y="0" type="line"/>
      <point x="1469" y="379" type="line" smooth="yes"/>
      <point x="1469" y="552"/>
      <point x="1546" y="632"/>
      <point x="1665" y="632" type="curve" smooth="yes"/>
      <point x="1787" y="632"/>
      <point x="1838" y="554"/>
      <point x="1838" y="412" type="curve" smooth="yes"/>
      <point x="1838" y="342" type="line" smooth="yes"/>
      <point x="1838" y="188"/>
      <point x="1802" y="100"/>
      <point x="1733" y="13" type="curve"/>
      <point x="1733" y="0" type="line"/>
      <point x="2369" y="0" type="line"/>
      <point x="2391" y="154" type="line"/>
      <point x="1893" y="154" type="line"/>
      <point x="1930" y="103" type="line"/>
      <point x="1982" y="173"/>
      <point x="2018" y="255"/>
      <point x="2018" y="401" type="curve" smooth="yes"/>
      <point x="2018" y="464" type="line" smooth="yes"/>
      <point x="2018" y="674"/>
      <point x="1923" y="789"/>
      <point x="1708" y="789" type="curve" smooth="yes"/>
      <point x="1498" y="789"/>
      <point x="1383" y="666"/>
      <point x="1383" y="466" type="curve" smooth="yes"/>
      <point x="1383" y="455" type="line"/>
      <point x="1375" y="455" type="line"/>
      <point x="1359" y="621"/>
      <point x="1285" y="694"/>
      <point x="1084" y="694" type="curve" smooth="yes"/>
      <point x="931" y="694" type="line"/>
    </contour>
    <component base="KaComponent_Nonexporting" xOffset="74"/>
    <component base="KaBeak_Nonexporting" xOffset="1044"/>
  </outline>
</glyph>
<glyph name="Kssa.tm" format="2">
  <advance width="3241"/>
  <note>
Ksha.tm
</note>
  <anchor x="1852" y="1239" name="top"/>
  <outline>
    <contour>
      <point x="916" y="544" type="line"/>
      <point x="1069" y="544" type="line" smooth="yes"/>
      <point x="1232" y="544"/>
      <point x="1285" y="485"/>
      <point x="1285" y="314" type="curve" smooth="yes"/>
      <point x="1285" y="0" type="line"/>
      <point x="1469" y="0" type="line"/>
      <point x="1469" y="379" type="line" smooth="yes"/>
      <point x="1469" y="551"/>
      <point x="1546" y="632"/>
      <point x="1665" y="632" type="curve" smooth="yes"/>
      <point x="1787" y="632"/>
      <point x="1838" y="553"/>
      <point x="1838" y="412" type="curve" smooth="yes"/>
      <point x="1838" y="342" type="line" smooth="yes"/>
      <point x="1838" y="188"/>
      <point x="1802" y="100"/>
      <point x="1733" y="13" type="curve"/>
      <point x="1733" y="0" type="line"/>
      <point x="2345" y="0" type="line"/>
      <point x="2345" y="153" type="line"/>
      <point x="1893" y="153" type="line"/>
      <point x="1930" y="103" type="line"/>
      <point x="1982" y="173"/>
      <point x="2018" y="255"/>
      <point x="2018" y="401" type="curve" smooth="yes"/>
      <point x="2018" y="464" type="line" smooth="yes"/>
      <point x="2018" y="674"/>
      <point x="1923" y="789"/>
      <point x="1708" y="789" type="curve" smooth="yes"/>
      <point x="1498" y="789"/>
      <point x="1383" y="666"/>
      <point x="1383" y="466" type="curve" smooth="yes"/>
      <point x="1383" y="455" type="line"/>
      <point x="1375" y="455" type="line"/>
      <point x="1359" y="621"/>
      <point x="1285" y="694"/>
      <point x="1084" y="694" type="curve" smooth="yes"/>
      <point x="916" y="694" type="line"/>
    </contour>
    <component base="KaComponent_Nonexporting" xOffset="74"/>
    <component base="Ssa_Above_NonExporting" xOffset="1918"/>
    <component base="Ssa_Below_NonExporting" xOffset="2338"/>
    <component base="KaBeak_Nonexporting" xOffset="1044"/>
  </outline>
</glyph>
<glyph name="KssaMatraI.tm" format="2">
  <advance width="3758"/>
  <note>
KshaMatraI.tm
</note>
  <anchor x="1852" y="1239" name="top"/>
  <outline>
    <contour>
      <point x="3083" y="1742" type="curve" smooth="yes"/>
      <point x="2759" y="1742"/>
      <point x="2577" y="1568"/>
      <point x="2577" y="1300" type="curve" smooth="yes"/>
      <point x="2577" y="1296" type="line" smooth="yes"/>
      <point x="2577" y="1242"/>
      <point x="2586" y="1186"/>
      <point x="2602" y="1144" type="curve"/>
      <point x="2784" y="1135" type="line"/>
      <point x="2766" y="1172"/>
      <point x="2758" y="1219"/>
      <point x="2758" y="1271" type="curve" smooth="yes"/>
      <point x="2758" y="1271" type="line" smooth="yes"/>
      <point x="2758" y="1476"/>
      <point x="2875" y="1582"/>
      <point x="3081" y="1582" type="curve" smooth="yes"/>
      <point x="3311" y="1582"/>
      <point x="3404" y="1467"/>
      <point x="3404" y="1200" type="curve" smooth="yes"/>
      <point x="3404" y="0" type="line"/>
      <point x="3590" y="0" type="line"/>
      <point x="3590" y="1194" type="line" smooth="yes"/>
      <point x="3590" y="1569"/>
      <point x="3436" y="1742"/>
    </contour>
    <component base="Kssa.tm"/>
  </outline>
</glyph>
<glyph name="KssaMatraI_Simple_Fly.tm" format="2">
  <advance width="3241"/>
  <note>
KshaMatraI.tm
</note>
  <anchor x="1852" y="1239" name="top"/>
  <outline>
    <contour>
      <point x="3094" y="1577" type="line"/>
      <point x="2757" y="1577" type="line" smooth="yes"/>
      <point x="2567" y="1577"/>
      <point x="2486" y="1512"/>
      <point x="2486" y="1380" type="curve" smooth="yes"/>
      <point x="2486" y="1302"/>
      <point x="2517" y="1233"/>
      <point x="2572" y="1138" type="curve"/>
      <point x="2750" y="1138" type="line"/>
      <point x="2710" y="1203"/>
      <point x="2677" y="1267"/>
      <point x="2677" y="1320" type="curve" smooth="yes"/>
      <point x="2677" y="1390"/>
      <point x="2714" y="1420"/>
      <point x="2816" y="1420" type="curve" smooth="yes"/>
      <point x="3119" y="1420" type="line"/>
    </contour>
    <component base="Kssa_Simple.tm"/>
  </outline>
</glyph>
<glyph name="KssaMatraIi_Simple_SimpleIi.tm" format="2">
  <advance width="3217"/>
  <note>
KshaMatraIi.tm
</note>
  <anchor x="1852" y="1239" name="top"/>
  <outline>
    <contour>
      <point x="2836" y="1838" type="curve" smooth="yes"/>
      <point x="2599" y="1838"/>
      <point x="2491" y="1713"/>
      <point x="2491" y="1488" type="curve" smooth="yes"/>
      <point x="2491" y="1422" type="line" smooth="yes"/>
      <point x="2491" y="1292"/>
      <point x="2525" y="1200"/>
      <point x="2587" y="1149" type="curve"/>
      <point x="2763" y="1146" type="line"/>
      <point x="2694" y="1204"/>
      <point x="2664" y="1290"/>
      <point x="2664" y="1405" type="curve" smooth="yes"/>
      <point x="2664" y="1451" type="line"/>
      <point x="2664" y="1512" type="line" smooth="yes"/>
      <point x="2664" y="1638"/>
      <point x="2723" y="1697"/>
      <point x="2832" y="1697" type="curve" smooth="yes"/>
      <point x="2932" y="1697"/>
      <point x="2983" y="1649"/>
      <point x="2983" y="1559" type="curve" smooth="yes"/>
      <point x="2983" y="1539" type="line" smooth="yes"/>
      <point x="2983" y="1447"/>
      <point x="2939" y="1399"/>
      <point x="2837" y="1399" type="curve" smooth="yes"/>
      <point x="2748" y="1399"/>
      <point x="2689" y="1441"/>
      <point x="2660" y="1496" type="curve"/>
      <point x="2656" y="1496" type="line"/>
      <point x="2658" y="1427" type="line"/>
      <point x="2669" y="1427" type="line"/>
      <point x="2714" y="1306" type="line"/>
      <point x="2741" y="1283"/>
      <point x="2804" y="1266"/>
      <point x="2882" y="1266" type="curve" smooth="yes"/>
      <point x="3070" y="1266"/>
      <point x="3153" y="1362"/>
      <point x="3153" y="1536" type="curve" smooth="yes"/>
      <point x="3153" y="1553" type="line" smooth="yes"/>
      <point x="3153" y="1733"/>
      <point x="3053" y="1838"/>
    </contour>
    <component base="Kssa_Simple.tm"/>
  </outline>
</glyph>
<glyph name="LaMatraI_Fly.tm" format="2">
  <advance width="1977"/>
  <note>
LaMatraI.tm
</note>
  <outline>
    <contour>
      <point x="709" y="1174" type="curve" smooth="yes"/>
      <point x="323" y="1174"/>
      <point x="129" y="956"/>
      <point x="129" y="564" type="curve" smooth="yes"/>
      <point x="129" y="395" type="line" smooth="yes"/>
      <point x="129" y="140"/>
      <point x="243" y="-23"/>
      <point x="502" y="-23" type="curve" smooth="yes"/>
      <point x="744" y="-23"/>
      <point x="846" y="117"/>
      <point x="846" y="334" type="curve" smooth="yes"/>
      <point x="846" y="423" type="line" smooth="yes"/>
      <point x="846" y="635"/>
      <point x="757" y="750"/>
      <point x="575" y="750" type="curve" smooth="yes"/>
      <point x="427" y="750"/>
      <point x="336" y="664"/>
      <point x="312" y="559" type="curve"/>
      <point x="297" y="559" type="line"/>
      <point x="302" y="434" type="line"/>
      <point x="323" y="520"/>
      <point x="398" y="592"/>
      <point x="501" y="592" type="curve" smooth="yes"/>
      <point x="616" y="592"/>
      <point x="666" y="527"/>
      <point x="666" y="405" type="curve" smooth="yes"/>
      <point x="666" y="325" type="line" smooth="yes"/>
      <point x="666" y="199"/>
      <point x="616" y="125"/>
      <point x="499" y="125" type="curve" smooth="yes"/>
      <point x="368" y="125"/>
      <point x="311" y="211"/>
      <point x="311" y="356" type="curve"/>
      <point x="311" y="559" type="line"/>
      <point x="305" y="559" type="line"/>
      <point x="305" y="566"/>
      <point x="305" y="570"/>
      <point x="305" y="577" type="curve" smooth="yes"/>
      <point x="307" y="864"/>
      <point x="436" y="1014"/>
      <point x="706" y="1014" type="curve" smooth="yes"/>
      <point x="965" y="1014"/>
      <point x="1067" y="870"/>
      <point x="1067" y="590" type="curve" smooth="yes"/>
      <point x="1067" y="421" type="line" smooth="yes"/>
      <point x="1067" y="131"/>
      <point x="1184" y="-23"/>
      <point x="1458" y="-23" type="curve" smooth="yes"/>
      <point x="1733" y="-23"/>
      <point x="1844" y="140"/>
      <point x="1844" y="444" type="curve" smooth="yes"/>
      <point x="1844" y="685" type="line" smooth="yes"/>
      <point x="1844" y="1001"/>
      <point x="1744" y="1172"/>
      <point x="1448" y="1172" type="curve" smooth="yes"/>
      <point x="1420" y="1172"/>
      <point x="1373" y="1166"/>
      <point x="1342" y="1160" type="curve"/>
      <point x="1453" y="1119" type="line"/>
      <point x="1410" y="1206"/>
      <point x="1382" y="1265"/>
      <point x="1382" y="1320" type="curve" smooth="yes"/>
      <point x="1382" y="1390"/>
      <point x="1419" y="1420"/>
      <point x="1521" y="1420" type="curve" smooth="yes"/>
      <point x="1841" y="1420" type="line"/>
      <point x="1817" y="1577" type="line"/>
      <point x="1463" y="1577" type="line" smooth="yes"/>
      <point x="1274" y="1577"/>
      <point x="1193" y="1510"/>
      <point x="1193" y="1372" type="curve" smooth="yes"/>
      <point x="1193" y="1280"/>
      <point x="1231" y="1195"/>
      <point x="1316" y="1006" type="curve"/>
      <point x="1340" y="1010"/>
      <point x="1368" y="1013"/>
      <point x="1394" y="1013" type="curve" smooth="yes"/>
      <point x="1597" y="1013"/>
      <point x="1655" y="895"/>
      <point x="1655" y="680" type="curve" smooth="yes"/>
      <point x="1655" y="438" type="line" smooth="yes"/>
      <point x="1655" y="241"/>
      <point x="1601" y="136"/>
      <point x="1458" y="136" type="curve" smooth="yes"/>
      <point x="1313" y="136"/>
      <point x="1254" y="230"/>
      <point x="1254" y="425" type="curve" smooth="yes"/>
      <point x="1254" y="594" type="line" smooth="yes"/>
      <point x="1254" y="970"/>
      <point x="1102" y="1174"/>
    </contour>
  </outline>
</glyph>
<glyph name="LaMatraIi.tm" format="2">
  <advance width="1977"/>
  <note>
LaMatraIi.tm
</note>
  <outline>
    <contour>
      <point x="1388" y="1409" type="line" smooth="yes"/>
      <point x="1388" y="1609"/>
      <point x="1471" y="1710"/>
      <point x="1640" y="1725" type="curve"/>
      <point x="1640" y="1719" type="line"/>
      <point x="1668" y="1724"/>
      <point x="1698" y="1727"/>
      <point x="1729" y="1727" type="curve" smooth="yes"/>
      <point x="1869" y="1727"/>
      <point x="1925" y="1665"/>
      <point x="1925" y="1550" type="curve" smooth="yes"/>
      <point x="1925" y="1542" type="line" smooth="yes"/>
      <point x="1925" y="1451"/>
      <point x="1886" y="1404"/>
      <point x="1804" y="1404" type="curve" smooth="yes"/>
      <point x="1713" y="1404"/>
      <point x="1675" y="1458"/>
      <point x="1675" y="1552" type="curve" smooth="yes"/>
      <point x="1675" y="1570" type="line" smooth="yes"/>
      <point x="1675" y="1637"/>
      <point x="1687" y="1690"/>
      <point x="1715" y="1731" type="curve"/>
      <point x="1640" y="1732" type="line"/>
      <point x="1640" y="1720" type="line"/>
      <point x="1569" y="1691"/>
      <point x="1525" y="1626"/>
      <point x="1525" y="1532" type="curve" smooth="yes"/>
      <point x="1525" y="1522" type="line" smooth="yes"/>
      <point x="1525" y="1370"/>
      <point x="1612" y="1274"/>
      <point x="1805" y="1274" type="curve" smooth="yes"/>
      <point x="1993" y="1274"/>
      <point x="2084" y="1370"/>
      <point x="2084" y="1545" type="curve" smooth="yes"/>
      <point x="2084" y="1551" type="line" smooth="yes"/>
      <point x="2084" y="1746"/>
      <point x="1961" y="1865"/>
      <point x="1690" y="1865" type="curve" smooth="yes"/>
      <point x="1365" y="1865"/>
      <point x="1213" y="1703"/>
      <point x="1213" y="1420" type="curve" smooth="yes"/>
      <point x="1213" y="1409" type="line" smooth="yes"/>
      <point x="1213" y="1247"/>
      <point x="1260" y="1096"/>
      <point x="1316" y="1006" type="curve"/>
      <point x="1340" y="1010"/>
      <point x="1370" y="1013"/>
      <point x="1397" y="1013" type="curve" smooth="yes"/>
      <point x="1597" y="1013"/>
      <point x="1655" y="895"/>
      <point x="1655" y="680" type="curve" smooth="yes"/>
      <point x="1655" y="438" type="line" smooth="yes"/>
      <point x="1655" y="241"/>
      <point x="1601" y="136"/>
      <point x="1458" y="136" type="curve" smooth="yes"/>
      <point x="1313" y="136"/>
      <point x="1254" y="230"/>
      <point x="1254" y="425" type="curve" smooth="yes"/>
      <point x="1254" y="594" type="line" smooth="yes"/>
      <point x="1254" y="970"/>
      <point x="1101" y="1174"/>
      <point x="708" y="1174" type="curve" smooth="yes"/>
      <point x="323" y="1174"/>
      <point x="129" y="956"/>
      <point x="129" y="564" type="curve" smooth="yes"/>
      <point x="129" y="395" type="line" smooth="yes"/>
      <point x="129" y="140"/>
      <point x="243" y="-23"/>
      <point x="502" y="-23" type="curve" smooth="yes"/>
      <point x="744" y="-23"/>
      <point x="846" y="117"/>
      <point x="846" y="334" type="curve" smooth="yes"/>
      <point x="846" y="423" type="line" smooth="yes"/>
      <point x="846" y="629"/>
      <point x="759" y="740"/>
      <point x="580" y="740" type="curve" smooth="yes"/>
      <point x="427" y="740"/>
      <point x="334" y="649"/>
      <point x="309" y="539" type="curve"/>
      <point x="297" y="539" type="line"/>
      <point x="302" y="434" type="line"/>
      <point x="323" y="520"/>
      <point x="398" y="592"/>
      <point x="501" y="592" type="curve" smooth="yes"/>
      <point x="616" y="592"/>
      <point x="666" y="527"/>
      <point x="666" y="405" type="curve" smooth="yes"/>
      <point x="666" y="325" type="line" smooth="yes"/>
      <point x="666" y="199"/>
      <point x="615" y="125"/>
      <point x="499" y="125" type="curve" smooth="yes"/>
      <point x="368" y="125"/>
      <point x="311" y="211"/>
      <point x="311" y="356" type="curve"/>
      <point x="311" y="539" type="line"/>
      <point x="305" y="539" type="line"/>
      <point x="305" y="554"/>
      <point x="305" y="562"/>
      <point x="305" y="577" type="curve" smooth="yes"/>
      <point x="307" y="864"/>
      <point x="435" y="1014"/>
      <point x="705" y="1014" type="curve" smooth="yes"/>
      <point x="965" y="1014"/>
      <point x="1067" y="870"/>
      <point x="1067" y="590" type="curve" smooth="yes"/>
      <point x="1067" y="421" type="line" smooth="yes"/>
      <point x="1067" y="131"/>
      <point x="1184" y="-23"/>
      <point x="1458" y="-23" type="curve" smooth="yes"/>
      <point x="1733" y="-23"/>
      <point x="1844" y="140"/>
      <point x="1844" y="444" type="curve" smooth="yes"/>
      <point x="1844" y="685" type="line" smooth="yes"/>
      <point x="1844" y="997"/>
      <point x="1747" y="1163"/>
      <point x="1468" y="1163" type="curve" smooth="yes"/>
      <point x="1423" y="1163"/>
      <point x="1381" y="1156"/>
      <point x="1347" y="1146" type="curve"/>
      <point x="1461" y="1121" type="line"/>
      <point x="1418" y="1184"/>
      <point x="1388" y="1296"/>
      <point x="1388" y="1398" type="curve" smooth="yes"/>
    </contour>
  </outline>
</glyph>
<glyph name="LaMatraIi_SimpleIi.tm" format="2">
  <advance width="1977"/>
  <note>
LaMatraIi.tm
</note>
  <outline>
    <contour>
      <point x="708" y="1174" type="curve" smooth="yes"/>
      <point x="323" y="1174"/>
      <point x="129" y="956"/>
      <point x="129" y="564" type="curve" smooth="yes"/>
      <point x="129" y="395" type="line" smooth="yes"/>
      <point x="129" y="140"/>
      <point x="243" y="-23"/>
      <point x="502" y="-23" type="curve" smooth="yes"/>
      <point x="744" y="-23"/>
      <point x="846" y="117"/>
      <point x="846" y="334" type="curve" smooth="yes"/>
      <point x="846" y="423" type="line" smooth="yes"/>
      <point x="846" y="635"/>
      <point x="757" y="750"/>
      <point x="575" y="750" type="curve" smooth="yes"/>
      <point x="427" y="750"/>
      <point x="336" y="664"/>
      <point x="312" y="559" type="curve"/>
      <point x="297" y="559" type="line"/>
      <point x="302" y="434" type="line"/>
      <point x="323" y="520"/>
      <point x="398" y="592"/>
      <point x="501" y="592" type="curve" smooth="yes"/>
      <point x="616" y="592"/>
      <point x="666" y="527"/>
      <point x="666" y="405" type="curve" smooth="yes"/>
      <point x="666" y="325" type="line" smooth="yes"/>
      <point x="666" y="199"/>
      <point x="615" y="125"/>
      <point x="499" y="125" type="curve" smooth="yes"/>
      <point x="368" y="125"/>
      <point x="311" y="211"/>
      <point x="311" y="356" type="curve"/>
      <point x="311" y="559" type="line"/>
      <point x="305" y="559" type="line"/>
      <point x="305" y="566"/>
      <point x="305" y="570"/>
      <point x="305" y="577" type="curve" smooth="yes"/>
      <point x="307" y="864"/>
      <point x="435" y="1014"/>
      <point x="705" y="1014" type="curve" smooth="yes"/>
      <point x="965" y="1014"/>
      <point x="1067" y="870"/>
      <point x="1067" y="590" type="curve" smooth="yes"/>
      <point x="1067" y="421" type="line" smooth="yes"/>
      <point x="1067" y="131"/>
      <point x="1184" y="-23"/>
      <point x="1458" y="-23" type="curve" smooth="yes"/>
      <point x="1733" y="-23"/>
      <point x="1844" y="140"/>
      <point x="1844" y="444" type="curve" smooth="yes"/>
      <point x="1844" y="685" type="line" smooth="yes"/>
      <point x="1844" y="1003"/>
      <point x="1742" y="1171"/>
      <point x="1448" y="1171" type="curve" smooth="yes"/>
      <point x="1410" y="1171"/>
      <point x="1376" y="1165"/>
      <point x="1347" y="1154" type="curve"/>
      <point x="1481" y="1122" type="line"/>
      <point x="1481" y="1425" type="line"/>
      <point x="1481" y="1446" type="line"/>
      <point x="1481" y="1512" type="line" smooth="yes"/>
      <point x="1481" y="1638"/>
      <point x="1540" y="1697"/>
      <point x="1649" y="1697" type="curve" smooth="yes"/>
      <point x="1749" y="1697"/>
      <point x="1800" y="1649"/>
      <point x="1800" y="1559" type="curve" smooth="yes"/>
      <point x="1800" y="1539" type="line" smooth="yes"/>
      <point x="1800" y="1447"/>
      <point x="1756" y="1399"/>
      <point x="1654" y="1399" type="curve" smooth="yes"/>
      <point x="1565" y="1399"/>
      <point x="1506" y="1441"/>
      <point x="1477" y="1496" type="curve"/>
      <point x="1473" y="1496" type="line"/>
      <point x="1475" y="1427" type="line"/>
      <point x="1486" y="1427" type="line"/>
      <point x="1531" y="1306" type="line"/>
      <point x="1558" y="1283"/>
      <point x="1621" y="1266"/>
      <point x="1699" y="1266" type="curve" smooth="yes"/>
      <point x="1887" y="1266"/>
      <point x="1970" y="1362"/>
      <point x="1970" y="1536" type="curve" smooth="yes"/>
      <point x="1970" y="1553" type="line" smooth="yes"/>
      <point x="1970" y="1733"/>
      <point x="1870" y="1838"/>
      <point x="1653" y="1838" type="curve" smooth="yes"/>
      <point x="1416" y="1838"/>
      <point x="1308" y="1713"/>
      <point x="1308" y="1488" type="curve" smooth="yes"/>
      <point x="1308" y="1004" type="line"/>
      <point x="1334" y="1009"/>
      <point x="1367" y="1013"/>
      <point x="1397" y="1013" type="curve" smooth="yes"/>
      <point x="1597" y="1013"/>
      <point x="1655" y="895"/>
      <point x="1655" y="680" type="curve" smooth="yes"/>
      <point x="1655" y="438" type="line" smooth="yes"/>
      <point x="1655" y="241"/>
      <point x="1601" y="136"/>
      <point x="1458" y="136" type="curve" smooth="yes"/>
      <point x="1313" y="136"/>
      <point x="1254" y="230"/>
      <point x="1254" y="425" type="curve" smooth="yes"/>
      <point x="1254" y="594" type="line" smooth="yes"/>
      <point x="1254" y="970"/>
      <point x="1101" y="1174"/>
    </contour>
  </outline>
</glyph>
<glyph name="LaMatraU.tm" format="2">
  <advance width="2513"/>
  <note>
LaMatraU.tm
</note>
  <anchor x="1129" y="1239" name="top"/>
  <outline>
    <contour>
      <point x="2159" y="1147" type="line"/>
      <point x="2159" y="-298" type="line"/>
      <point x="2345" y="-298" type="line"/>
      <point x="2345" y="1147" type="line"/>
    </contour>
    <contour>
      <point x="816" y="-762" type="curve" smooth="yes"/>
      <point x="1273" y="-762"/>
      <point x="1496" y="-573"/>
      <point x="1539" y="-295" type="curve"/>
      <point x="1541" y="-257" type="line"/>
      <point x="1550" y="-193"/>
      <point x="1560" y="-89"/>
      <point x="1561" y="14" type="curve"/>
      <point x="1373" y="14" type="line"/>
      <point x="1373" y="-83"/>
      <point x="1363" y="-187"/>
      <point x="1355" y="-244" type="curve"/>
      <point x="1349" y="-288" type="line"/>
      <point x="1318" y="-475"/>
      <point x="1160" y="-610"/>
      <point x="816" y="-610" type="curve" smooth="yes"/>
      <point x="463" y="-610"/>
      <point x="310" y="-478"/>
      <point x="284" y="-336" type="curve"/>
      <point x="2345" y="-336" type="line"/>
      <point x="2345" y="-186" type="line"/>
      <point x="63" y="-186" type="line"/>
      <point x="84" y="-544"/>
      <point x="323" y="-762"/>
    </contour>
    <component base="La.tm"/>
  </outline>
</glyph>
<glyph name="LaMatraU_Simple.tm" format="2">
  <advance width="2513"/>
  <note>
LaMatraU.tm
</note>
  <anchor x="1129" y="1239" name="top"/>
  <outline>
    <contour>
      <point x="2345" y="-212" type="line"/>
      <point x="70" y="-212" type="line"/>
      <point x="96" y="-368" type="line"/>
      <point x="2345" y="-368" type="line"/>
    </contour>
    <contour>
      <point x="1368" y="69" type="line"/>
      <point x="1368" y="-270" type="line"/>
      <point x="1550" y="-270" type="line"/>
      <point x="1550" y="69" type="line"/>
    </contour>
    <contour>
      <point x="2159" y="1147" type="line"/>
      <point x="2159" y="-323" type="line"/>
      <point x="2345" y="-323" type="line"/>
      <point x="2345" y="1147" type="line"/>
    </contour>
    <component base="La.tm"/>
  </outline>
</glyph>
<glyph name="LlaMatraU.tm" format="2">
  <advance width="3112"/>
  <note>
LlaMatraU.tm
</note>
  <outline>
    <contour>
      <point x="2703" y="755" type="curve" smooth="yes"/>
      <point x="2550" y="755"/>
      <point x="2459" y="669"/>
      <point x="2433" y="552" type="curve"/>
      <point x="2402" y="552" type="line"/>
      <point x="2402" y="399" type="line"/>
      <point x="2416" y="399" type="line"/>
      <point x="2443" y="517"/>
      <point x="2519" y="588"/>
      <point x="2630" y="588" type="curve" smooth="yes"/>
      <point x="2767" y="588"/>
      <point x="2817" y="497"/>
      <point x="2817" y="319" type="curve" smooth="yes"/>
      <point x="2817" y="312" type="line" smooth="yes"/>
      <point x="2817" y="-184"/>
      <point x="2497" y="-416"/>
      <point x="1685" y="-416" type="curve" smooth="yes"/>
      <point x="1649" y="-416" type="line" smooth="yes"/>
      <point x="720" y="-416"/>
      <point x="339" y="-103"/>
      <point x="339" y="570" type="curve" smooth="yes"/>
      <point x="339" y="799"/>
      <point x="359" y="975"/>
      <point x="402" y="1147" type="curve"/>
      <point x="211" y="1147" type="line"/>
      <point x="174" y="1001"/>
      <point x="150" y="802"/>
      <point x="150" y="567" type="curve" smooth="yes"/>
      <point x="150" y="-205"/>
      <point x="616" y="-577"/>
      <point x="1654" y="-577" type="curve" smooth="yes"/>
      <point x="1685" y="-577" type="line" smooth="yes"/>
      <point x="2615" y="-577"/>
      <point x="3005" y="-284"/>
      <point x="3005" y="313" type="curve" smooth="yes"/>
      <point x="3005" y="336" type="line" smooth="yes"/>
      <point x="3005" y="611"/>
      <point x="2918" y="755"/>
    </contour>
    <contour>
      <point x="2239" y="1101" type="line"/>
      <point x="2239" y="0" type="line"/>
      <point x="2425" y="0" type="line"/>
      <point x="2425" y="1101" type="line"/>
    </contour>
    <contour>
      <point x="1264" y="1174" type="curve" smooth="yes"/>
      <point x="887" y="1174"/>
      <point x="696" y="957"/>
      <point x="696" y="572" type="curve" smooth="yes"/>
      <point x="696" y="395" type="line" smooth="yes"/>
      <point x="696" y="140"/>
      <point x="810" y="-23"/>
      <point x="1069" y="-23" type="curve" smooth="yes"/>
      <point x="1311" y="-23"/>
      <point x="1413" y="117"/>
      <point x="1413" y="334" type="curve" smooth="yes"/>
      <point x="1413" y="423" type="line" smooth="yes"/>
      <point x="1413" y="635"/>
      <point x="1324" y="750"/>
      <point x="1142" y="750" type="curve" smooth="yes"/>
      <point x="994" y="750"/>
      <point x="903" y="664"/>
      <point x="879" y="559" type="curve"/>
      <point x="864" y="559" type="line"/>
      <point x="869" y="434" type="line"/>
      <point x="890" y="520"/>
      <point x="965" y="592"/>
      <point x="1069" y="592" type="curve" smooth="yes"/>
      <point x="1183" y="592"/>
      <point x="1234" y="527"/>
      <point x="1234" y="405" type="curve" smooth="yes"/>
      <point x="1234" y="325" type="line" smooth="yes"/>
      <point x="1234" y="199"/>
      <point x="1182" y="125"/>
      <point x="1066" y="125" type="curve" smooth="yes"/>
      <point x="935" y="125"/>
      <point x="878" y="211"/>
      <point x="878" y="356" type="curve"/>
      <point x="878" y="559" type="line"/>
      <point x="872" y="559" type="line"/>
      <point x="872" y="569"/>
      <point x="872" y="575"/>
      <point x="872" y="585" type="curve" smooth="yes"/>
      <point x="874" y="866"/>
      <point x="1005" y="1014"/>
      <point x="1278" y="1014" type="curve" smooth="yes"/>
      <point x="1558" y="1014"/>
      <point x="1663" y="856"/>
      <point x="1663" y="547" type="curve" smooth="yes"/>
      <point x="1663" y="0" type="line"/>
      <point x="1849" y="0" type="line"/>
      <point x="1849" y="994" type="line"/>
      <point x="2473" y="994" type="line"/>
      <point x="2473" y="1147" type="line"/>
      <point x="1722" y="1147" type="line"/>
      <point x="1724" y="843" type="line"/>
      <point x="1717" y="843" type="line"/>
      <point x="1681" y="1030"/>
      <point x="1556" y="1174"/>
    </contour>
    <component base="RaBeak_Nonexporting" xOffset="2311"/>
  </outline>
</glyph>
<glyph name="LlaMatraU_Simple.tm" format="2">
  <advance width="3100"/>
  <note>
LlaMatraU.tm
</note>
  <outline>
    <contour>
      <point x="2692" y="755" type="curve" smooth="yes"/>
      <point x="2539" y="755"/>
      <point x="2448" y="669"/>
      <point x="2422" y="552" type="curve"/>
      <point x="2390" y="552" type="line"/>
      <point x="2390" y="399" type="line"/>
      <point x="2405" y="399" type="line"/>
      <point x="2432" y="517"/>
      <point x="2508" y="588"/>
      <point x="2618" y="588" type="curve" smooth="yes"/>
      <point x="2755" y="588"/>
      <point x="2805" y="497"/>
      <point x="2805" y="319" type="curve" smooth="yes"/>
      <point x="2805" y="312" type="line" smooth="yes"/>
      <point x="2805" y="-184"/>
      <point x="2489" y="-416"/>
      <point x="1683" y="-416" type="curve" smooth="yes"/>
      <point x="1647" y="-416" type="line" smooth="yes"/>
      <point x="725" y="-416"/>
      <point x="347" y="-103"/>
      <point x="347" y="570" type="curve"/>
      <point x="347" y="1147" type="line"/>
      <point x="158" y="1147" type="line"/>
      <point x="158" y="567" type="line"/>
      <point x="158" y="-205"/>
      <point x="621" y="-577"/>
      <point x="1653" y="-577" type="curve" smooth="yes"/>
      <point x="1683" y="-577" type="line" smooth="yes"/>
      <point x="2606" y="-577"/>
      <point x="2993" y="-284"/>
      <point x="2993" y="313" type="curve" smooth="yes"/>
      <point x="2993" y="336" type="line" smooth="yes"/>
      <point x="2993" y="611"/>
      <point x="2906" y="755"/>
    </contour>
    <contour>
      <point x="2228" y="1101" type="line"/>
      <point x="2228" y="0" type="line"/>
      <point x="2414" y="0" type="line"/>
      <point x="2414" y="1101" type="line"/>
    </contour>
    <contour>
      <point x="1252" y="1174" type="curve" smooth="yes"/>
      <point x="875" y="1174"/>
      <point x="685" y="957"/>
      <point x="685" y="572" type="curve" smooth="yes"/>
      <point x="685" y="395" type="line" smooth="yes"/>
      <point x="685" y="140"/>
      <point x="799" y="-23"/>
      <point x="1057" y="-23" type="curve" smooth="yes"/>
      <point x="1300" y="-23"/>
      <point x="1402" y="117"/>
      <point x="1402" y="334" type="curve" smooth="yes"/>
      <point x="1402" y="423" type="line" smooth="yes"/>
      <point x="1402" y="635"/>
      <point x="1313" y="750"/>
      <point x="1131" y="750" type="curve" smooth="yes"/>
      <point x="983" y="750"/>
      <point x="891" y="664"/>
      <point x="867" y="559" type="curve"/>
      <point x="853" y="559" type="line"/>
      <point x="857" y="434" type="line"/>
      <point x="878" y="520"/>
      <point x="954" y="592"/>
      <point x="1057" y="592" type="curve" smooth="yes"/>
      <point x="1172" y="592"/>
      <point x="1222" y="527"/>
      <point x="1222" y="405" type="curve" smooth="yes"/>
      <point x="1222" y="325" type="line" smooth="yes"/>
      <point x="1222" y="199"/>
      <point x="1171" y="125"/>
      <point x="1054" y="125" type="curve" smooth="yes"/>
      <point x="924" y="125"/>
      <point x="866" y="211"/>
      <point x="866" y="356" type="curve"/>
      <point x="866" y="559" type="line"/>
      <point x="860" y="559" type="line"/>
      <point x="860" y="569"/>
      <point x="860" y="575"/>
      <point x="860" y="585" type="curve" smooth="yes"/>
      <point x="863" y="866"/>
      <point x="993" y="1014"/>
      <point x="1267" y="1014" type="curve" smooth="yes"/>
      <point x="1546" y="1014"/>
      <point x="1651" y="856"/>
      <point x="1651" y="547" type="curve" smooth="yes"/>
      <point x="1651" y="0" type="line"/>
      <point x="1837" y="0" type="line"/>
      <point x="1837" y="994" type="line"/>
      <point x="2461" y="994" type="line"/>
      <point x="2461" y="1147" type="line"/>
      <point x="1711" y="1147" type="line"/>
      <point x="1713" y="843" type="line"/>
      <point x="1706" y="843" type="line"/>
      <point x="1670" y="1030"/>
      <point x="1544" y="1174"/>
    </contour>
    <component base="RaBeak_Nonexporting" xOffset="2300"/>
  </outline>
</glyph>
<glyph name="LllaMatraI_Fly.tm" format="2">
  <advance width="1686"/>
  <note>
LllaMatraI.tm
</note>
  <anchor x="853" y="1239" name="top"/>
  <outline>
    <contour>
      <point x="775" y="-652" type="curve" smooth="yes"/>
      <point x="1011" y="-652"/>
      <point x="1090" y="-547"/>
      <point x="1163" y="-376" type="curve" smooth="yes"/>
      <point x="1171" y="-360" type="line" smooth="yes"/>
      <point x="1186" y="-327"/>
      <point x="1196" y="-313"/>
      <point x="1235" y="-313" type="curve" smooth="yes"/>
      <point x="1337" y="-313" type="line"/>
      <point x="1361" y="-169" type="line"/>
      <point x="1144" y="-169" type="line" smooth="yes"/>
      <point x="991" y="-169"/>
      <point x="950" y="-123"/>
      <point x="950" y="-3" type="curve" smooth="yes"/>
      <point x="950" y="84" type="line"/>
      <point x="768" y="84" type="line"/>
      <point x="768" y="-14" type="line" smooth="yes"/>
      <point x="768" y="-194"/>
      <point x="834" y="-272"/>
      <point x="1030" y="-283" type="curve"/>
      <point x="1030" y="-288" type="line"/>
      <point x="1011" y="-291"/>
      <point x="1000" y="-307"/>
      <point x="988" y="-332" type="curve" smooth="yes"/>
      <point x="982" y="-343" type="line" smooth="yes"/>
      <point x="939" y="-438"/>
      <point x="897" y="-506"/>
      <point x="776" y="-506" type="curve" smooth="yes"/>
      <point x="640" y="-506"/>
      <point x="571" y="-432"/>
      <point x="571" y="-284" type="curve" smooth="yes"/>
      <point x="571" y="-243"/>
      <point x="574" y="-203"/>
      <point x="578" y="-172" type="curve"/>
      <point x="397" y="-172" type="line"/>
      <point x="394" y="-201"/>
      <point x="391" y="-238"/>
      <point x="391" y="-280" type="curve" smooth="yes"/>
      <point x="391" y="-518"/>
      <point x="521" y="-652"/>
    </contour>
    <component base="MaMatraI_Fly.tm"/>
  </outline>
</glyph>
<glyph name="LllaMatraU.tm" format="2">
  <advance width="2295"/>
  <note>
LllaMatraU.tm
</note>
  <anchor x="1462" y="1239" name="top"/>
  <outline>
    <contour>
      <point x="256" y="1147" type="line"/>
      <point x="201" y="973"/>
      <point x="150" y="701"/>
      <point x="150" y="352" type="curve" smooth="yes"/>
      <point x="150" y="-273"/>
      <point x="428" y="-602"/>
      <point x="1064" y="-602" type="curve" smooth="yes"/>
      <point x="1382" y="-602"/>
      <point x="1582" y="-499"/>
      <point x="1739" y="-369" type="curve" smooth="yes"/>
      <point x="1754" y="-356" type="line" smooth="yes"/>
      <point x="1783" y="-331"/>
      <point x="1805" y="-318"/>
      <point x="1844" y="-318" type="curve" smooth="yes"/>
      <point x="1945" y="-318" type="line"/>
      <point x="1969" y="-174" type="line"/>
      <point x="1748" y="-174" type="line" smooth="yes"/>
      <point x="1597" y="-174"/>
      <point x="1558" y="-126"/>
      <point x="1558" y="3" type="curve" smooth="yes"/>
      <point x="1558" y="84" type="line"/>
      <point x="1377" y="84" type="line"/>
      <point x="1377" y="-7" type="line" smooth="yes"/>
      <point x="1377" y="-160"/>
      <point x="1440" y="-246"/>
      <point x="1613" y="-260" type="curve"/>
      <point x="1613" y="-264" type="line"/>
      <point x="1595" y="-269"/>
      <point x="1577" y="-279"/>
      <point x="1557" y="-293" type="curve" smooth="yes"/>
      <point x="1545" y="-302" type="line" smooth="yes"/>
      <point x="1444" y="-379"/>
      <point x="1290" y="-442"/>
      <point x="1066" y="-442" type="curve" smooth="yes"/>
      <point x="540" y="-442"/>
      <point x="339" y="-164"/>
      <point x="339" y="346" type="curve" smooth="yes"/>
      <point x="339" y="684"/>
      <point x="383" y="944"/>
      <point x="447" y="1147" type="curve"/>
    </contour>
    <component base="Ma.tm" xOffset="609"/>
  </outline>
</glyph>
<glyph name="LllaMatraUu.tm" format="2">
  <advance width="2576"/>
  <note>
LllaMatraUu.tm
</note>
  <anchor x="1743" y="1239" name="top"/>
  <outline>
    <contour>
      <point x="1211" y="-470" type="curve" smooth="yes"/>
      <point x="607" y="-470"/>
      <point x="326" y="-190"/>
      <point x="326" y="406" type="curve" smooth="yes"/>
      <point x="326" y="449"/>
      <point x="326" y="492"/>
      <point x="326" y="534" type="curve"/>
      <point x="326" y="703" type="line"/>
      <point x="326" y="917"/>
      <point x="388" y="1020"/>
      <point x="518" y="1020" type="curve" smooth="yes"/>
      <point x="629" y="1020"/>
      <point x="679" y="944"/>
      <point x="679" y="806" type="curve"/>
      <point x="679" y="737" type="line" smooth="yes"/>
      <point x="679" y="596"/>
      <point x="630" y="520"/>
      <point x="504" y="520" type="curve" smooth="yes"/>
      <point x="419" y="520"/>
      <point x="346" y="561"/>
      <point x="319" y="618" type="curve"/>
      <point x="314" y="618" type="line"/>
      <point x="314" y="534" type="line"/>
      <point x="331" y="534" type="line"/>
      <point x="374" y="420" type="line"/>
      <point x="409" y="397"/>
      <point x="470" y="374"/>
      <point x="556" y="374" type="curve" smooth="yes"/>
      <point x="769" y="374"/>
      <point x="860" y="510"/>
      <point x="860" y="736" type="curve"/>
      <point x="860" y="803" type="line" smooth="yes"/>
      <point x="860" y="1032"/>
      <point x="757" y="1174"/>
      <point x="525" y="1174" type="curve" smooth="yes"/>
      <point x="272" y="1174"/>
      <point x="142" y="1015"/>
      <point x="142" y="682" type="curve" smooth="yes"/>
      <point x="142" y="395" type="line" smooth="yes"/>
      <point x="142" y="-303"/>
      <point x="502" y="-630"/>
      <point x="1211" y="-630" type="curve" smooth="yes"/>
      <point x="1567" y="-630"/>
      <point x="1817" y="-543"/>
      <point x="2021" y="-373" type="curve" smooth="yes"/>
      <point x="2040" y="-356" type="line" smooth="yes"/>
      <point x="2072" y="-330"/>
      <point x="2092" y="-318"/>
      <point x="2133" y="-318" type="curve" smooth="yes"/>
      <point x="2237" y="-318" type="line"/>
      <point x="2261" y="-174" type="line"/>
      <point x="2035" y="-174" type="line" smooth="yes"/>
      <point x="1883" y="-174"/>
      <point x="1845" y="-126"/>
      <point x="1845" y="3" type="curve" smooth="yes"/>
      <point x="1845" y="84" type="line"/>
      <point x="1663" y="84" type="line"/>
      <point x="1663" y="-7" type="line" smooth="yes"/>
      <point x="1663" y="-158"/>
      <point x="1728" y="-245"/>
      <point x="1899" y="-260" type="curve"/>
      <point x="1899" y="-263" type="line"/>
      <point x="1877" y="-267"/>
      <point x="1861" y="-280"/>
      <point x="1836" y="-296" type="curve" smooth="yes"/>
      <point x="1823" y="-306" type="line" smooth="yes"/>
      <point x="1682" y="-402"/>
      <point x="1485" y="-470"/>
    </contour>
    <component base="Ma.tm" xOffset="890"/>
  </outline>
</glyph>
<glyph name="MaMatraI.tm" format="2">
  <advance width="2210"/>
  <note>
MaMatraI.tm
</note>
  <anchor x="853" y="1239" name="top"/>
  <outline>
    <contour>
      <point x="1570" y="1742" type="curve" smooth="yes"/>
      <point x="1264" y="1742"/>
      <point x="1095" y="1576"/>
      <point x="1095" y="1317" type="curve" smooth="yes"/>
      <point x="1095" y="1307" type="line" smooth="yes"/>
      <point x="1095" y="1227"/>
      <point x="1113" y="1140"/>
      <point x="1146" y="1086" type="curve"/>
      <point x="1322" y="1086" type="line"/>
      <point x="1291" y="1135"/>
      <point x="1276" y="1205"/>
      <point x="1276" y="1282" type="curve" smooth="yes"/>
      <point x="1276" y="1289" type="line" smooth="yes"/>
      <point x="1276" y="1482"/>
      <point x="1379" y="1582"/>
      <point x="1567" y="1582" type="curve" smooth="yes"/>
      <point x="1773" y="1582"/>
      <point x="1856" y="1474"/>
      <point x="1856" y="1224" type="curve" smooth="yes"/>
      <point x="1856" y="0" type="line"/>
      <point x="2042" y="0" type="line"/>
      <point x="2042" y="1218" type="line" smooth="yes"/>
      <point x="2042" y="1576"/>
      <point x="1898" y="1742"/>
    </contour>
    <component base="Ma.tm"/>
  </outline>
</glyph>
<glyph name="MaMatraI_Fly.tm" format="2">
  <advance width="1686"/>
  <note>
MaMatraI.tm
</note>
  <anchor x="853" y="1239" name="top"/>
  <outline>
    <contour>
      <point x="1530" y="1577" type="line"/>
      <point x="1192" y="1577" type="line" smooth="yes"/>
      <point x="1002" y="1577"/>
      <point x="921" y="1512"/>
      <point x="921" y="1380" type="curve" smooth="yes"/>
      <point x="921" y="1296"/>
      <point x="956" y="1221"/>
      <point x="1010" y="1126" type="curve"/>
      <point x="1192" y="1124" type="line"/>
      <point x="1147" y="1193"/>
      <point x="1112" y="1262"/>
      <point x="1112" y="1320" type="curve" smooth="yes"/>
      <point x="1112" y="1390"/>
      <point x="1150" y="1420"/>
      <point x="1251" y="1420" type="curve" smooth="yes"/>
      <point x="1554" y="1420" type="line"/>
    </contour>
    <component base="Ma.tm"/>
  </outline>
</glyph>
<glyph name="MaMatraIi.tm" format="2">
  <advance width="1686"/>
  <note>
MaMatraIi.tm
</note>
  <anchor x="853" y="1239" name="top"/>
  <outline>
    <contour>
      <point x="1409" y="1865" type="curve" smooth="yes"/>
      <point x="1093" y="1865"/>
      <point x="938" y="1715"/>
      <point x="938" y="1453" type="curve" smooth="yes"/>
      <point x="938" y="1441" type="line" smooth="yes"/>
      <point x="938" y="1308"/>
      <point x="989" y="1182"/>
      <point x="1050" y="1119" type="curve"/>
      <point x="1227" y="1119" type="line"/>
      <point x="1161" y="1190"/>
      <point x="1111" y="1307"/>
      <point x="1111" y="1430" type="curve" smooth="yes"/>
      <point x="1111" y="1441" type="line" smooth="yes"/>
      <point x="1111" y="1615"/>
      <point x="1197" y="1711"/>
      <point x="1360" y="1725" type="curve"/>
      <point x="1360" y="1719" type="line"/>
      <point x="1387" y="1724"/>
      <point x="1417" y="1727"/>
      <point x="1448" y="1727" type="curve" smooth="yes"/>
      <point x="1588" y="1727"/>
      <point x="1645" y="1665"/>
      <point x="1645" y="1550" type="curve" smooth="yes"/>
      <point x="1645" y="1542" type="line" smooth="yes"/>
      <point x="1645" y="1451"/>
      <point x="1606" y="1404"/>
      <point x="1523" y="1404" type="curve" smooth="yes"/>
      <point x="1433" y="1404"/>
      <point x="1394" y="1458"/>
      <point x="1394" y="1552" type="curve" smooth="yes"/>
      <point x="1394" y="1570" type="line" smooth="yes"/>
      <point x="1394" y="1637"/>
      <point x="1406" y="1690"/>
      <point x="1434" y="1731" type="curve"/>
      <point x="1360" y="1732" type="line"/>
      <point x="1360" y="1720" type="line"/>
      <point x="1288" y="1691"/>
      <point x="1245" y="1626"/>
      <point x="1245" y="1532" type="curve" smooth="yes"/>
      <point x="1245" y="1522" type="line" smooth="yes"/>
      <point x="1245" y="1370"/>
      <point x="1332" y="1274"/>
      <point x="1524" y="1274" type="curve" smooth="yes"/>
      <point x="1712" y="1274"/>
      <point x="1803" y="1370"/>
      <point x="1803" y="1545" type="curve" smooth="yes"/>
      <point x="1803" y="1551" type="line" smooth="yes"/>
      <point x="1803" y="1746"/>
      <point x="1681" y="1865"/>
    </contour>
    <component base="Ma.tm"/>
  </outline>
</glyph>
<glyph name="MaMatraU.tm" format="2">
  <advance width="2291"/>
  <note>
MaMatraU.tm
</note>
  <anchor x="1458" y="1239" name="top"/>
  <outline>
    <contour>
      <point x="252" y="1147" type="line"/>
      <point x="196" y="973"/>
      <point x="145" y="700"/>
      <point x="145" y="352" type="curve" smooth="yes"/>
      <point x="145" y="-217"/>
      <point x="378" y="-526"/>
      <point x="889" y="-526" type="curve" smooth="yes"/>
      <point x="894" y="-526" type="line" smooth="yes"/>
      <point x="1338" y="-526"/>
      <point x="1545" y="-324"/>
      <point x="1556" y="38" type="curve"/>
      <point x="1558" y="98" type="line"/>
      <point x="1371" y="100" type="line"/>
      <point x="1369" y="43" type="line"/>
      <point x="1361" y="-224"/>
      <point x="1218" y="-366"/>
      <point x="893" y="-366" type="curve" smooth="yes"/>
      <point x="889" y="-366" type="line" smooth="yes"/>
      <point x="494" y="-366"/>
      <point x="334" y="-110"/>
      <point x="334" y="346" type="curve" smooth="yes"/>
      <point x="334" y="683"/>
      <point x="378" y="944"/>
      <point x="443" y="1147" type="curve"/>
    </contour>
    <component base="Ma.tm" xOffset="605"/>
  </outline>
</glyph>
<glyph name="MaMatraUu.tm" format="2">
  <advance width="2576"/>
  <note>
MaMatraUu.tm
</note>
  <anchor x="1743" y="1239" name="top"/>
  <outline>
    <contour>
      <point x="520" y="1174" type="curve" smooth="yes"/>
      <point x="267" y="1174"/>
      <point x="137" y="1015"/>
      <point x="137" y="682" type="curve" smooth="yes"/>
      <point x="137" y="395" type="line" smooth="yes"/>
      <point x="137" y="-271"/>
      <point x="447" y="-579"/>
      <point x="1042" y="-579" type="curve" smooth="yes"/>
      <point x="1048" y="-579" type="line" smooth="yes"/>
      <point x="1574" y="-579"/>
      <point x="1825" y="-359"/>
      <point x="1840" y="36" type="curve"/>
      <point x="1842" y="98" type="line"/>
      <point x="1654" y="100" type="line"/>
      <point x="1652" y="42" type="line"/>
      <point x="1641" y="-258"/>
      <point x="1456" y="-419"/>
      <point x="1048" y="-419" type="curve" smooth="yes"/>
      <point x="1041" y="-419" type="line" smooth="yes"/>
      <point x="554" y="-419"/>
      <point x="321" y="-158"/>
      <point x="321" y="406" type="curve" smooth="yes"/>
      <point x="321" y="449"/>
      <point x="321" y="491"/>
      <point x="321" y="534" type="curve"/>
      <point x="321" y="703" type="line"/>
      <point x="321" y="917"/>
      <point x="383" y="1020"/>
      <point x="513" y="1020" type="curve" smooth="yes"/>
      <point x="624" y="1020"/>
      <point x="674" y="944"/>
      <point x="674" y="806" type="curve"/>
      <point x="674" y="737" type="line" smooth="yes"/>
      <point x="674" y="596"/>
      <point x="625" y="520"/>
      <point x="499" y="520" type="curve" smooth="yes"/>
      <point x="414" y="520"/>
      <point x="341" y="561"/>
      <point x="314" y="618" type="curve"/>
      <point x="309" y="618" type="line"/>
      <point x="309" y="534" type="line"/>
      <point x="326" y="534" type="line"/>
      <point x="369" y="420" type="line"/>
      <point x="404" y="397"/>
      <point x="465" y="374"/>
      <point x="551" y="374" type="curve" smooth="yes"/>
      <point x="764" y="374"/>
      <point x="855" y="510"/>
      <point x="855" y="736" type="curve"/>
      <point x="855" y="803" type="line" smooth="yes"/>
      <point x="855" y="1032"/>
      <point x="752" y="1174"/>
    </contour>
    <component base="Ma.tm" xOffset="890"/>
  </outline>
</glyph>
<glyph name="MatraAiComponent_Nonexporting" format="2">
  <advance width="1298"/>
  <outline>
    <contour>
      <point x="581" y="1565" type="curve" smooth="yes"/>
      <point x="255" y="1565"/>
      <point x="108" y="1423"/>
      <point x="108" y="1191" type="curve" smooth="yes"/>
      <point x="108" y="1160" type="line" smooth="yes"/>
      <point x="108" y="959"/>
      <point x="214" y="842"/>
      <point x="425" y="842" type="curve" smooth="yes"/>
      <point x="643" y="842"/>
      <point x="742" y="959"/>
      <point x="742" y="1143" type="curve" smooth="yes"/>
      <point x="742" y="1179" type="line" smooth="yes"/>
      <point x="742" y="1316"/>
      <point x="693" y="1395"/>
      <point x="608" y="1420" type="curve"/>
      <point x="608" y="1432" type="line"/>
      <point x="529" y="1431" type="line"/>
      <point x="558" y="1383"/>
      <point x="572" y="1315"/>
      <point x="572" y="1224" type="curve" smooth="yes"/>
      <point x="572" y="1165" type="line" smooth="yes"/>
      <point x="572" y="1048"/>
      <point x="528" y="984"/>
      <point x="425" y="984" type="curve" smooth="yes"/>
      <point x="325" y="984"/>
      <point x="275" y="1043"/>
      <point x="275" y="1155" type="curve" smooth="yes"/>
      <point x="275" y="1197" type="line" smooth="yes"/>
      <point x="275" y="1343"/>
      <point x="353" y="1423"/>
      <point x="527" y="1425" type="curve" smooth="yes"/>
      <point x="555" y="1425"/>
      <point x="584" y="1424"/>
      <point x="608" y="1420" type="curve"/>
      <point x="608" y="1426" type="line"/>
      <point x="822" y="1417"/>
      <point x="924" y="1331"/>
      <point x="924" y="1103" type="curve" smooth="yes"/>
      <point x="924" y="1061" type="line" smooth="yes"/>
      <point x="924" y="859"/>
      <point x="839" y="749"/>
      <point x="598" y="694" type="curve" smooth="yes"/>
      <point x="458" y="662" type="line" smooth="yes"/>
      <point x="199" y="603"/>
      <point x="94" y="516"/>
      <point x="94" y="330" type="curve" smooth="yes"/>
      <point x="94" y="317" type="line" smooth="yes"/>
      <point x="94" y="95"/>
      <point x="254" y="-27"/>
      <point x="619" y="-27" type="curve" smooth="yes"/>
      <point x="874" y="-27"/>
      <point x="1098" y="35"/>
      <point x="1288" y="119" type="curve"/>
      <point x="1288" y="284" type="line"/>
      <point x="1092" y="196"/>
      <point x="864" y="130"/>
      <point x="620" y="130" type="curve" smooth="yes"/>
      <point x="376" y="130"/>
      <point x="276" y="198"/>
      <point x="276" y="319" type="curve" smooth="yes"/>
      <point x="276" y="327" type="line" smooth="yes"/>
      <point x="276" y="437"/>
      <point x="348" y="482"/>
      <point x="521" y="525" type="curve" smooth="yes"/>
      <point x="663" y="560" type="line" smooth="yes"/>
      <point x="991" y="641"/>
      <point x="1103" y="789"/>
      <point x="1103" y="1068" type="curve" smooth="yes"/>
      <point x="1103" y="1105" type="line" smooth="yes"/>
      <point x="1103" y="1403"/>
      <point x="950" y="1565"/>
    </contour>
  </outline>
</glyph>
<glyph name="MatraE_Simple.tm" format="2">
  <advance width="1451"/>
  <note>
MatraE.tm
</note>
  <outline>
    <contour>
      <point x="731" y="1357" type="curve" smooth="yes"/>
      <point x="334" y="1357"/>
      <point x="125" y="1132"/>
      <point x="125" y="713" type="curve" smooth="yes"/>
      <point x="125" y="420" type="line" smooth="yes"/>
      <point x="125" y="148"/>
      <point x="245" y="-23"/>
      <point x="515" y="-23" type="curve" smooth="yes"/>
      <point x="764" y="-23"/>
      <point x="868" y="122"/>
      <point x="868" y="346" type="curve" smooth="yes"/>
      <point x="868" y="434" type="line" smooth="yes"/>
      <point x="868" y="655"/>
      <point x="774" y="773"/>
      <point x="580" y="773" type="curve" smooth="yes"/>
      <point x="427" y="773"/>
      <point x="333" y="684"/>
      <point x="308" y="576" type="curve"/>
      <point x="293" y="576" type="line"/>
      <point x="297" y="451" type="line"/>
      <point x="320" y="542"/>
      <point x="399" y="615"/>
      <point x="512" y="615" type="curve" smooth="yes"/>
      <point x="634" y="615"/>
      <point x="689" y="546"/>
      <point x="689" y="416" type="curve" smooth="yes"/>
      <point x="689" y="337" type="line" smooth="yes"/>
      <point x="689" y="204"/>
      <point x="636" y="125"/>
      <point x="513" y="125" type="curve" smooth="yes"/>
      <point x="369" y="125"/>
      <point x="307" y="218"/>
      <point x="307" y="378" type="curve" smooth="yes"/>
      <point x="307" y="576" type="line"/>
      <point x="301" y="576" type="line"/>
      <point x="301" y="627"/>
      <point x="301" y="669"/>
      <point x="301" y="720" type="curve" smooth="yes"/>
      <point x="301" y="1033"/>
      <point x="444" y="1196"/>
      <point x="726" y="1196" type="curve" smooth="yes"/>
      <point x="1020" y="1196"/>
      <point x="1127" y="1039"/>
      <point x="1127" y="728" type="curve"/>
      <point x="1127" y="0" type="line"/>
      <point x="1309" y="0" type="line"/>
      <point x="1309" y="727" type="line"/>
      <point x="1309" y="1137"/>
      <point x="1148" y="1357"/>
    </contour>
  </outline>
</glyph>
<glyph name="MatraEe_Fused.tm" format="2">
  <advance width="1334"/>
  <note>
MatraEe.tm
</note>
  <outline>
    <contour>
      <point x="758" y="1471" type="curve" smooth="yes"/>
      <point x="341" y="1471"/>
      <point x="130" y="1236"/>
      <point x="130" y="816" type="curve" smooth="yes"/>
      <point x="130" y="634" type="line"/>
      <point x="130" y="214"/>
      <point x="341" y="-21"/>
      <point x="758" y="-21" type="curve" smooth="yes"/>
      <point x="1088" y="-21"/>
      <point x="1221" y="134"/>
      <point x="1221" y="378" type="curve" smooth="yes"/>
      <point x="1221" y="425" type="line" smooth="yes"/>
      <point x="1221" y="618"/>
      <point x="1124" y="732"/>
      <point x="928" y="738" type="curve"/>
      <point x="864" y="738" type="line"/>
      <point x="665" y="732"/>
      <point x="559" y="619"/>
      <point x="559" y="442" type="curve" smooth="yes"/>
      <point x="559" y="385" type="line" smooth="yes"/>
      <point x="559" y="256"/>
      <point x="618" y="170"/>
      <point x="722" y="129" type="curve"/>
      <point x="722" y="116" type="line"/>
      <point x="836" y="116" type="line"/>
      <point x="770" y="163"/>
      <point x="729" y="241"/>
      <point x="729" y="347" type="curve" smooth="yes"/>
      <point x="729" y="414" type="line" smooth="yes"/>
      <point x="729" y="546"/>
      <point x="789" y="613"/>
      <point x="891" y="613" type="curve" smooth="yes"/>
      <point x="998" y="613"/>
      <point x="1044" y="545"/>
      <point x="1044" y="423" type="curve" smooth="yes"/>
      <point x="1044" y="376" type="line" smooth="yes"/>
      <point x="1044" y="220"/>
      <point x="973" y="124"/>
      <point x="794" y="124" type="curve" smooth="yes"/>
      <point x="771" y="124"/>
      <point x="743" y="126"/>
      <point x="722" y="128" type="curve"/>
      <point x="722" y="123" type="line"/>
      <point x="446" y="135"/>
      <point x="311" y="312"/>
      <point x="311" y="625" type="curve"/>
      <point x="311" y="824" type="line" smooth="yes"/>
      <point x="311" y="1138"/>
      <point x="446" y="1315"/>
      <point x="722" y="1326" type="curve"/>
      <point x="722" y="1321" type="line"/>
      <point x="743" y="1324"/>
      <point x="771" y="1326"/>
      <point x="794" y="1326" type="curve" smooth="yes"/>
      <point x="972" y="1326"/>
      <point x="1042" y="1230"/>
      <point x="1042" y="1074" type="curve" smooth="yes"/>
      <point x="1042" y="1027" type="line" smooth="yes"/>
      <point x="1042" y="905"/>
      <point x="997" y="837"/>
      <point x="891" y="837" type="curve" smooth="yes"/>
      <point x="790" y="837"/>
      <point x="731" y="904"/>
      <point x="731" y="1036" type="curve" smooth="yes"/>
      <point x="731" y="1104" type="line" smooth="yes"/>
      <point x="731" y="1209"/>
      <point x="771" y="1287"/>
      <point x="836" y="1334" type="curve"/>
      <point x="722" y="1334" type="line"/>
      <point x="723" y="1321" type="line"/>
      <point x="619" y="1280"/>
      <point x="561" y="1194"/>
      <point x="561" y="1066" type="curve" smooth="yes"/>
      <point x="561" y="1007" type="line" smooth="yes"/>
      <point x="561" y="831"/>
      <point x="665" y="721"/>
      <point x="864" y="713" type="curve"/>
      <point x="928" y="713" type="line"/>
      <point x="1124" y="721"/>
      <point x="1219" y="834"/>
      <point x="1219" y="1024" type="curve" smooth="yes"/>
      <point x="1219" y="1072" type="line" smooth="yes"/>
      <point x="1219" y="1316"/>
      <point x="1087" y="1471"/>
    </contour>
  </outline>
</glyph>
